<svg width="21" height="26" xmlns="http://www.w3.org/2000/svg"><g fill="#F2EFEE" fill-rule="nonzero"><path d="m20.796 5.397-4.9-5.169a.737.737 0 0 0-.528-.222L6.406 0C5.308 0 4.415.88 4.415 1.963V3.02H1.99c-1.098 0-1.992.88-1.992 1.963v19.055C-.002 25.119.892 26 1.99 26l14.087-.01c1.098 0 1.992-.881 1.992-1.964l-.014-2.01.94.01c1.098 0 1.992-.88 1.992-1.963L21 5.896a.716.716 0 0 0-.204-.5zM16.07 23.505c0 .288-.237.521-.528.521H2.56a.525.525 0 0 1-.528-.52V5.552c0-.287.237-.52.528-.52H4.04v15.03c0 1.082.893 1.963 1.991 1.963h10.04v1.48zm2.925-3.977c0 .287-.237.52-.529.52h-2.154l-9.786.01a.525.525 0 0 1-.528-.52V2.531c0-.288.237-.521.528-.521L15.115 2l3.88 4.185v13.342z"/><path d="M12.581 4.522c0-.54-.439-.977-.98-.977a.979.979 0 0 0-.981.977v5.046c0 .54.439.977.98.977h5.068c.541 0 .98-.437.98-.977s-.439-.977-.98-.977H12.58v-4.07z"/></g></svg>
