<svg width="18" height="18" xmlns="http://www.w3.org/2000/svg"><g fill="none" fill-rule="evenodd"><circle cx="7.111" cy="7.111" r="7.611" transform="translate(1.889 1.889)" fill="#000" stroke="#FFF"/><g fill="#FFF"><path d="M7.206 5.949c-.409-.395-1.013-.435-1.355-.086-.34.35-.29.955.112 1.357l4.817 4.817c.403.403 1.008.453 1.357.112.349-.342.31-.946-.086-1.355L7.206 5.949Z"/><path d="M5.949 10.794c-.395.409-.435 1.013-.086 1.355.35.34.955.29 1.357-.112l4.817-4.817c.403-.403.453-1.008.112-1.357-.342-.349-.946-.31-1.355.086l-4.845 4.845Z"/></g></g></svg>