<svg height="14" width="14" xmlns="http://www.w3.org/2000/svg"><g fill="none" fill-rule="evenodd" transform="translate(1 1)"><circle cx="6" cy="6" fill="#e43366" r="6.6" stroke="#fff" stroke-width="1.2"/><g fill="#fff" fill-rule="nonzero"><path d="M6.82 4.26c.333 0 .617-.117.852-.35.234-.235.352-.518.352-.85s-.116-.615-.348-.849a1.159 1.159 0 0 0-.856-.35c-.333 0-.616.116-.848.35-.232.234-.348.517-.348.85s.117.614.352.848c.235.234.516.351.844.351zM4.927 9.78c.848 0 1.65-.44 2.403-1.321l-.255-.1c-.314.324-.584.549-.808.673a.495.495 0 0 1-.255.075.242.242 0 0 1-.142-.048c-.045-.032-.067-.066-.067-.103 0-.063.042-.198.127-.402L7.464 4.98h-.449l-2.537.277-.097.201a8.61 8.61 0 0 1 .27-.005c.164 0 .294.028.388.085.095.057.143.123.143.196 0 .118-.05.292-.15.523L3.992 8.66c-.085.19-.128.348-.128.472 0 .188.096.343.288.465.193.122.45.183.775.183z"/></g></g></svg>