<svg id="Ebene_1" data-name="Ebene 1" xmlns="http://www.w3.org/2000/svg" viewBox="0 0 190 50"><defs><clipPath id="clip-path"><circle class="cls-1" cx="28.28" cy="41.21" r="18.63"/></clipPath><clipPath id="clip-path-4"><path class="cls-1" d="M6.7 6.89v34.32a3 3 0 0 0 3 2.94h37.21a2.94 2.94 0 0 0 2.94-2.94V6.89Zm26.48 7.84h-9.81a2 2 0 0 1 0-3.92h9.81a2 2 0 1 1 0 3.92Z"/></clipPath><radialGradient id="radial-gradient" cx="482.32" cy="-121.9" r="223.2" gradientTransform="matrix(.25 0 0 -.25 -114 -23.75)" gradientUnits="userSpaceOnUse"><stop offset="0" stop-color="#fff" stop-opacity=".1"/><stop offset="1" stop-color="#fff" stop-opacity="0"/></radialGradient><style>.cls-1{fill:none}.cls-3{fill:#fff}.cls-4{clip-path:url(#clip-path-4)}.cls-13{fill:#212121;fill-opacity:.02}</style></defs><path class="cls-3" d="M65.13 37.66a5.47 5.47 0 0 1-3.84-9.29 5.25 5.25 0 0 1 3.84-1.55 4.81 4.81 0 0 1 3.81 1.69l-.92.9a3.51 3.51 0 0 0-2.89-1.32 4 4 0 0 0-2.86 1.15 4 4 0 0 0-1.16 3 4 4 0 0 0 1.16 3 3.94 3.94 0 0 0 2.86 1.14 4.08 4.08 0 0 0 3.19-1.51l.93.93a5.19 5.19 0 0 1-1.79 1.36 5.47 5.47 0 0 1-2.33.5Zm6.64-10.61v3.28l-.06 1h.06a2.3 2.3 0 0 1 .91-.86 2.6 2.6 0 0 1 1.32-.38 2.53 2.53 0 0 1 2 .81 3.27 3.27 0 0 1 .69 2.18v4.34h-1.3v-4.14c0-1.31-.59-2-1.75-2a1.65 1.65 0 0 0-1.35.66 2.38 2.38 0 0 0-.52 1.53v3.92h-1.34V27.05Zm7.85 10.37h-1.33v-7.09h1.27v1.15h.06a1.8 1.8 0 0 1 .83-.95 2.41 2.41 0 0 1 1.23-.38 2.43 2.43 0 0 1 1 .18l-.5 1.24a2 2 0 0 0-.71-.1 1.74 1.74 0 0 0-1.28.57 2 2 0 0 0-.56 1.5Zm4.11-6.25a3.73 3.73 0 0 1 5.25 0 4.1 4.1 0 0 1 0 5.41 3.73 3.73 0 0 1-5.25 0 4.07 4.07 0 0 1 0-5.41Zm1 4.57a2.25 2.25 0 0 0 3.26 0A2.87 2.87 0 0 0 88 32a2.25 2.25 0 0 0-3.26 0 2.9 2.9 0 0 0 0 3.73Zm6.35 1.68v-7.09h1.27v1h.06a2.44 2.44 0 0 1 .93-.86 2.52 2.52 0 0 1 1.26-.36 2.22 2.22 0 0 1 2.24 1.37 2.78 2.78 0 0 1 2.48-1.37 2.28 2.28 0 0 1 1.9.81 3.43 3.43 0 0 1 .63 2.18v4.34h-1.33v-4.16a2.33 2.33 0 0 0-.39-1.52 1.5 1.5 0 0 0-1.19-.45 1.55 1.55 0 0 0-1.29.67 2.37 2.37 0 0 0-.52 1.52v3.92H95.8v-4.14a2.33 2.33 0 0 0-.39-1.52 1.5 1.5 0 0 0-1.19-.45 1.58 1.58 0 0 0-1.3.67 2.42 2.42 0 0 0-.51 1.52v3.92Zm15.55.24a3.4 3.4 0 0 1-2.63-1.08 3.79 3.79 0 0 1-1-2.71 3.9 3.9 0 0 1 1-2.66 3.2 3.2 0 0 1 2.5-1.12 3.31 3.31 0 0 1 2.53 1 3.93 3.93 0 0 1 1 2.75v.25h-5.6a2.38 2.38 0 0 0 .71 1.7 2.21 2.21 0 0 0 1.55.62 1.92 1.92 0 0 0 1.94-1.22l1.18.49a3.12 3.12 0 0 1-1.14 1.39 3.33 3.33 0 0 1-2.04.59Zm1.92-4.66a1.91 1.91 0 0 0-.56-1.16 2 2 0 0 0-1.53-.55 2 2 0 0 0-1.28.46 2.44 2.44 0 0 0-.75 1.25Zm17.55-5.95-2.76 10.37H122l-2.24-6.83-2.23 6.83h-1.37l-2.88-10.37h1.39l2.19 8.16h.06l2.24-6.77h1.25l2.24 6.77h.06l2.07-8.16Zm3.47 10.61a3.41 3.41 0 0 1-2.57-1.08 3.79 3.79 0 0 1-1-2.71 3.9 3.9 0 0 1 1-2.66 3.2 3.2 0 0 1 2.5-1.12 3.3 3.3 0 0 1 2.53 1 3.93 3.93 0 0 1 1 2.75v.25h-5.6a2.42 2.42 0 0 0 .71 1.7 2.21 2.21 0 0 0 1.55.62 1.92 1.92 0 0 0 1.94-1.22l1.19.49a3.21 3.21 0 0 1-1.15 1.39 3.32 3.32 0 0 1-2.1.59Zm1.91-4.66a1.91 1.91 0 0 0-.56-1.16 2 2 0 0 0-1.53-.55 2 2 0 0 0-1.28.46 2.44 2.44 0 0 0-.75 1.25Zm6.39 4.66a3.06 3.06 0 0 1-1.46-.35 2.4 2.4 0 0 1-1-.87h-.06v1h-1.28V27.05h1.34v3.28l-.06 1h.06a2.4 2.4 0 0 1 1-.87 3.06 3.06 0 0 1 1.46-.35 3.13 3.13 0 0 1 2.37 1.09 4.13 4.13 0 0 1 0 5.39 3.13 3.13 0 0 1-2.37 1.07Zm-.22-1.22a2.13 2.13 0 0 0 1.59-.7 2.93 2.93 0 0 0 0-3.73 2.13 2.13 0 0 0-1.59-.7 2.1 2.1 0 0 0-1.6.7 3 3 0 0 0 0 3.73 2.1 2.1 0 0 0 1.6.7Zm10.72 1.22a3.9 3.9 0 0 1-2.21-.74 3.45 3.45 0 0 1-1.41-2.07l1.21-.5a2.81 2.81 0 0 0 .9 1.44 2.18 2.18 0 0 0 1.51.59 2.37 2.37 0 0 0 1.48-.46 1.45 1.45 0 0 0 .62-1.23 1.59 1.59 0 0 0-.62-1.34 6.23 6.23 0 0 0-1.94-.88 5.19 5.19 0 0 1-2.09-1.12 2.37 2.37 0 0 1-.71-1.76 2.56 2.56 0 0 1 .88-1.94 3.25 3.25 0 0 1 2.31-.83 3.31 3.31 0 0 1 2.14.66 3 3 0 0 1 1.07 1.44l-1.21.51a1.89 1.89 0 0 0-.65-.92 2.06 2.06 0 0 0-1.32-.42 2.11 2.11 0 0 0-1.32.43 1.32 1.32 0 0 0-.54 1.07 1.2 1.2 0 0 0 .5 1 4.56 4.56 0 0 0 1.47.72c.51.17.94.33 1.28.48a5.54 5.54 0 0 1 1.05.62 2.42 2.42 0 0 1 .79.95 3.07 3.07 0 0 1 .27 1.33 2.79 2.79 0 0 1-.31 1.34 2.56 2.56 0 0 1-.83 1 4.11 4.11 0 0 1-1.1.52 3.93 3.93 0 0 1-1.22.11Zm7.56-.12a2.06 2.06 0 0 1-2.29-2.27v-3.73h-1.24v-1.21h1.24v-2.18H155v2.18h1.74v1.21H155v3.62c0 .78.32 1.16 1 1.16a1.58 1.58 0 0 0 .61-.11l.46 1.14a2.59 2.59 0 0 1-1.14.19Zm2.61-6.37a3.72 3.72 0 0 1 5.24 0 4.07 4.07 0 0 1 0 5.41 3.72 3.72 0 0 1-5.24 0 4.07 4.07 0 0 1 0-5.41Zm1 4.57a2.25 2.25 0 0 0 3.26 0 2.87 2.87 0 0 0 0-3.73 2.25 2.25 0 0 0-3.26 0 2.87 2.87 0 0 0 0 3.73Zm7.68 1.68h-1.34v-7.09h1.28v1.15h.06a1.8 1.8 0 0 1 .83-.95 2.4 2.4 0 0 1 1.22-.38 2.45 2.45 0 0 1 1 .18l-.5 1.24a2 2 0 0 0-.71-.1 1.75 1.75 0 0 0-1.29.57 2.06 2.06 0 0 0-.55 1.5Zm6.7.24a3.4 3.4 0 0 1-2.61-1.08 3.79 3.79 0 0 1-1-2.71 3.9 3.9 0 0 1 1-2.66 3.18 3.18 0 0 1 2.5-1.12 3.31 3.31 0 0 1 2.53 1 3.92 3.92 0 0 1 .94 2.75v.25h-5.61a2.43 2.43 0 0 0 .72 1.7 2.19 2.19 0 0 0 1.54.62 1.9 1.9 0 0 0 1.94-1.22l1.19.49a3.12 3.12 0 0 1-1.14 1.39 3.36 3.36 0 0 1-2 .59Zm1.91-4.66a1.85 1.85 0 0 0-.55-1.16 2 2 0 0 0-1.53-.55 2 2 0 0 0-1.28.46 2.38 2.38 0 0 0-.75 1.25ZM60.51 21.32l3-7.85h1.14l3 7.85h-1.19l-.76-2.13h-3.3l-.77 2.13Zm2.23-3.07h2.61l-1.28-3.54Zm6.63 3.07L67.2 16h1.1l1.58 4.16L71.5 16h1.07l-2.19 5.37Zm5.45.18a2.11 2.11 0 0 1-1.43-.5 1.64 1.64 0 0 1-.58-1.3 1.62 1.62 0 0 1 .68-1.38 2.81 2.81 0 0 1 1.68-.5 2.89 2.89 0 0 1 1.46.33V18a1.2 1.2 0 0 0-.41-.95 1.44 1.44 0 0 0-1-.36 1.54 1.54 0 0 0-.8.21 1.09 1.09 0 0 0-.49.57l-.93-.39a2.17 2.17 0 0 1 .74-.9 2.34 2.34 0 0 1 1.44-.41 2.44 2.44 0 0 1 1.71.61 2.12 2.12 0 0 1 .68 1.7v3.24h-1v-.75a2 2 0 0 1-1.75.93Zm.16-.93a1.65 1.65 0 0 0 1.14-.46 1.45 1.45 0 0 0 .51-1.1 2 2 0 0 0-1.28-.35 1.69 1.69 0 0 0-1.11.31 1 1 0 0 0-.37.75.7.7 0 0 0 .34.62 1.27 1.27 0 0 0 .79.23Zm4.85-5.97a.71.71 0 1 1 .21-.5.69.69 0 0 1-.21.5Zm0 6.72h-1V16h1Zm2.32 0h-1v-7.85h1Zm2.85.18a2.16 2.16 0 0 1-1.44-.5 1.75 1.75 0 0 1 .11-2.68 2.77 2.77 0 0 1 1.68-.5 2.86 2.86 0 0 1 1.45.33V18a1.2 1.2 0 0 0-.4-.95 1.44 1.44 0 0 0-1-.36 1.51 1.51 0 0 0-.79.21 1.09 1.09 0 0 0-.49.57l-.92-.39a2.14 2.14 0 0 1 .73-.9 2.4 2.4 0 0 1 1.45-.41 2.44 2.44 0 0 1 1.71.61 2.15 2.15 0 0 1 .68 1.7v3.24h-1v-.75a2 2 0 0 1-1.77.93Zm.16-.93a1.62 1.62 0 0 0 1.13-.46 1.45 1.45 0 0 0 .51-1.1 1.94 1.94 0 0 0-1.28-.35 1.69 1.69 0 0 0-1.11.31 1 1 0 0 0-.37.75.72.72 0 0 0 .34.62 1.33 1.33 0 0 0 .81.23Zm6.62.93a2.21 2.21 0 0 1-1.1-.27 1.75 1.75 0 0 1-.73-.66v.75h-1v-7.85h1v3.27a1.8 1.8 0 0 1 .73-.65 2.21 2.21 0 0 1 1.1-.27 2.38 2.38 0 0 1 1.8.83 2.88 2.88 0 0 1 .75 2 2.89 2.89 0 0 1-.75 2 2.38 2.38 0 0 1-1.8.85Zm-.17-.93a1.59 1.59 0 0 0 1.21-.57 1.93 1.93 0 0 0 .5-1.41 1.92 1.92 0 0 0-.5-1.4 1.6 1.6 0 0 0-1.21-.54 1.63 1.63 0 0 0-1.21.53 2 2 0 0 0-.5 1.41 2 2 0 0 0 .5 1.42 1.62 1.62 0 0 0 1.21.56Zm4.6.75h-1v-7.85h1Zm3.6.18a2.54 2.54 0 0 1-2-.82 2.86 2.86 0 0 1-.77-2.05 3 3 0 0 1 .74-2 2.4 2.4 0 0 1 1.89-.85 2.49 2.49 0 0 1 1.92.78 3 3 0 0 1 .72 2.08v.19h-4.23a1.82 1.82 0 0 0 .54 1.28 1.65 1.65 0 0 0 1.17.47 1.44 1.44 0 0 0 1.47-.92l.9.38a2.41 2.41 0 0 1-.87 1 2.51 2.51 0 0 1-1.48.46Zm1.45-3.5a1.42 1.42 0 0 0-.42-.88 1.51 1.51 0 0 0-1.16-.42 1.44 1.44 0 0 0-1 .36 1.75 1.75 0 0 0-.56.94Zm5.5-3.4a.67.67 0 0 1-.5.21.66.66 0 0 1-.5-.21.71.71 0 0 1 0-1 .66.66 0 0 1 .5-.21.67.67 0 0 1 .5.21.71.71 0 0 1 0 1Zm0 6.72h-1V16h1ZM109 16v.74a1.74 1.74 0 0 1 .69-.65 2 2 0 0 1 1-.27 1.9 1.9 0 0 1 1.52.62 2.43 2.43 0 0 1 .53 1.64v3.29h-1v-3.18c0-1-.44-1.5-1.33-1.5a1.27 1.27 0 0 0-1 .5 1.85 1.85 0 0 0-.39 1.16v3h-1V16Zm9.76 5.41a1.57 1.57 0 0 1-1.76-1.72v-2.82h-.94V16h.94v-1.7h1V16h1.32v.92H118v2.74c0 .59.24.88.73.88a1.08 1.08 0 0 0 .46-.09l.35.87a2.14 2.14 0 0 1-.78.09Zm2.62-7.94v3.27a1.74 1.74 0 0 1 .69-.65 2 2 0 0 1 1-.27 1.9 1.9 0 0 1 1.52.62 2.43 2.43 0 0 1 .52 1.64v3.29h-1v-3.18c0-1-.45-1.5-1.33-1.5a1.24 1.24 0 0 0-1 .5 1.85 1.85 0 0 0-.39 1.16v3h-1v-7.88Zm7.36 8.03a2.57 2.57 0 0 1-2-.82 2.9 2.9 0 0 1-.76-2.05 3 3 0 0 1 .74-2 2.4 2.4 0 0 1 1.89-.85 2.49 2.49 0 0 1 1.92.78 3 3 0 0 1 .71 2.08v.19H127a1.82 1.82 0 0 0 .54 1.28 1.63 1.63 0 0 0 1.17.47 1.45 1.45 0 0 0 1.47-.92l.9.38a2.48 2.48 0 0 1-.87 1 2.51 2.51 0 0 1-1.47.46Zm1.45-3.5a1.42 1.42 0 0 0-.42-.88 1.51 1.51 0 0 0-1.16-.42 1.42 1.42 0 0 0-1 .36 1.75 1.75 0 0 0-.56.94Z"/><path d="M6.7 6.89h43.15v37.26H6.7Z" style="fill:#eee" class="cls-4"/><g class="cls-4"><path class="cls-3" d="M33.18 10.81h-9.81a2 2 0 0 0 0 3.92h9.81a2 2 0 1 0 0-3.92Z"/></g><g class="cls-4"><g style="clip-path:url(#clip-path)"><path d="M12.6 22.58v22.86h8.34l7.34-12.7h18.63V22.58Zm0 0v22.86h8.34l7.34-12.7h18.63V22.58Z" style="fill:#db4437"/><path d="M9.65 59.84h17.73l8.23-8.23v-6.16H20.94L9.65 26.07Zm0 0h17.73l8.23-8.23v-6.16H20.94L9.65 26.07Z" style="fill:#0f9d58"/><path d="m28.28 32.74 7.33 12.7-8.23 14.4h19.53v-27.1Zm0 0 7.33 12.7-8.23 14.4h19.53v-27.1Z" style="fill:#ffcd40"/><circle cx="28.28" cy="41.21" r="8.47" style="fill:#f1f1f1"/><circle cx="28.28" cy="41.21" r="6.78" style="fill:#4285f4"/></g><path d="M6.7 6.89h43.15v18.63H6.7Z" style="fill-opacity:.05;fill:#212121" class="cls-4"/><path class="cls-13" d="M6.7 25.27h43.15v.25H6.7Z"/><path d="M6.7 25.52h43.15v.24H6.7Z" style="fill-opacity:.05;fill:#fff"/><path class="cls-13" d="M33.18 14.73h-9.81a2 2 0 0 1-1.95-1.84s0 .08 0 .13a2 2 0 0 0 2 2h9.81a2 2 0 0 0 2-2 .57.57 0 0 0 0-.13 2 2 0 0 1-2.05 1.84ZM6.7 6.89v.24h43.15v-.24Z"/><path d="M23.37 10.81h9.81a2 2 0 0 1 2 1.84.49.49 0 0 0 0-.12 2 2 0 0 0-2-2h-9.81a2 2 0 0 0-2 2s0 .08 0 .12a2 2 0 0 1 2-1.84Zm23.54 33.1H9.65A3 3 0 0 1 6.7 41v.24a3 3 0 0 0 3 2.94h37.21a2.94 2.94 0 0 0 2.94-2.94V41a3 3 0 0 1-2.94 2.91Z" style="fill:#231f20;fill-opacity:.1"/><path d="M6.7 6.89v34.32a3 3 0 0 0 3 2.94h37.21a2.94 2.94 0 0 0 2.94-2.94V6.89Zm26.48 7.84h-9.81a2 2 0 0 1 0-3.92h9.81a2 2 0 1 1 0 3.92Z" style="fill:url(#radial-gradient)"/><path class="cls-1" d="M4.74 2h47.07v47.06H4.74Z"/></g><path class="cls-3" d="M185 .75A4.26 4.26 0 0 1 189.25 5v40a4.26 4.26 0 0 1-4.25 4.25H5A4.26 4.26 0 0 1 .75 45V5A4.26 4.26 0 0 1 5 .75h180m0-.75H5a5 5 0 0 0-5 5v40a5 5 0 0 0 5 5h180a5 5 0 0 0 5-5V5a5 5 0 0 0-5-5Z"/></svg>