<svg height="37" width="38" xmlns="http://www.w3.org/2000/svg" xmlns:xlink="http://www.w3.org/1999/xlink"><defs><filter id="a" height="150%" width="167.8%" x="-24.2%" y="-17.9%"><feOffset dx="1" dy="1" in="SourceAlpha" result="shadowOffsetOuter1"/><feGaussianBlur in="shadowOffsetOuter1" result="shadowBlurOuter1" stdDeviation="1"/><feColorMatrix in="shadowBlurOuter1" values="0 0 0 0 0 0 0 0 0 0 0 0 0 0 0 0 0 0 0.5 0"/></filter><path id="b" d="M0 0h3.82c1.147 0 2.153.2 3.02.6s1.547.94 2.04 1.62.857 1.42 1.09 2.22c.233.8.35 1.653.35 2.56 0 .867-.11 1.69-.33 2.47s-.567 1.52-1.04 2.22-1.157 1.26-2.05 1.68-1.947.63-3.16.63H0zm3.96 12.38c.827 0 1.55-.157 2.17-.47s1.097-.74 1.43-1.28.577-1.11.73-1.71.23-1.24.23-1.92c0-.96-.14-1.833-.42-2.62S7.34 2.933 6.66 2.4s-1.507-.8-2.48-.8H1.74v10.78z"/></defs><g fill="none" fill-rule="evenodd"><path d="m31.214 4.2 6.499 17.853L25.5 36.608 6.788 33.31.29 15.455 12.503.9z" fill="#fff"/><g stroke="#fff" stroke-width=".5"><path d="M13.628 3.99 29.1 6.72l5.374 14.763-10.1 12.036L8.903 30.79 3.53 16.026z" fill="#5865f2" stroke-opacity=".5"/><path d="M13.628 3.99 29.1 6.72l5.374 14.763L24.558 33.3l-5.454-14.667-15.392-2.825z" fill="#fff" fill-opacity=".248" stroke-opacity=".5"/><path d="m29.034 6.823-9.988 11.725" stroke-linecap="round" stroke-linejoin="round" stroke-opacity=".601"/></g><g fill-rule="nonzero" transform="translate(14.002 11.751)"><use fill="#000" filter="url(#a)" xlink:href="#b"/><use fill="#fff" xlink:href="#b"/></g></g></svg>