<svg width="38" height="37" xmlns="http://www.w3.org/2000/svg" xmlns:xlink="http://www.w3.org/1999/xlink"><defs><filter x="-24.2%" y="-17.9%" width="167.8%" height="150%" filterUnits="objectBoundingBox" id="a"><feOffset dx="1" dy="1" in="SourceAlpha" result="shadowOffsetOuter1"/><feGaussianBlur stdDeviation="1" in="shadowOffsetOuter1" result="shadowBlurOuter1"/><feColorMatrix values="0 0 0 0 0 0 0 0 0 0 0 0 0 0 0 0 0 0 0.5 0" in="shadowBlurOuter1"/></filter><path d="M0 0h3.82c1.147 0 2.153.2 3.02.6.867.4 1.547.94 2.04 1.62.493.68.857 1.42 1.09 2.22.233.8.35 1.653.35 2.56 0 .867-.11 1.69-.33 2.47-.22.78-.567 1.52-1.04 2.22-.473.7-1.157 1.26-2.05 1.68-.893.42-1.947.63-3.16.63H0V0Zm3.96 12.38c.827 0 1.55-.157 2.17-.47.62-.313 1.097-.74 1.43-1.28.333-.54.577-1.11.73-1.71.153-.6.23-1.24.23-1.92 0-.96-.14-1.833-.42-2.62A4.317 4.317 0 0 0 6.66 2.4c-.68-.533-1.507-.8-2.48-.8H1.74v10.78h2.22Z" id="b"/></defs><g fill="none" fill-rule="evenodd"><path fill="#FFF" d="m31.214 4.2 6.499 17.853L25.5 36.608 6.788 33.31.29 15.455 12.503.9z"/><path d="M13.628 3.99 29.1 6.72l5.374 14.763-10.1 12.036L8.903 30.79 3.53 16.026 13.628 3.99Z" stroke-opacity=".5" stroke="#FFF" stroke-width=".5" fill="#FB007B"/><path d="M13.628 3.99 29.1 6.72l5.374 14.763L24.558 33.3l-5.454-14.667-15.392-2.825L13.628 3.99Z" stroke-opacity=".5" stroke="#FFF" stroke-width=".5" fill-opacity=".248" fill="#FFF"/><path stroke-opacity=".601" stroke="#FFF" stroke-width=".5" stroke-linecap="round" stroke-linejoin="round" d="m29.034 6.822-9.988 11.726"/><g transform="translate(14.002 11.751)" fill-rule="nonzero"><use fill="#000" filter="url(#a)" xlink:href="#b"/><use fill="#FFF" xlink:href="#b"/></g></g></svg>