<svg width="38" height="37" xmlns="http://www.w3.org/2000/svg" xmlns:xlink="http://www.w3.org/1999/xlink"><defs><filter x="-28.5%" y="-17.9%" width="179.9%" height="150%" filterUnits="objectBoundingBox" id="a"><feOffset dx="1" dy="1" in="SourceAlpha" result="shadowOffsetOuter1"/><feGaussianBlur stdDeviation="1" in="shadowOffsetOuter1" result="shadowBlurOuter1"/><feColorMatrix values="0 0 0 0 0 0 0 0 0 0 0 0 0 0 0 0 0 0 0.5 0" in="shadowBlurOuter1"/></filter><path id="b" d="M0 14V0h8.32v1.64H1.74v4.3h4.34v1.64H1.74v4.76h7.02V14z"/></defs><g fill="none" fill-rule="evenodd"><path fill="#FFF" d="m31.214 4.2 6.499 17.853L25.5 36.608 6.788 33.31.29 15.455 12.503.9z"/><path d="M13.628 3.99 29.1 6.72l5.374 14.763-10.1 12.036L8.903 30.79 3.53 16.026 13.628 3.99Z" stroke-opacity=".5" stroke="#FFF" stroke-width=".5" fill="#01B700"/><path d="M13.628 3.99 29.1 6.72l5.374 14.763L24.558 33.3l-5.454-14.667-15.392-2.825L13.628 3.99Z" stroke-opacity=".5" stroke="#FFF" stroke-width=".5" fill-opacity=".248" fill="#FFF"/><path stroke-opacity=".601" stroke="#FFF" stroke-width=".5" stroke-linecap="round" stroke-linejoin="round" d="m29.034 6.822-9.988 11.726"/><g transform="translate(14.832 11.751)" fill-rule="nonzero"><use fill="#000" filter="url(#a)" xlink:href="#b"/><use fill="#FFF" xlink:href="#b"/></g></g></svg>