<svg width="38" height="38" xmlns="http://www.w3.org/2000/svg" xmlns:xlink="http://www.w3.org/1999/xlink"><defs><filter x="-22.9%" y="-17.3%" width="164.2%" height="148.3%" filterUnits="objectBoundingBox" id="a"><feOffset dx="1" dy="1" in="SourceAlpha" result="shadowOffsetOuter1"/><feGaussianBlur stdDeviation="1" in="shadowOffsetOuter1" result="shadowBlurOuter1"/><feColorMatrix values="0 0 0 0 0 0 0 0 0 0 0 0 0 0 0 0 0 0 0.5 0" in="shadowBlurOuter1"/></filter><path d="M5.94 14.48c-1.027 0-1.93-.203-2.71-.61a4.907 4.907 0 0 1-1.86-1.65 7.807 7.807 0 0 1-1.03-2.3C.113 9.08 0 8.187 0 7.24c0-.933.12-1.823.36-2.67a7.885 7.885 0 0 1 1.06-2.3A5.105 5.105 0 0 1 3.29.62C4.07.207 4.953 0 5.94 0c1.187 0 2.123.22 2.81.66.687.44 1.263 1.04 1.73 1.8l-1.56.9c-.373-.547-.787-.97-1.24-1.27-.453-.3-1.033-.45-1.74-.45-.6 0-1.14.113-1.62.34-.48.227-.873.523-1.18.89a5.014 5.014 0 0 0-.77 1.29 6.848 6.848 0 0 0-.44 1.51 9.415 9.415 0 0 0-.13 1.57c0 1.573.347 2.897 1.04 3.97.693 1.073 1.727 1.61 3.1 1.61.947 0 1.707-.297 2.28-.89.573-.593.86-1.37.86-2.33v-.56H6.54v-1.6h4.36v1.68c0 1.693-.463 3.01-1.39 3.95-.927.94-2.117 1.41-3.57 1.41Z" id="b"/></defs><g fill="none" fill-rule="evenodd"><path fill="#FFF" d="m31.213 4.313 6.498 17.854-12.213 14.555-18.711-3.3L.289 15.569 12.502 1.014z"/><path d="M13.626 4.104 29.1 6.832l5.374 14.764-10.1 12.036-15.472-2.729L3.527 16.14l10.1-12.036Z" stroke-opacity=".5" stroke="#FFF" stroke-width=".5" fill="#161B22"/><path d="M13.626 4.104 29.1 6.832l5.374 14.764-9.916 11.817-5.454-14.668L3.71 15.921l9.915-11.817Z" stroke-opacity=".5" stroke="#FFF" stroke-width=".5" fill-opacity=".248" fill="#FFF"/><path stroke-opacity=".601" stroke="#FFF" stroke-width=".5" stroke-linecap="round" stroke-linejoin="round" d="m29.033 6.936-9.988 11.726"/><g transform="translate(13.34 11.625)" fill-rule="nonzero"><use fill="#000" filter="url(#a)" xlink:href="#b"/><use fill="#FFF" xlink:href="#b"/></g></g></svg>