<svg width="38" height="37" xmlns="http://www.w3.org/2000/svg" xmlns:xlink="http://www.w3.org/1999/xlink"><defs><filter x="-26.2%" y="-17.9%" width="173.4%" height="150%" filterUnits="objectBoundingBox" id="a"><feOffset dx="1" dy="1" in="SourceAlpha" result="shadowOffsetOuter1"/><feGaussianBlur stdDeviation="1" in="shadowOffsetOuter1" result="shadowBlurOuter1"/><feColorMatrix values="0 0 0 0 0 0 0 0 0 0 0 0 0 0 0 0 0 0 0.5 0" in="shadowBlurOuter1"/></filter><path id="b" d="M5.64 1.66V14H3.9V1.66H0V0h9.54v1.66z"/></defs><g fill="none" fill-rule="evenodd"><path fill="#FFF" d="m31.213 4.2 6.498 17.853-12.213 14.555L6.787 33.31.289 15.455 12.502.9z"/><path d="M13.626 3.99 29.1 6.72l5.374 14.763-10.1 12.036L8.902 30.79 3.527 16.026l10.1-12.036Z" stroke-opacity=".5" stroke="#FFF" stroke-width=".5" fill="#29A9EA"/><path d="M13.626 3.99 29.1 6.72l5.374 14.763L24.557 33.3l-5.454-14.667L3.71 15.807 13.626 3.99Z" stroke-opacity=".5" stroke="#FFF" stroke-width=".5" fill-opacity=".248" fill="#FFF"/><path stroke-opacity=".601" stroke="#FFF" stroke-width=".5" stroke-linecap="round" stroke-linejoin="round" d="m29.033 6.822-9.988 11.726"/><g transform="translate(13.187 11.751)" fill-rule="nonzero"><use fill="#000" filter="url(#a)" xlink:href="#b"/><use fill="#FFF" xlink:href="#b"/></g></g></svg>