<svg width="38" height="36" xmlns="http://www.w3.org/2000/svg" xmlns:xlink="http://www.w3.org/1999/xlink"><defs><filter x="-26.2%" y="-17.9%" width="173.4%" height="150%" filterUnits="objectBoundingBox" id="a"><feOffset dx="1" dy="1" in="SourceAlpha" result="shadowOffsetOuter1"/><feGaussianBlur stdDeviation="1" in="shadowOffsetOuter1" result="shadowBlurOuter1"/><feColorMatrix values="0 0 0 0 0 0 0 0 0 0 0 0 0 0 0 0 0 0 0.5 0" in="shadowBlurOuter1"/></filter><path id="b" d="M5.64 1.66V14H3.9V1.66H0V0h9.54v1.66z"/></defs><g fill="none" fill-rule="evenodd"><path fill="#FFF" d="m31.213 3.313 6.498 17.854-12.213 14.555-18.711-3.3L.289 14.569 12.502.014z"/><path d="M13.626 3.104 29.1 5.832l5.374 14.764-10.1 12.036-15.472-2.729L3.527 15.14l10.1-12.036Z" stroke-opacity=".5" stroke="#FFF" stroke-width=".5" fill="#1D9BF0"/><path d="M13.626 3.104 29.1 5.832l5.374 14.764-9.916 11.817-5.454-14.668L3.71 14.921l9.915-11.817Z" stroke-opacity=".5" stroke="#FFF" stroke-width=".5" fill-opacity=".248" fill="#FFF"/><path stroke-opacity=".601" stroke="#FFF" stroke-width=".5" stroke-linecap="round" stroke-linejoin="round" d="m29.033 5.936-9.988 11.726"/><g transform="translate(13.187 10.865)" fill-rule="nonzero"><use fill="#000" filter="url(#a)" xlink:href="#b"/><use fill="#FFF" xlink:href="#b"/></g></g></svg>