<svg width="38" height="38" xmlns="http://www.w3.org/2000/svg"><defs><filter x="-57.9%" y="-46.4%" width="215.9%" height="192.9%" filterUnits="objectBoundingBox" id="a"><feOffset dx="1" dy="1" in="SourceAlpha" result="shadowOffsetOuter1"/><feGaussianBlur stdDeviation="1" in="shadowOffsetOuter1" result="shadowBlurOuter1"/><feColorMatrix values="0 0 0 0 0 0 0 0 0 0 0 0 0 0 0 0 0 0 0.5 0" in="shadowBlurOuter1" result="shadowMatrixOuter1"/><feMerge><feMergeNode in="shadowMatrixOuter1"/><feMergeNode in="SourceGraphic"/></feMerge></filter></defs><g fill="none" fill-rule="evenodd"><path fill="#FFF" d="m31.213 4.313 6.498 17.854-12.213 14.555-18.711-3.3L.289 15.569 12.502 1.014z"/><path d="M13.626 4.104 29.1 6.832l5.374 14.764-10.1 12.036-15.472-2.729L3.527 16.14l10.1-12.036Z" stroke-opacity=".5" stroke="#FFF" stroke-width=".5" fill="red"/><path d="M13.626 4.104 29.1 6.832l5.374 14.764-9.916 11.817-5.454-14.668L3.71 15.921l9.915-11.817Z" stroke-opacity=".5" stroke="#FFF" stroke-width=".5" fill-opacity=".248" fill="#FFF"/><path stroke-opacity=".601" stroke="#FFF" stroke-width=".5" stroke-linecap="round" stroke-linejoin="round" d="m29.033 6.936-9.988 11.726"/><g filter="url(#a)" transform="translate(13 12)" fill="#FFF" fill-rule="nonzero"><path d="M4.76 14V8.5L0 0h1.96l3.66 6.8L9.32 0h1.9L6.5 8.46V14z"/></g></g></svg>