<svg width="35" height="14" xmlns="http://www.w3.org/2000/svg" xmlns:xlink="http://www.w3.org/1999/xlink"><defs><path id="a" d="M0 0h7.204v12.997H0z"/><path d="M.32 0C.143 0 0 .115 0 .257v1.611L1.661 3 4 1.407 1.935 0H.32Z" id="c"/><path d="M0 1.7 1.943 3h1.71a.403.403 0 0 0 .145-.026.326.326 0 0 0 .099-.054A.248.248 0 0 0 4 2.724V.973L2.544 0 0 1.7Z" id="f"/><path d="M0 1.583 2.275 3l.829-.516c.959-.64.895-1.577.895-1.577L2.542 0 0 1.583Z" id="i"/><path d="M.737.77c-.37.28-.636.676-.737 1.133L1.637 3 4 1.417 1.885 0 .737.77Z" id="l"/><linearGradient x1="0%" y1="50%" x2="100%" y2="50%" id="d"><stop stop-color="#FFF" offset="0%"/><stop stop-color="#FFF" offset="100%"/></linearGradient><linearGradient x1="34.185%" y1="39.016%" x2="95.136%" y2="69.577%" id="g"><stop stop-color="#FFF" offset="0%"/><stop stop-color="#FFF" offset="100%"/></linearGradient><linearGradient x1="0%" y1="50%" x2="99.999%" y2="50%" id="j"><stop stop-color="#FFF" offset="0%"/><stop stop-color="#FFF" offset="100%"/></linearGradient><linearGradient x1="0%" y1="50%" x2="100%" y2="50%" id="m"><stop stop-color="#FFF" offset="0%"/><stop stop-color="#FFF" offset="100%"/></linearGradient></defs><g fill="none" fill-rule="evenodd"><path d="M10.606.27v12.457a.272.272 0 0 1-.074.19h-.001a.234.234 0 0 1-.073.053.235.235 0 0 1-.106.025H8.724a.262.262 0 0 1-.255-.268V.27c0-.148.114-.268.255-.268h1.628c.14 0 .254.12.254.268M17.846 11.13h-3.14a.257.257 0 0 1-.223-.211L14.481.263A.259.259 0 0 0 14.226 0h-1.628a.26.26 0 0 0-.255.263v12.47a.26.26 0 0 0 .255.264l5.248.003a.26.26 0 0 0 .255-.263v-1.343a.259.259 0 0 0-.255-.263" fill="#FFF"/><g><mask id="b" fill="#fff"><use xlink:href="#a"/></mask><path d="m7.172 12.608-3.299-6.21a.269.269 0 0 1 0-.252L6.934.386a.267.267 0 0 0-.103-.355.246.246 0 0 0-.12-.03H4.864a.254.254 0 0 0-.223.134L2.138 4.847V.263A.26.26 0 0 0 1.883 0H.255A.26.26 0 0 0 0 .263v12.47a.26.26 0 0 0 .255.264h1.628a.26.26 0 0 0 .255-.263V9.859L1.38 6.272l3.5 6.59c.044.084.13.135.222.135H6.95c.14 0 .254-.116.255-.261a.269.269 0 0 0-.032-.128" fill="#FFF" mask="url(#b)"/></g><path d="M24 .263V1.61a.259.259 0 0 1-.255.264l-3.154-.002 1.002.73a.132.132 0 0 1 .054.107v10.025a.26.26 0 0 1-.255.263h-1.6a.26.26 0 0 1-.255-.263V2.136a.26.26 0 0 0-.228-.261l-.015-.001h-1.855a.26.26 0 0 1-.255-.264V.263A.26.26 0 0 1 17.439 0h6.306A.26.26 0 0 1 24 .263" fill="#FFF"/><g transform="translate(27)"><mask id="e" fill="#fff"><use xlink:href="#c"/></mask><path d="M.32 0C.143 0 0 .115 0 .257v1.611L1.661 3 4 1.407 1.935 0H.32Z" fill="url(#d)" mask="url(#e)"/></g><g transform="translate(31 10)"><mask id="h" fill="#fff"><use xlink:href="#f"/></mask><path d="M0 1.7 1.943 3h1.71a.403.403 0 0 0 .145-.026.326.326 0 0 0 .099-.054A.248.248 0 0 0 4 2.724V.973L2.544 0 0 1.7Z" fill="url(#g)" mask="url(#h)"/></g><path d="M35 .199v1.595l-7.228 4.723C27.302 6.864 27 7.399 27 8V3.966L33.07 0h1.627c.151.004.275.088.303.199" fill="#FFF"/><g transform="translate(31 3)"><mask id="k" fill="#fff"><use xlink:href="#i"/></mask><path d="M0 1.583 2.275 3l.829-.516c.959-.64.895-1.577.895-1.577L2.542 0 0 1.583Z" fill="url(#j)" mask="url(#k)"/></g><g transform="translate(27 7)"><mask id="n" fill="#fff"><use xlink:href="#l"/></mask><path d="M.737.77c-.37.28-.636.676-.737 1.133L1.637 3 4 1.417 1.885 0 .737.77Z" fill="url(#m)" mask="url(#n)"/></g><path d="m34.18 5.638-.004.004L27 10.702V14l7.997-5.605L35 4c0 .67-.322 1.266-.82 1.638" fill="#FFF"/></g></svg>
