<svg width="210" height="64" xmlns="http://www.w3.org/2000/svg" xmlns:xlink="http://www.w3.org/1999/xlink"><defs><path id="a" d="M0 0h46.253v44.134H0z"/><path id="c" d="M0 0h31.158v26.145H0z"/><path id="e" d="M0 63.7h210V0H0z"/></defs><g fill="none" fill-rule="evenodd"><path d="M6.297 26.293c.938 0 1.879.098 2.822.292.524.108 1.027.24 1.51.393a1.071 1.071 0 0 1 .626 1.494c-.034.072-.07.143-.105.214-.241.475-.796.696-1.302.527l-.111-.037a10.22 10.22 0 0 0-1.098-.292c-.384-.08-.778-.146-1.184-.197a9.507 9.507 0 0 0-1.193-.077c-.423 0-.832.042-1.226.128a3.165 3.165 0 0 0-1.047.42 2.223 2.223 0 0 0-.73.764c-.182.315-.274.707-.274 1.175 0 .481.103.884.31 1.21.205.326.486.598.84.815.354.218.77.4 1.244.549.474.149.98.286 1.518.412.835.206 1.613.437 2.334.695.72.257 1.344.592 1.87 1.004.526.411.938.92 1.235 1.527.298.606.447 1.355.447 2.247 0 .938-.187 1.745-.558 2.42a4.863 4.863 0 0 1-1.51 1.672c-.635.44-1.376.767-2.222.978-.847.212-1.75.318-2.711.318-.503 0-1.021-.032-1.553-.095a14.63 14.63 0 0 1-1.578-.274 15.712 15.712 0 0 1-1.868-.555 1.076 1.076 0 0 1-.602-1.49l.016-.032.098-.19a1.07 1.07 0 0 1 1.315-.513 13.696 13.696 0 0 0 1.65.49c.446.102.886.185 1.32.248.436.063.853.094 1.253.094.504 0 .993-.057 1.468-.171a3.947 3.947 0 0 0 1.269-.54 2.79 2.79 0 0 0 .892-.953c.223-.389.335-.858.335-1.407 0-.515-.106-.937-.318-1.27a2.686 2.686 0 0 0-.849-.832 5.086 5.086 0 0 0-1.244-.549 26.959 26.959 0 0 0-1.5-.403c-.802-.194-1.56-.417-2.274-.669a6.74 6.74 0 0 1-1.87-.986 4.503 4.503 0 0 1-1.27-1.51C.157 32.736 0 31.99 0 31.096c0-.834.172-1.555.515-2.161a4.373 4.373 0 0 1 1.381-1.493 6.263 6.263 0 0 1 2.007-.866 9.893 9.893 0 0 1 2.394-.284M22.5 28.783c-.651 0-.835.072-1.412.278-.578.205-1.085.566-1.519 1.08-.446.527-.8 1.23-1.064 2.11-.263.882-.394 2.014-.394 3.398 0 1.372.131 2.502.394 3.388.263.887.618 1.588 1.064 2.102.434.526.94.89 1.519 1.09.577.2.76.26 1.413.26.663 0 .915-.072 1.504-.272.59-.2 1.107-.563 1.553-1.09.446-.515.798-1.215 1.055-2.102.257-.886.386-2.016.386-3.388 0-1.384-.129-2.516-.386-3.398-.257-.88-.61-1.583-1.055-2.11-.446-.515-.964-.875-1.553-1.08-.589-.206-.84-.266-1.504-.266m0-2.423c.56 0 .77.003 1.375.09a7.39 7.39 0 0 1 1.785.488 6.886 6.886 0 0 1 1.656 1.02c.52.43.98.987 1.38 1.674.4.697.715 1.536.945 2.513.228.978.343 2.142.343 3.492s-.115 2.513-.343 3.491c-.23.979-.544 1.81-.944 2.497-.4.698-.861 1.264-1.381 1.698a6.334 6.334 0 0 1-1.656 1.012 6.956 6.956 0 0 1-1.785.507c-.606.086-.804.104-1.364.104-.55 0-.704-.006-1.305-.092a6.957 6.957 0 0 1-1.775-.506 6.201 6.201 0 0 1-1.648-1.013c-.514-.434-.972-1-1.372-1.698-.4-.686-.715-1.519-.944-2.496-.228-.979-.343-2.142-.343-3.492s.115-2.514.343-3.492c.23-.978.544-1.815.944-2.513.4-.687.858-1.244 1.372-1.673a6.732 6.732 0 0 1 1.648-1.02 7.402 7.402 0 0 1 1.767-.49c.595-.086.741-.101 1.302-.101M45.34 42.74c.2.648-.17 1.342-.825 1.523-.54.148-1.098.278-1.676.389-1.013.194-1.534.27-2.438.27-1.373 0-2.174-.178-3.181-.579-1.007-.4-1.839-.983-2.496-1.75-.658-.766-1.147-1.707-1.467-2.822-.32-1.115-.48-2.388-.48-3.818 0-1.555.197-2.934.591-4.135.395-1.2.967-2.21 1.716-3.028a7.248 7.248 0 0 1 2.745-1.862c1.081-.423 1.916-.607 3.289-.607.698 0 .974.044 1.695.187.317.063.636.133.957.21.677.163 1.073.87.869 1.535l-.015.05a1.22 1.22 0 0 1-1.485.812 15.13 15.13 0 0 0-.523-.128c-.51-.114-.609-.134-1.17-.134-1.944 0-3.053.526-4.106 1.653-1.052 1.126-1.578 2.828-1.578 5.104 0 1.064.077 2.016.231 2.857.155.84.43 1.555.824 2.144.395.59.932 1.038 1.613 1.347.68.31 1.172.434 2.225.434.686 0 .977-.059 1.772-.236.454-.102.924-.217 1.41-.346a1.212 1.212 0 0 1 1.467.814l.036.115ZM78.066 17.34H75.37c-.815 0-1.476.601-1.476 1.416 0 .794.63 1.297 1.416 1.33l.005.001c.705 0 1.279.577 1.272 1.282l.002 21.846c0 .815.661 1.476 1.476 1.476s1.336-.522 1.336-1.336v-24.46c0-.814-.521-1.555-1.336-1.555M67.005 42.074c-1.018.248-2.602.348-3.631.348-1.99 0-2.985-.915-2.985-2.746 0-1.018.346-1.798 1.038-2.342.692-.543 1.667-.94 2.925-1.192a14.031 14.031 0 0 1 2.78-.257h.091c.698 0 1.264.567 1.264 1.265v.535h.004v3.257c-.112.946-.781.96-1.486 1.132m4.348-6.8V30.84c0-1.704-.555-2.91-1.665-3.62-.972-.618-2.38-.926-4.22-.926-1.673 0-3.287.241-4.844.725a1.272 1.272 0 0 0 .751 2.431c1.429-.423 2.759-.634 3.99-.634 1.074 0 1.864.182 2.367.549.503.366.755.96.755 1.784v1.302c0 .706-.577 1.279-1.282 1.272h-.193c-2.757 0-4.902.418-6.434 1.252-.973.526-1.725 1.173-2.257 1.94-.532.765-.798 1.75-.798 2.95 0 1.613.487 2.863 1.459 3.749.972.886 2.259 1.33 3.86 1.33 1.539 0 3.87-.216 5.6-.962.127-.054.202-.033.272.017.254.414.7.692 1.212.692.792 0 1.435-.66 1.435-1.476v-7.852c0-.03-.007-.059-.008-.09M52.519 26.532h-2.695c-.815 0-1.476.43-1.476 1.244 0 .794.632 1.322 1.418 1.355h.003c.706 0 1.279.577 1.272 1.283l.002 12.801c0 .815.661 1.476 1.476 1.476s1.311-.66 1.311-1.476V27.776c0-.814-.496-1.244-1.311-1.244M52.406 22.816c.468 0 .876-.173 1.223-.52.336-.336.504-.749.504-1.238 0-.48-.168-.897-.504-1.254a1.726 1.726 0 0 0-1.223-.489c-.49 0-.908.163-1.254.489a1.71 1.71 0 0 0-.52 1.254c0 .5.173.912.52 1.238.346.347.764.52 1.254.52M86.697 30.754l.001-12.056c0-.279-.007-.56.022-.835.053-.524.297-.806.815-.813 1.757-.023 3.515-.024 5.272 0 .522.007.772.315.788.883.023.786.013 1.574.014 2.361.003 1.608-.007 3.216.016 4.822.004.272.15.54.23.811.22-.177.495-.315.651-.537 1.683-2.387 3.37-4.772 5.002-7.194.56-.83 1.2-1.238 2.234-1.19 1.557.071 3.12.018 4.68.018.198 0 .395-.002.591.006.811.037 1.023.443.557 1.123-.501.731-1.032 1.44-1.556 2.156-1.715 2.343-3.421 4.694-5.158 7.022-.453.606-.497 1.122-.102 1.79 2.73 4.618 5.428 9.256 8.138 13.886.689 1.176.522 1.52-.825 1.541-1.773.027-3.548-.015-5.322.014-.879.015-1.416-.357-1.835-1.121-1.482-2.704-3.014-5.383-4.526-8.07-.032-.058-.063-.116-.097-.172-.398-.655-.655-.673-1.13-.078a3.13 3.13 0 0 0-.09.119c-1.692 2.323-1.436 1.61-1.456 4.394-.01 1.263.004 2.526-.007 3.789-.006.817-.228 1.08-1.047 1.098-1.543.035-3.087.045-4.63.015-1.034-.02-1.226-.252-1.227-1.284-.004-4.166-.002-8.332-.002-12.498h-.001ZM135.331 30.763c.036-1.997-.01-3.998.423-5.972 1.084-4.941 4.623-7.923 9.702-8.138 2.08-.088 4.107.137 5.982 1.117 2.808 1.47 4.233 3.924 4.841 6.926.147.722-.152 1.06-.898 1.069-1.494.02-2.988.002-4.483.009-.678.003-1.02-.374-1.26-.968-.81-2-2.724-2.849-4.745-2.13-1.136.403-1.782 1.275-2.113 2.369-.226.747-.43 1.535-.44 2.308-.035 2.473-.034 4.95.07 7.42.055 1.287.457 2.519 1.442 3.465 1.736 1.67 4.88.98 5.73-1.259.418-1.097.5-1.156 1.69-1.157 1.346 0 2.693-.006 4.04.006.835.007 1.127.322.962 1.136-.958 4.722-3.613 7.445-8.437 7.9-2.094.199-4.172.065-6.154-.736-3.122-1.26-4.927-3.643-5.794-6.818-.533-1.954-.538-3.956-.557-5.956-.003-.197 0-.394 0-.59M125.763 38.887c0 1.492.005 2.984-.002 4.477-.004.886-.21 1.141-1.086 1.16-1.576.032-3.153.033-4.728 0-.845-.017-1.068-.294-1.07-1.184-.009-2.607-.053-5.216.015-7.821.035-1.343-.27-2.52-.9-3.703-2.349-4.417-4.633-8.868-6.937-13.309-.618-1.19-.442-1.48.892-1.482 1.725-.003 3.45.026 5.173-.011.813-.018 1.275.338 1.59 1.049a527.598 527.598 0 0 0 3.064 6.768c.12.26.367.461.554.69.19-.232.436-.438.558-.701 1.03-2.234 2.057-4.47 3.044-6.723.334-.762.818-1.104 1.664-1.085 1.74.04 3.481.011 5.222.014.197 0 .397 0 .589.038.515.104.67.468.399 1.023-.453.928-.932 1.844-1.409 2.761-2.087 4.018-4.188 8.028-6.25 12.058-.236.462-.345 1.03-.362 1.554-.048 1.474-.017 2.951-.017 4.427h-.003Z" fill="#FFF"/><g transform="translate(163.747)"><mask id="b" fill="#fff"><use xlink:href="#a"/></mask><path fill="#9E2544" mask="url(#b)" d="m38.22 4.078 8.033 22.067-15.095 17.989L8.03 40.056 0 17.989 15.094 0 38.22 4.077v.001z"/></g><g transform="translate(178.842)"><mask id="d" fill="#fff"><use xlink:href="#c"/></mask><path fill="#E43366" mask="url(#d)" d="m23.127 4.078 8.031 22.067-23.127-4.079L0 0l23.126 4.077v.001z"/></g><path fill="#E43366" d="m201.967 4.078-15.095 17.989-23.125-4.078L178.84 0z"/><path fill="#D3245E" d="m201.968 4.078 8.031 22.067-15.094 17.989-8.033-22.067 15.095-17.988z"/><path d="M178.401 8.973c-.14.015-.294.024-.446.047-.532.084-1.035.223-1.36.71-.076.115-.178.213-.267.32-.522.624-1.047 1.245-1.563 1.873-.214.26-.193.439.06.663.08.072.174.136.272.182.489.226 1 .284 1.524.164.976-.223 1.743-.782 2.386-1.525.34-.394.668-.8.81-1.318.105-.383-.028-.7-.378-.887-.32-.171-.677-.178-1.038-.229m.141-1.47c.364-.09.71-.193 1.066-.228.698-.07 1.385-.013 2.027.28.88.4 1.229 1.147 1.018 2.093-.164.735-.56 1.353-1.029 1.92-.57.692-1.197 1.333-1.928 1.859-1.092.784-2.29 1.317-3.643 1.43-.65.054-1.303.026-1.944-.142a1.438 1.438 0 0 1-.896-.66c-.071-.116-.136-.132-.206-.023-.178.277-.43.245-.7.193a80.95 80.95 0 0 0-1.666-.302c-.189-.033-.22-.082-.093-.244.488-.625 1.01-1.22 1.516-1.827.996-1.194 1.99-2.388 2.989-3.58.98-1.168 1.964-2.332 2.944-3.5a.585.585 0 0 1 .398-.204c.822-.111 1.643-.227 2.464-.34.077-.01.18-.047.227.027.059.095-.046.156-.1.22-.778.935-1.557 1.87-2.334 2.806-.046.054-.111.1-.11.222M188.653 10.615c-.825.041-1.522.297-2.125.792-.05.04-.121.08-.104.155.019.075.103.078.163.09.367.07.734.134 1.102.198.683.118 1.366.235 2.05.351.089.016.184.021.242-.06.29-.4.341-.992-.204-1.28-.368-.193-.774-.203-1.124-.246m.764-1.635c.675-.056 1.317.06 1.946.246.54.161 1.003.437 1.324.923.249.377.262.787.19 1.205-.107.62-.462 1.12-.836 1.602-.306.394-.64.763-.996 1.114a.383.383 0 0 1-.375.114c-1.492-.268-2.985-.537-4.481-.785-.346-.057-.684-.159-1.04-.164-.169-.003-.272.061-.349.209-.343.655-.041 1.16.606 1.37.808.265 1.612.157 2.397-.115.528-.182.523-.194.7.33.073.216.146.431.225.644.066.175.027.293-.154.368-.836.34-1.698.562-2.604.588-.75.022-1.496-.012-2.224-.223-.636-.186-1.214-.463-1.54-1.08-.337-.636-.213-1.28.073-1.884.495-1.045 1.258-1.886 2.142-2.618a8.178 8.178 0 0 1 3.459-1.71c.51-.113 1.026-.182 1.537-.134" fill="#FFE6F0"/><path d="M199.161 30.053c-.087-.771-.265-1.519-.614-2.219a1.533 1.533 0 0 0-.35-.492c-.25-.22-.457-.224-.695.012-.224.222-.334.504-.39.809-.128.694.082 1.327.362 1.945.135.296.327.547.6.732.35.238.449.223.715-.113.083-.103.163-.209.251-.308a.44.44 0 0 0 .121-.366m4.08-3.35c.072 1.603-.58 2.882-1.544 4.033-1.278 1.526-2.569 3.041-3.855 4.561l-.014.019c-.077.073-.126.213-.242.2-.128-.014-.121-.166-.157-.263-.208-.556-.406-1.117-.615-1.672-.086-.227-.108-.416.085-.618.2-.21.173-.222-.073-.362-.519-.297-.834-.77-1.053-1.308-.633-1.553-.695-3.13-.136-4.716a4.601 4.601 0 0 1 1.444-2.042c.743-.612 1.59-.464 2.249.388.578.747.87 1.616 1.056 2.53.059.291.084.587.126.88.01.066-.015.16.067.186.076.022.123-.057.167-.108.342-.39.576-.836.656-1.353.123-.797-.154-1.507-.498-2.2a3.236 3.236 0 0 0-1.186-1.329c-.154-.098-.191-.2-.114-.368.29-.624.57-1.25.854-1.878.075-.168.18-.19.333-.094.411.255.752.588 1.026.98a8.108 8.108 0 0 1 1.38 3.55c.048.344.05.686.043.984M192.783 22.385c-.017-1.121.458-2.04 1.158-2.869 1.052-1.246 2.103-2.494 3.16-3.737.158-.186.207-.36.104-.594-.113-.256-.19-.529-.288-.793-.043-.12-.04-.223.042-.329.388-.499.8-.979 1.221-1.45.117-.132.176-.042.216.063.108.276.206.557.313.833.088.224.113.223.268.04.494-.583.992-1.163 1.483-1.75.138-.163.243-.19.417-.027.408.385.838.749 1.263 1.116.155.134.163.233.019.401-.758.883-1.494 1.783-2.252 2.665-.163.19-.178.361-.098.577.181.483.346.972.535 1.452.086.219.048.385-.101.556-.366.416-.723.84-1.084 1.26-.144.168-.205.159-.283-.051-.181-.484-.354-.969-.535-1.452-.113-.3-.148-.308-.352-.07a337.312 337.312 0 0 0-2.964 3.533c-.31.378-.37.794-.176 1.25.153.356.348.683.632.948.129.12.124.204-.007.321-.406.365-.808.736-1.201 1.114-.16.153-.269.105-.387-.038-.711-.862-1.086-1.848-1.103-2.969" fill="#CC7D9D"/><path d="M4.35 58.411v-2.977a5.226 5.226 0 0 0-1.33-.192c-.347 0-.644.063-.894.189a1.43 1.43 0 0 0-.586.531c-.14.229-.243.484-.307.766a4.292 4.292 0 0 0-.096.947 8.158 8.158 0 0 0 .073 1.22c.028.211.072.391.132.54.06.15.134.29.224.417.09.128.206.225.349.291.143.066.308.1.496.1.452 0 .845-.182 1.178-.545.24-.265.493-.693.762-1.287Zm0-6.524h1.102v6.704c0 .75.01 1.244.032 1.478.021.291.07.602.147.936l-1.063.236a4.845 4.845 0 0 1-.16-.723 6.349 6.349 0 0 1-.07-.692h-.096c-.222.461-.467.8-.736 1.019-.325.277-.726.415-1.204.415-.418 0-.779-.09-1.082-.272a1.87 1.87 0 0 1-.707-.758 4.055 4.055 0 0 1-.372-1.07 6.476 6.476 0 0 1-.118-1.286c0-.53.054-1.006.163-1.428.109-.423.276-.797.503-1.124.226-.327.529-.579.909-.755.38-.177.826-.266 1.338-.266.4 0 .873.053 1.415.16v-2.574ZM11.96 57.22c-.035-.691-.2-1.196-.497-1.514-.297-.318-.72-.477-1.271-.477-.55 0-.97.16-1.258.477-.288.318-.462.823-.522 1.515h3.547Zm.748 3.515a7.576 7.576 0 0 1-1.335.404c-.416.08-.788.121-1.117.121-.503 0-.943-.08-1.32-.24A2.516 2.516 0 0 1 8 60.346a2.891 2.891 0 0 1-.563-1.04 4.463 4.463 0 0 1-.19-1.335c0-.3.022-.598.065-.897.042-.298.11-.583.204-.854.094-.272.217-.524.369-.76.151-.234.336-.437.554-.607.218-.171.47-.305.762-.404.29-.098.62-.147.992-.147.952 0 1.669.298 2.151.893.483.596.724 1.448.724 2.558v.352H8.38c0 .359.038.676.115.951.077.275.196.508.356.698.16.19.362.334.608.432.246.098.537.147.874.147.188 0 .374-.014.56-.041a5.33 5.33 0 0 0 .541-.11 6.3 6.3 0 0 0 .503-.15c.16-.055.31-.108.45-.16l.321.864ZM19.516 60.87c-.333.115-.688.21-1.066.282a5.717 5.717 0 0 1-1.072.109c-.513 0-.957-.075-1.332-.224a2.35 2.35 0 0 1-.932-.654 2.746 2.746 0 0 1-.547-1.053c-.12-.416-.18-.89-.18-1.424 0-.58.074-1.095.222-1.543.147-.448.36-.826.64-1.13a2.7 2.7 0 0 1 1.024-.695 3.747 3.747 0 0 1 1.374-.237c.26 0 .525.026.793.08.27.054.542.12.82.202l-.275.896a6.785 6.785 0 0 0-.618-.173 2.735 2.735 0 0 0-.6-.064c-.725 0-1.283.21-1.676.631-.393.42-.59 1.055-.59 1.904 0 .398.03.753.087 1.067.058.313.16.58.307.8.148.22.348.387.602.503.254.115.577.172.97.172.256 0 .532-.032.83-.099.296-.066.611-.148.944-.246l.275.896ZM25.402 57.22c-.034-.691-.2-1.196-.496-1.514-.297-.318-.72-.477-1.271-.477-.551 0-.97.16-1.259.477-.287.318-.461.823-.521 1.515h3.547Zm.749 3.515a7.576 7.576 0 0 1-1.335.404c-.416.08-.788.121-1.117.121-.504 0-.944-.08-1.32-.24a2.516 2.516 0 0 1-.937-.675 2.891 2.891 0 0 1-.564-1.04 4.463 4.463 0 0 1-.189-1.335c0-.3.022-.598.064-.897.043-.298.111-.583.205-.854.094-.272.217-.524.368-.76.152-.234.337-.437.554-.607.218-.171.472-.305.762-.404.29-.098.622-.147.993-.147.952 0 1.668.298 2.15.893.483.596.725 1.448.725 2.558v.352h-4.687c0 .359.038.676.115.951.077.275.195.508.355.698.16.19.363.334.608.432.246.098.538.147.875.147.188 0 .374-.014.56-.041a5.33 5.33 0 0 0 .54-.11 6.3 6.3 0 0 0 .503-.15c.16-.055.31-.108.452-.16l.32.864ZM28.093 54.563l1.063-.237c.08.257.138.504.173.743.016.116.038.344.063.685h.135c.235-.43.525-.774.87-1.03.381-.282.782-.423 1.205-.423.636 0 1.12.154 1.453.46.285.261.484.66.595 1.198.073.368.11.914.11 1.64v3.508h-1.102v-3.816c0-.636-.062-1.09-.186-1.364-.183-.405-.553-.608-1.107-.608-.393 0-.777.188-1.153.563-.252.252-.52.621-.806 1.108v4.117h-1.102V57.01c0-.576-.015-1.073-.045-1.492a5.59 5.59 0 0 0-.166-.954M36.316 52.924h1.101v1.524h2.24v.929h-2.24v3.822c0 .256.007.451.022.586a.62.62 0 0 0 .112.317c.111.153.335.23.673.23.187 0 .368-.019.544-.058.18-.038.343-.08.493-.127.12.26.228.546.326.858a4.729 4.729 0 0 1-1.523.255c-.372 0-.67-.041-.893-.124a1.074 1.074 0 0 1-.529-.407 1.715 1.715 0 0 1-.262-.704 7.783 7.783 0 0 1-.064-1.133v-3.515h-.96v-.929h.96v-1.524ZM42.515 55.991a5.47 5.47 0 0 1 .426-.717c.151-.213.319-.394.502-.544.167-.145.35-.253.551-.324.201-.07.43-.105.685-.105.086 0 .185.004.298.013.113.008.221.023.323.044-.017.214-.037.414-.06.602a7.86 7.86 0 0 1-.093.57 7.24 7.24 0 0 0-.586-.083 1.969 1.969 0 0 0-.503.013 1.3 1.3 0 0 0-.49.189 1.638 1.638 0 0 0-.384.365 3.66 3.66 0 0 0-.342.544c-.111.211-.233.453-.365.726v3.823h-1.101v-4.104c0-.269-.004-.506-.01-.71-.006-.206-.02-.401-.038-.587a5.311 5.311 0 0 0-.087-.55 8.592 8.592 0 0 0-.154-.605 18.16 18.16 0 0 1 1.057-.237c.06.17.108.322.144.455a4.102 4.102 0 0 1 .134.771l.036.451h.057ZM50.22 59.237v-1.344a7.172 7.172 0 0 0-.506-.013c-.376 0-.721.032-1.038.096-.47.094-.833.243-1.091.445-.258.203-.388.494-.388.874 0 .683.372 1.025 1.114 1.025.385 0 .743-.103 1.076-.308.273-.17.55-.429.832-.775m-3.098-3.61-.282-.897a6.037 6.037 0 0 1 2.253-.429c.688 0 1.213.115 1.575.346.414.264.622.715.622 1.35v2.62c0 .35.004.708.013 1.075.003.218.025.444.064.678.034.223.078.433.134.635l-1.05.23a3.788 3.788 0 0 1-.186-.96l-.128-.013c-.529.666-1.204.998-2.023.998-.598 0-1.078-.165-1.44-.496-.363-.33-.545-.797-.545-1.399 0-.448.1-.815.298-1.1.198-.287.48-.528.842-.724.572-.312 1.372-.468 2.4-.468.137 0 .32.004.551.013v-.973c0-.308-.093-.53-.281-.666-.188-.137-.483-.205-.884-.205-.585 0-1.23.128-1.933.384M54.396 58.52a19.332 19.332 0 0 0 .045 1.505c.012.179.033.341.06.487.028.145.064.305.106.48-.18.047-.359.09-.538.13-.18.041-.358.077-.538.107a5.503 5.503 0 0 1-.182-.762 4.348 4.348 0 0 1-.055-.679V51.9h1.102v6.62Z" fill="#FFF"/><mask id="f" fill="#fff"><use xlink:href="#e"/></mask><path d="M56.677 61.107h1.101v-6.659h-1.1v6.66Zm.563-9.239c.196 0 .368.068.512.205a.74.74 0 0 1 .212.525c0 .205-.07.378-.212.518a.7.7 0 0 1-.512.218.715.715 0 0 1-.525-.218.682.682 0 0 1-.218-.518c0-.205.073-.38.218-.525a.738.738 0 0 1 .525-.205ZM61.634 55.377c-.175 0-.335-.003-.48-.007a5.155 5.155 0 0 1-.42-.028 3.28 3.28 0 0 1-.41-.074 4.386 4.386 0 0 1-.45-.141l.163-.448c.054-.145.108-.299.163-.461.17.055.323.098.455.128s.262.052.39.067c.128.015.26.025.397.029s.299.006.487.006h2.689v.769l-3.342 4.962h3.4v.928h-4.777v-.775l3.336-4.955h-1.6ZM70.805 57.22c-.035-.691-.2-1.196-.496-1.514-.297-.318-.72-.477-1.272-.477-.55 0-.97.16-1.258.477-.288.318-.461.823-.521 1.515h3.547Zm.749 3.515a7.576 7.576 0 0 1-1.335.404c-.416.08-.789.121-1.118.121-.503 0-.943-.08-1.318-.24a2.516 2.516 0 0 1-.938-.675 2.891 2.891 0 0 1-.564-1.04 4.463 4.463 0 0 1-.189-1.335c0-.3.022-.598.064-.897.043-.298.111-.583.205-.854.094-.272.217-.524.368-.76.152-.234.337-.437.554-.607.218-.171.472-.305.762-.404.29-.098.621-.147.992-.147.953 0 1.67.298 2.152.893.482.596.724 1.448.724 2.558v.352h-4.687c0 .359.038.676.115.951.077.275.195.508.355.698.16.19.363.334.608.432.246.098.537.147.874.147.189 0 .375-.014.56-.041a5.33 5.33 0 0 0 .542-.11 6.3 6.3 0 0 0 .502-.15c.16-.055.31-.108.452-.16l.32.864ZM77.6 58.411v-2.977a5.226 5.226 0 0 0-1.332-.192c-.346 0-.644.063-.893.189a1.43 1.43 0 0 0-.586.531c-.14.229-.243.484-.307.766a4.292 4.292 0 0 0-.096.947 8.158 8.158 0 0 0 .073 1.22c.028.211.072.391.132.54.06.15.134.29.224.417.09.128.206.225.349.291.143.066.308.1.496.1.452 0 .845-.182 1.178-.545.24-.265.493-.693.762-1.287Zm0-6.524H78.7v6.704c0 .75.01 1.244.032 1.478.021.291.07.602.147.936l-1.063.236a4.845 4.845 0 0 1-.16-.723 6.349 6.349 0 0 1-.07-.692h-.096c-.222.461-.468.8-.736 1.019-.325.277-.726.415-1.204.415-.418 0-.779-.09-1.082-.272a1.87 1.87 0 0 1-.708-.758 4.055 4.055 0 0 1-.371-1.07 6.476 6.476 0 0 1-.119-1.286c0-.53.055-1.006.164-1.428.109-.423.276-.797.502-1.124.227-.327.53-.579.91-.755.38-.177.825-.266 1.338-.266.4 0 .873.053 1.415.16v-2.574ZM88.643 61.107h1.102v-6.659h-1.102v6.66Zm.564-9.239c.196 0 .367.068.512.205a.74.74 0 0 1 .211.525c0 .205-.07.378-.211.518a.7.7 0 0 1-.512.218.715.715 0 0 1-.525-.218.682.682 0 0 1-.218-.518c0-.205.073-.38.218-.525a.737.737 0 0 1 .525-.205ZM96.009 58.411v-2.977a5.226 5.226 0 0 0-1.332-.192c-.346 0-.644.063-.893.189a1.43 1.43 0 0 0-.586.531c-.14.229-.243.484-.308.766a4.292 4.292 0 0 0-.095.947 8.158 8.158 0 0 0 .073 1.22c.028.211.071.391.132.54.06.15.134.29.224.417.09.128.205.225.349.291.143.066.308.1.496.1.452 0 .845-.182 1.178-.545.24-.265.493-.693.762-1.287Zm0-6.524h1.101v6.704c0 .75.01 1.244.032 1.478.021.291.07.602.147.936l-1.063.236a4.845 4.845 0 0 1-.16-.723 6.349 6.349 0 0 1-.07-.692H95.9c-.222.461-.468.8-.736 1.019-.325.277-.726.415-1.204.415-.419 0-.779-.09-1.082-.272a1.87 1.87 0 0 1-.708-.758 4.055 4.055 0 0 1-.371-1.07 6.476 6.476 0 0 1-.119-1.286c0-.53.055-1.006.164-1.428.108-.423.276-.797.502-1.124.227-.327.53-.579.91-.755.38-.177.825-.266 1.338-.266.4 0 .873.053 1.415.16v-2.574ZM103.617 57.22c-.035-.691-.2-1.196-.496-1.514-.297-.318-.72-.477-1.271-.477-.551 0-.97.16-1.259.477-.287.318-.461.823-.521 1.515h3.547Zm.749 3.515a7.576 7.576 0 0 1-1.335.404c-.416.08-.788.121-1.117.121-.504 0-.944-.08-1.32-.24a2.516 2.516 0 0 1-.937-.675 2.891 2.891 0 0 1-.564-1.04 4.463 4.463 0 0 1-.189-1.335c0-.3.022-.598.064-.897.043-.298.111-.583.205-.854.094-.272.217-.524.368-.76.152-.234.337-.437.554-.607.218-.171.472-.305.762-.404.29-.098.622-.147.993-.147.952 0 1.668.298 2.151.893.482.596.724 1.448.724 2.558v.352h-4.687c0 .359.038.676.115.951.077.275.195.508.355.698.16.19.363.334.608.432.246.098.538.147.875.147.188 0 .374-.014.56-.041a5.33 5.33 0 0 0 .54-.11 6.3 6.3 0 0 0 .503-.15c.16-.055.31-.108.452-.16l.32.864ZM106.308 54.563l1.062-.237c.082.257.139.504.174.743.016.116.038.344.064.685h.134c.235-.43.525-.774.87-1.03.381-.282.782-.423 1.205-.423.636 0 1.12.154 1.453.46.285.261.484.66.595 1.198.073.368.11.914.11 1.64v3.508h-1.102v-3.816c0-.636-.062-1.09-.186-1.364-.183-.405-.552-.608-1.107-.608-.393 0-.777.188-1.153.563-.252.252-.52.621-.806 1.108v4.117h-1.102V57.01c0-.576-.015-1.073-.045-1.492a5.59 5.59 0 0 0-.166-.954M114.53 52.924h1.102v1.524h2.24v.929h-2.24v3.822c0 .256.007.451.022.586a.62.62 0 0 0 .112.317c.111.153.335.23.673.23.187 0 .369-.019.544-.058.18-.038.343-.08.493-.127.12.26.228.546.326.858a4.729 4.729 0 0 1-1.523.255c-.372 0-.67-.041-.893-.124a1.074 1.074 0 0 1-.529-.407 1.721 1.721 0 0 1-.262-.704 7.783 7.783 0 0 1-.064-1.133v-3.515h-.96v-.929h.96v-1.524ZM119.616 61.107h1.101v-6.659h-1.101v6.66Zm.564-9.239c.196 0 .367.068.512.205a.74.74 0 0 1 .211.525c0 .205-.07.378-.211.518a.7.7 0 0 1-.512.218.715.715 0 0 1-.525-.218.682.682 0 0 1-.218-.518c0-.205.073-.38.218-.525a.737.737 0 0 1 .525-.205ZM123.677 52.924h1.102v1.524h2.24v.929h-2.24v3.822c0 .256.007.451.022.586a.62.62 0 0 0 .112.317c.111.153.335.23.672.23.188 0 .37-.019.545-.058.179-.038.343-.08.492-.127.12.26.229.546.327.858a4.729 4.729 0 0 1-1.524.255c-.371 0-.669-.041-.893-.124a1.074 1.074 0 0 1-.528-.407 1.721 1.721 0 0 1-.263-.704 7.783 7.783 0 0 1-.064-1.133v-3.515h-.96v-.929h.96v-1.524ZM134.07 54.448v6.806c0 .423-.069.788-.208 1.095-.138.307-.33.561-.576.762-.245.2-.537.349-.873.445a4.026 4.026 0 0 1-1.102.144 6.798 6.798 0 0 1-2.12-.352c.056-.15.114-.294.174-.435l.179-.423a7.133 7.133 0 0 0 .823.215c.16.031.324.057.492.076.17.02.333.029.49.029.248 0 .472-.033.673-.099.2-.067.37-.166.512-.298a1.3 1.3 0 0 0 .323-.49c.075-.194.112-.417.112-.669v-1.447h-.121c-.112.201-.24.39-.385.567a2.78 2.78 0 0 1-.48.464 2.188 2.188 0 0 1-.566.31 1.846 1.846 0 0 1-.644.113c-.311 0-.582-.035-.813-.106a1.657 1.657 0 0 1-.592-.314 1.635 1.635 0 0 1-.404-.518 2.842 2.842 0 0 1-.24-.72 5.4 5.4 0 0 1-.09-.782c-.012-.277-.018-.563-.018-.858v-3.515h1.1v3.823c0 .277.014.536.04.778.025.24.081.45.169.627a.973.973 0 0 0 .387.416c.17.1.404.15.698.15.218 0 .423-.051.615-.156a2.31 2.31 0 0 0 .531-.4 3.76 3.76 0 0 0 .445-.538c.134-.196.257-.389.368-.576v-4.124h1.102ZM147.426 59.237v-1.344a7.172 7.172 0 0 0-.506-.013c-.376 0-.721.032-1.038.096-.47.094-.833.243-1.091.445-.258.203-.388.494-.388.874 0 .683.372 1.025 1.114 1.025.385 0 .743-.103 1.076-.308.273-.17.55-.429.833-.775m-3.1-3.61-.281-.897a6.037 6.037 0 0 1 2.254-.429c.687 0 1.212.115 1.575.346.413.264.62.715.62 1.35v2.62c0 .35.005.708.014 1.075.003.218.025.444.064.678.034.223.079.433.134.635l-1.05.23a3.788 3.788 0 0 1-.186-.96l-.128-.013c-.529.666-1.204.998-2.023.998-.598 0-1.078-.165-1.44-.496-.363-.33-.545-.797-.545-1.399 0-.448.1-.815.298-1.1.198-.287.48-.528.842-.724.572-.312 1.372-.468 2.4-.468.138 0 .321.004.552.013v-.973c0-.308-.094-.53-.282-.666-.188-.137-.483-.205-.884-.205-.584 0-1.229.128-1.933.384M151.269 52.924h1.101v1.524h2.241v.929h-2.24v3.822c0 .256.007.451.022.586a.62.62 0 0 0 .112.317c.11.153.335.23.672.23.188 0 .369-.019.544-.058.18-.038.344-.08.493-.127.12.26.228.546.327.858a4.729 4.729 0 0 1-1.524.255c-.371 0-.67-.041-.893-.124a1.074 1.074 0 0 1-.528-.407 1.721 1.721 0 0 1-.263-.704 7.783 7.783 0 0 1-.064-1.133v-3.515h-.96v-.929h.96v-1.524ZM156.86 52.924h1.102v1.524h2.24v.929h-2.24v3.822c0 .256.007.451.022.586a.62.62 0 0 0 .112.317c.111.153.335.23.672.23.188 0 .37-.019.545-.058.179-.038.343-.08.492-.127.12.26.229.546.327.858a4.729 4.729 0 0 1-1.524.255c-.371 0-.669-.041-.893-.124a1.074 1.074 0 0 1-.528-.407 1.721 1.721 0 0 1-.263-.704 7.783 7.783 0 0 1-.064-1.133v-3.515h-.96v-.929h.96v-1.524ZM166.095 57.22c-.034-.691-.2-1.196-.496-1.514-.297-.318-.72-.477-1.272-.477-.55 0-.97.16-1.258.477-.288.318-.461.823-.521 1.515h3.547Zm.749 3.515a7.576 7.576 0 0 1-1.335.404c-.416.08-.789.121-1.118.121-.503 0-.943-.08-1.318-.24a2.516 2.516 0 0 1-.938-.675 2.891 2.891 0 0 1-.564-1.04 4.463 4.463 0 0 1-.189-1.335c0-.3.022-.598.064-.897.043-.298.111-.583.205-.854.094-.272.217-.524.368-.76.152-.234.337-.437.554-.607.218-.171.472-.305.762-.404.29-.098.621-.147.992-.147.952 0 1.67.298 2.152.893.482.596.724 1.448.724 2.558v.352h-4.687c0 .359.038.676.115.951.077.275.195.508.355.698.16.19.363.334.608.432.246.098.537.147.874.147.188 0 .375-.014.56-.041a5.33 5.33 0 0 0 .542-.11 6.3 6.3 0 0 0 .502-.15c.16-.055.31-.108.452-.16l.32.864ZM170.975 54.3c.35 0 .701.037 1.054.11.352.072.68.173.982.3-.06.137-.121.272-.185.404a4.797 4.797 0 0 1-.212.39 5.88 5.88 0 0 0-.355-.127 3.75 3.75 0 0 0-.41-.11 5.628 5.628 0 0 0-.442-.073 3.55 3.55 0 0 0-.444-.029c-.158 0-.311.016-.458.048a1.177 1.177 0 0 0-.39.157.83.83 0 0 0-.273.285.862.862 0 0 0-.102.439c0 .179.038.33.115.451a.955.955 0 0 0 .313.304c.133.081.288.15.465.205.177.055.366.107.566.154.312.076.602.163.871.26.269.095.502.22.698.374.196.153.35.343.46.57.112.226.167.505.167.838 0 .35-.07.65-.208.903-.138.252-.326.46-.563.624a2.517 2.517 0 0 1-.83.365 4.164 4.164 0 0 1-1.01.119 5.43 5.43 0 0 1-1.741-.301 5.435 5.435 0 0 1-.533-.212c.06-.136.123-.27.19-.4.066-.13.135-.259.207-.387.141.06.29.116.449.17a5.997 5.997 0 0 0 .98.23c.161.023.317.035.467.035.187 0 .37-.021.547-.064a1.47 1.47 0 0 0 .474-.201c.138-.092.25-.211.332-.356.084-.145.126-.32.126-.525 0-.192-.04-.35-.119-.474a1.002 1.002 0 0 0-.317-.31 1.878 1.878 0 0 0-.464-.205 9.934 9.934 0 0 0-.56-.15 8.784 8.784 0 0 1-.849-.25 2.516 2.516 0 0 1-.698-.369 1.682 1.682 0 0 1-.473-.563c-.118-.224-.176-.502-.176-.835 0-.312.064-.58.191-.807.129-.226.3-.412.516-.557.215-.145.465-.253.75-.324.283-.07.581-.105.892-.105M175.78 52.924h1.1v1.524h2.241v.929h-2.24v3.822c0 .256.006.451.022.586a.62.62 0 0 0 .112.317c.11.153.335.23.672.23.188 0 .369-.019.544-.058.18-.038.344-.08.493-.127.12.26.228.546.327.858a4.729 4.729 0 0 1-1.524.255c-.371 0-.669-.041-.893-.124a1.074 1.074 0 0 1-.528-.407 1.721 1.721 0 0 1-.263-.704 7.783 7.783 0 0 1-.064-1.133v-3.515h-.96v-.929h.96v-1.524ZM184.27 59.237v-1.344a7.172 7.172 0 0 0-.505-.013c-.375 0-.721.032-1.037.096-.47.094-.833.243-1.092.445-.258.203-.387.494-.387.874 0 .683.371 1.025 1.114 1.025.384 0 .743-.103 1.075-.308.273-.17.551-.429.833-.775m-3.099-3.61-.282-.897a6.037 6.037 0 0 1 2.254-.429c.687 0 1.212.115 1.575.346.414.264.621.715.621 1.35v2.62c0 .35.004.708.013 1.075.004.218.026.444.064.678.034.223.079.433.134.635l-1.05.23a3.788 3.788 0 0 1-.185-.96l-.128-.013c-.53.666-1.204.998-2.024.998-.597 0-1.078-.165-1.44-.496-.363-.33-.544-.797-.544-1.399 0-.448.099-.815.297-1.1.199-.287.48-.528.842-.724.572-.312 1.373-.468 2.401-.468.137 0 .32.004.55.013v-.973c0-.308-.093-.53-.281-.666-.188-.137-.483-.205-.883-.205-.585 0-1.23.128-1.934.384M188.114 52.924h1.102v1.524h2.24v.929h-2.24v3.822c0 .256.007.451.022.586a.62.62 0 0 0 .112.317c.111.153.335.23.672.23.188 0 .37-.019.545-.058.179-.038.343-.08.492-.127.12.26.229.546.327.858a4.729 4.729 0 0 1-1.524.255c-.371 0-.669-.041-.893-.124a1.074 1.074 0 0 1-.528-.407 1.721 1.721 0 0 1-.263-.704 7.783 7.783 0 0 1-.064-1.133v-3.515h-.96v-.929h.96v-1.524ZM193.2 61.107h1.101v-6.659H193.2v6.66Zm.563-9.239c.196 0 .368.068.513.205.14.15.21.324.21.525 0 .205-.07.378-.21.518a.702.702 0 0 1-.513.218.715.715 0 0 1-.525-.218.682.682 0 0 1-.218-.518c0-.205.073-.38.218-.525a.738.738 0 0 1 .525-.205ZM199.15 55.204c-.243 0-.473.038-.689.115a1.321 1.321 0 0 0-.566.403c-.167.197-.299.459-.397.788-.098.328-.147.751-.147 1.267 0 .513.049.935.147 1.265.098.33.23.592.397.785.162.196.351.331.566.406.216.075.446.112.689.112.247 0 .48-.037.7-.112.22-.075.414-.21.58-.406.167-.193.298-.454.394-.785.096-.33.144-.752.144-1.265 0-.516-.048-.939-.144-1.267-.096-.33-.227-.591-.394-.788a1.353 1.353 0 0 0-.58-.403 2.105 2.105 0 0 0-.7-.115m0-.903c.209 0 .426.016.653.048.226.032.448.093.665.182.218.094.424.221.618.382.195.16.366.368.516.623.15.26.266.574.352.938.086.365.128.8.128 1.303 0 .504-.042.938-.128 1.303a3.374 3.374 0 0 1-.352.932c-.15.26-.321.472-.516.634-.194.162-.4.288-.618.378-.217.093-.439.157-.665.189a4.635 4.635 0 0 1-.653.048c-.205 0-.42-.016-.644-.048a2.591 2.591 0 0 1-.663-.19 2.319 2.319 0 0 1-.614-.377 2.36 2.36 0 0 1-.513-.634 3.374 3.374 0 0 1-.351-.932 5.783 5.783 0 0 1-.129-1.303c0-.503.043-.938.129-1.303.085-.364.202-.677.351-.938a2.336 2.336 0 0 1 1.127-1.005c.218-.09.438-.15.66-.182.222-.032.438-.048.647-.048M203.665 54.563l1.063-.237c.081.257.139.504.173.743.017.116.038.344.064.685h.134c.235-.43.525-.774.871-1.03.38-.282.781-.423 1.204-.423.636 0 1.12.154 1.453.46.286.261.485.66.596 1.198.073.368.109.914.109 1.64v3.508h-1.102v-3.816c0-.636-.061-1.09-.185-1.364-.184-.405-.553-.608-1.108-.608-.393 0-.777.188-1.152.563-.252.252-.521.621-.807 1.108v4.117h-1.101V57.01c0-.576-.016-1.073-.045-1.492a5.59 5.59 0 0 0-.167-.954" fill="#FFF" mask="url(#f)"/></g></svg>
