<svg width="210" height="65" xmlns="http://www.w3.org/2000/svg" xmlns:xlink="http://www.w3.org/1999/xlink"><defs><path id="a" d="M0 0h12.784v18.652H0z"/><path id="c" d="M0 64.047h210V0H0z"/></defs><g fill="none" fill-rule="evenodd"><g transform="translate(0 26.294)"><mask id="b" fill="#fff"><use xlink:href="#a"/></mask><path d="M6.297 0c.938 0 1.88.097 2.823.292a14.98 14.98 0 0 1 1.51.392c.616.196.913.903.632 1.484l-.006.011c-.034.072-.07.143-.105.214a1.075 1.075 0 0 1-1.301.527 10.23 10.23 0 0 0-1.21-.329 15.25 15.25 0 0 0-1.184-.197 9.52 9.52 0 0 0-1.193-.078c-.423 0-.832.044-1.227.13a3.158 3.158 0 0 0-1.046.42 2.221 2.221 0 0 0-.73.763c-.183.315-.274.707-.274 1.175 0 .481.103.884.309 1.21.205.326.486.599.84.816.355.217.77.4 1.245.548.474.15.98.286 1.518.412.835.206 1.613.438 2.334.695a6.62 6.62 0 0 1 1.87 1.004c.526.412.938.92 1.236 1.527.297.607.446 1.356.446 2.248 0 .938-.186 1.745-.558 2.42a4.865 4.865 0 0 1-1.51 1.672c-.635.441-1.376.767-2.222.979-.847.211-1.75.317-2.711.317-.504 0-1.021-.031-1.553-.094a14.808 14.808 0 0 1-1.579-.275 15.769 15.769 0 0 1-1.868-.555 1.076 1.076 0 0 1-.602-1.49l.016-.031.098-.191a1.07 1.07 0 0 1 1.315-.513l.346.12c.423.144.858.267 1.304.37.446.102.887.185 1.322.248.434.063.852.094 1.252.094.503 0 .993-.057 1.467-.171a3.95 3.95 0 0 0 1.27-.54c.372-.246.67-.564.892-.953.224-.389.335-.858.335-1.407 0-.515-.106-.938-.318-1.27a2.688 2.688 0 0 0-.849-.832 5.081 5.081 0 0 0-1.244-.549 27.154 27.154 0 0 0-1.501-.403c-.801-.195-1.56-.418-2.274-.67a6.752 6.752 0 0 1-1.87-.986 4.502 4.502 0 0 1-1.27-1.51C.157 6.444 0 5.697 0 4.804 0 3.97.172 3.25.515 2.642A4.369 4.369 0 0 1 1.896 1.15 6.262 6.262 0 0 1 3.904.283 9.9 9.9 0 0 1 6.297 0" fill="#FFF" mask="url(#b)"/></g><path d="M22.503 28.784c-.652 0-.836.072-1.413.277-.578.206-1.084.567-1.519 1.082-.446.526-.8 1.23-1.064 2.11-.263.882-.395 2.014-.395 3.398 0 1.372.132 2.502.395 3.389.263.886.618 1.587 1.064 2.102.435.526.941.89 1.519 1.09.577.2.761.26 1.413.26.664 0 .916-.073 1.505-.273.589-.2 1.106-.563 1.553-1.09.446-.514.798-1.215 1.055-2.101.257-.886.386-2.016.386-3.39 0-1.383-.129-2.516-.386-3.397-.257-.88-.61-1.584-1.055-2.11-.447-.515-.964-.875-1.553-1.081-.59-.206-.841-.266-1.505-.266m0-2.423c.56 0 .77.003 1.376.089a7.4 7.4 0 0 1 1.785.489 6.895 6.895 0 0 1 1.655 1.021c.52.43.981.987 1.382 1.673.4.698.715 1.536.943 2.514.23.978.343 2.142.343 3.492s-.114 2.513-.343 3.492c-.228.978-.543 1.81-.943 2.496-.4.698-.861 1.265-1.382 1.699a6.34 6.34 0 0 1-1.655 1.012 6.96 6.96 0 0 1-1.785.507c-.606.086-.805.104-1.365.104-.549 0-.704-.007-1.304-.092a6.957 6.957 0 0 1-1.776-.507 6.211 6.211 0 0 1-1.647-1.012c-.515-.435-.973-1-1.373-1.699-.4-.686-.715-1.518-.944-2.497-.229-.977-.343-2.141-.343-3.491s.114-2.514.343-3.492c.229-.978.543-1.816.944-2.514.4-.686.858-1.244 1.373-1.673a6.73 6.73 0 0 1 1.647-1.021 7.41 7.41 0 0 1 1.767-.489c.595-.086.741-.101 1.302-.101M45.345 42.742c.199.65-.17 1.343-.826 1.523-.538.149-1.097.279-1.676.39-1.012.194-1.534.27-2.438.27-1.373 0-2.175-.179-3.181-.58-1.007-.4-1.84-.983-2.497-1.75-.658-.765-1.147-1.706-1.467-2.822-.32-1.116-.48-2.388-.48-3.818 0-1.556.197-2.934.592-4.135.394-1.201.966-2.21 1.715-3.029a7.252 7.252 0 0 1 2.746-1.862c1.081-.423 1.916-.607 3.29-.607.697 0 .974.044 1.695.187.316.063.635.133.956.21.677.163 1.074.87.87 1.535l-.016.05a1.219 1.219 0 0 1-1.485.812c-.179-.047-.353-.09-.523-.127-.509-.115-.609-.135-1.17-.135-1.944 0-3.054.526-4.106 1.653s-1.579 2.829-1.579 5.105c0 1.064.077 2.016.232 2.857.154.84.43 1.556.824 2.145.394.59.932 1.038 1.612 1.347.681.308 1.173.433 2.226.433.686 0 .977-.058 1.772-.236.455-.101.924-.216 1.41-.346a1.212 1.212 0 0 1 1.468.814l.036.116ZM78.074 17.34h-2.695c-.815 0-1.476.601-1.476 1.417 0 .793.63 1.297 1.416 1.33h.005c.705 0 1.279.577 1.272 1.283l.002 21.848c0 .815.661 1.476 1.476 1.476s1.336-.521 1.336-1.337V18.896c0-.815-.52-1.556-1.336-1.556M67.012 42.076c-1.018.249-2.602.348-3.632.348-1.99 0-2.985-.915-2.985-2.746 0-1.017.346-1.798 1.038-2.341.692-.544 1.667-.942 2.926-1.193a14.01 14.01 0 0 1 2.78-.258h.09c.7.001 1.265.568 1.265 1.266v.535h.004v3.258c-.112.946-.781.959-1.486 1.131m4.348-6.8v-4.434c0-1.705-.555-2.912-1.665-3.621-.972-.618-2.38-.927-4.22-.927-1.673 0-3.288.242-4.844.726a1.273 1.273 0 0 0 .75 2.432c1.43-.423 2.759-.635 3.99-.635 1.075 0 1.865.183 2.368.549.504.366.755.96.755 1.784v1.303c0 .705-.576 1.279-1.282 1.272h-.194c-2.756 0-4.901.417-6.434 1.252-.973.526-1.725 1.173-2.257 1.94-.532.765-.798 1.75-.798 2.95 0 1.614.486 2.863 1.459 3.75.972.886 2.26 1.33 3.86 1.33 1.54 0 3.87-.216 5.602-.962.126-.055.201-.033.271.016.254.415.7.692 1.212.692.793 0 1.435-.66 1.435-1.475v-7.853c0-.03-.006-.06-.008-.09M52.524 26.533H49.83c-.815 0-1.475.43-1.475 1.244 0 .794.631 1.322 1.417 1.355h.003c.706 0 1.28.577 1.272 1.283l.003 12.803c0 .815.66 1.475 1.475 1.475.815 0 1.312-.66 1.312-1.475v-15.44c0-.815-.497-1.245-1.312-1.245M52.41 22.817c.47 0 .877-.174 1.224-.52.337-.336.505-.75.505-1.239a1.77 1.77 0 0 0-.505-1.253 1.726 1.726 0 0 0-1.223-.49c-.49 0-.908.163-1.254.49-.347.346-.52.764-.52 1.253 0 .5.173.913.52 1.24.346.345.765.519 1.254.519M86.706 30.755l.001-12.057c0-.279-.007-.56.021-.836.054-.523.298-.805.816-.812 1.757-.023 3.515-.024 5.272 0 .523.007.772.315.789.883.022.787.012 1.574.014 2.362.002 1.607-.008 3.215.016 4.822.004.272.15.54.23.81.22-.176.495-.314.651-.536 1.683-2.387 3.37-4.772 5.002-7.195.56-.83 1.201-1.238 2.234-1.19 1.557.071 3.12.018 4.681.018.197 0 .395-.002.592.006.81.037 1.022.443.556 1.123-.5.731-1.032 1.441-1.556 2.156-1.716 2.344-3.422 4.695-5.16 7.022-.451.607-.495 1.123-.1 1.79 2.73 4.62 5.428 9.258 8.139 13.889.688 1.175.522 1.52-.826 1.541-1.773.027-3.549-.015-5.322.014-.88.015-1.417-.357-1.836-1.121-1.482-2.705-3.013-5.383-4.526-8.072-.033-.057-.064-.115-.098-.171-.397-.656-.654-.673-1.13-.078-.03.038-.06.078-.088.118-1.694 2.325-1.438 1.61-1.458 4.395-.009 1.263.005 2.527-.006 3.79-.007.817-.228 1.08-1.047 1.098-1.544.035-3.088.045-4.631.015-1.034-.02-1.226-.252-1.227-1.284-.004-4.167-.002-8.333-.002-12.5h-.001ZM135.345 30.765c.037-1.999-.01-3.999.423-5.973 1.084-4.942 4.623-7.924 9.703-8.14 2.08-.087 4.108.138 5.982 1.119 2.809 1.469 4.234 3.923 4.842 6.925.147.723-.152 1.06-.898 1.07-1.494.02-2.989.002-4.483.009-.68.002-1.02-.374-1.261-.968-.81-2-2.724-2.85-4.746-2.131-1.135.403-1.781 1.276-2.112 2.37-.226.747-.43 1.535-.44 2.308-.035 2.473-.034 4.95.07 7.421.055 1.287.457 2.519 1.442 3.466 1.736 1.67 4.88.98 5.731-1.26.418-1.098.5-1.156 1.69-1.156 1.346-.002 2.693-.007 4.04.004.836.008 1.127.323.962 1.137-.957 4.723-3.613 7.445-8.437 7.902-2.095.198-4.173.064-6.156-.737-3.122-1.261-4.927-3.644-5.793-6.82-.533-1.953-.54-3.955-.558-5.956-.003-.197 0-.394 0-.59M125.776 38.889c0 1.493.006 2.985-.001 4.477-.005.887-.212 1.142-1.088 1.16-1.575.033-3.152.034-4.728 0-.845-.016-1.068-.293-1.07-1.183-.008-2.608-.052-5.217.015-7.823.035-1.342-.27-2.52-.9-3.703-2.35-4.417-4.633-8.868-6.938-13.31-.618-1.19-.441-1.48.893-1.482 1.724-.003 3.45.026 5.173-.011.813-.018 1.276.339 1.59 1.049a526.751 526.751 0 0 0 3.065 6.769c.12.26.366.461.554.69.189-.233.436-.438.557-.701a373.838 373.838 0 0 0 3.045-6.724c.334-.762.818-1.104 1.664-1.085 1.74.04 3.482.011 5.223.014.196 0 .397 0 .588.038.516.104.67.468.4 1.023-.454.929-.933 1.845-1.41 2.762-2.086 4.017-4.188 8.028-6.25 12.058-.236.462-.345 1.03-.362 1.555-.048 1.474-.016 2.951-.016 4.427h-.004ZM4.702 58.505v-3.022c-.49-.13-.94-.195-1.352-.195-.351 0-.654.064-.907.191a1.445 1.445 0 0 0-.595.54c-.143.232-.247.49-.311.777a4.328 4.328 0 0 0-.098.962c0 .243.005.456.016.64.01.184.03.383.058.598.029.214.073.398.134.549.06.152.136.293.228.423.09.13.209.228.353.295.146.068.314.101.505.101.459 0 .858-.184 1.195-.552.243-.27.501-.704.774-1.307Zm0-6.623H5.82v6.805c0 .763.01 1.263.033 1.502.02.295.07.61.149.949l-1.08.24a4.783 4.783 0 0 1-.162-.735 6.541 6.541 0 0 1-.071-.701H4.59c-.225.468-.474.812-.747 1.033-.33.282-.737.422-1.222.422-.425 0-.79-.092-1.099-.276a1.895 1.895 0 0 1-.718-.77 4.118 4.118 0 0 1-.377-1.085 6.56 6.56 0 0 1-.12-1.307c0-.537.055-1.02.165-1.45.111-.429.28-.809.511-1.14.23-.332.537-.587.923-.767.386-.18.838-.27 1.358-.27.408 0 .887.054 1.437.163v-2.613ZM12.346 57.296c-.035-.701-.203-1.214-.504-1.537-.301-.323-.732-.484-1.29-.484-.56 0-.985.161-1.277.484-.293.323-.47.836-.53 1.537h3.6Zm.76 3.569c-.481.19-.933.327-1.355.41-.422.081-.8.123-1.135.123-.51 0-.957-.082-1.338-.244a2.56 2.56 0 0 1-.953-.686 2.947 2.947 0 0 1-.572-1.056 4.545 4.545 0 0 1-.191-1.355c0-.304.021-.607.064-.91a4.71 4.71 0 0 1 .209-.868c.095-.275.22-.532.374-.77.153-.239.341-.445.562-.618.22-.173.479-.31.773-.41.295-.099.63-.148 1.008-.148.966 0 1.694.301 2.184.906.49.604.734 1.47.734 2.597v.357H8.712c0 .364.04.686.117.965.078.28.199.516.36.709.164.193.37.339.618.439.25.1.545.149.887.149.191 0 .38-.014.57-.042.188-.028.371-.065.548-.11.178-.046.349-.097.51-.153.164-.056.316-.11.46-.163l.324.878ZM19.938 61a7.727 7.727 0 0 1-1.082.287c-.384.074-.747.11-1.089.11-.52 0-.97-.075-1.352-.227a2.379 2.379 0 0 1-.946-.663 2.805 2.805 0 0 1-.555-1.069 5.253 5.253 0 0 1-.182-1.446c0-.59.074-1.111.224-1.567.15-.455.366-.837.65-1.147.284-.31.63-.545 1.04-.705a3.8 3.8 0 0 1 1.394-.24c.265 0 .533.026.806.08.273.055.55.123.832.206l-.28.91a6.859 6.859 0 0 0-.627-.176 2.778 2.778 0 0 0-.608-.065c-.736 0-1.304.213-1.702.64-.4.427-.599 1.071-.599 1.933 0 .404.03.764.088 1.083.059.318.163.59.312.812.15.224.353.394.611.51.258.118.586.176.985.176.26 0 .54-.033.842-.1.3-.068.62-.151.959-.251l.279.91ZM25.833 57.296c-.034-.701-.202-1.214-.503-1.537-.302-.323-.732-.484-1.29-.484-.56 0-.986.161-1.278.484-.293.323-.47.836-.53 1.537h3.601Zm.76 3.569c-.48.19-.932.327-1.355.41-.422.081-.8.123-1.134.123-.511 0-.957-.082-1.339-.244a2.56 2.56 0 0 1-.952-.686 2.947 2.947 0 0 1-.572-1.056 4.545 4.545 0 0 1-.192-1.355c0-.304.022-.607.065-.91a4.71 4.71 0 0 1 .208-.868c.096-.275.22-.532.374-.77.154-.239.342-.445.562-.618.221-.173.48-.31.774-.41.294-.099.63-.148 1.008-.148.966 0 1.694.301 2.183.906.49.604.735 1.47.735 2.597v.357H22.2c0 .364.039.686.117.965.078.28.198.516.36.709.163.193.369.339.618.439.25.1.545.149.887.149.19 0 .38-.014.57-.042.187-.028.37-.065.548-.11.178-.046.348-.097.51-.153.163-.056.316-.11.459-.163l.325.878ZM28.485 54.599l1.08-.24c.082.26.14.51.175.754.017.116.039.348.065.694h.136a3.16 3.16 0 0 1 .884-1.046c.386-.286.794-.429 1.222-.429.646 0 1.138.156 1.476.468.29.264.491.67.604 1.216.074.373.11.927.11 1.664v3.562H33.12v-3.874c0-.646-.063-1.107-.19-1.385-.185-.412-.56-.617-1.124-.617-.398 0-.788.19-1.17.572-.255.255-.528.63-.818 1.124v4.18H28.7v-4.16c0-.585-.015-1.09-.046-1.515a5.632 5.632 0 0 0-.169-.968M36.753 52.935h1.118v1.547h2.275v.942h-2.275v3.88c0 .26.008.459.023.595a.625.625 0 0 0 .114.322c.112.156.34.234.682.234.19 0 .375-.02.552-.059.182-.039.349-.082.501-.13.121.265.232.555.331.872a4.8 4.8 0 0 1-1.546.26c-.378 0-.68-.043-.908-.127a1.09 1.09 0 0 1-.536-.413 1.739 1.739 0 0 1-.266-.715 7.897 7.897 0 0 1-.065-1.15v-3.569h-.975v-.942h.975v-1.547ZM42.967 56.048c.135-.268.278-.511.432-.728.154-.216.325-.4.51-.552.17-.148.356-.257.56-.329.203-.071.435-.107.695-.107.087 0 .188.005.302.013.115.009.225.024.329.046-.018.217-.039.42-.062.61a7.863 7.863 0 0 1-.094.58 7.189 7.189 0 0 0-.595-.086 2.022 2.022 0 0 0-.51.014c-.191.035-.357.098-.498.191a1.643 1.643 0 0 0-.39.371c-.119.154-.235.338-.347.552-.113.215-.236.46-.37.738v3.88H41.81v-4.166c0-.273-.003-.513-.01-.721a8.177 8.177 0 0 0-.039-.595 5.23 5.23 0 0 0-.087-.56 8.704 8.704 0 0 0-.156-.613c.182-.048.36-.091.536-.13.175-.04.354-.076.536-.111.06.174.11.327.146.462a4.06 4.06 0 0 1 .137.783l.036.458h.058ZM50.71 59.344v-1.365a7.554 7.554 0 0 0-.515-.014c-.38 0-.732.033-1.052.098-.478.095-.847.246-1.109.452-.262.206-.393.501-.393.887 0 .693.377 1.04 1.13 1.04.39 0 .755-.104 1.093-.312.277-.173.56-.435.845-.786m-3.146-3.666-.286-.91a6.122 6.122 0 0 1 2.288-.436c.697 0 1.23.117 1.598.351.421.269.631.726.631 1.372v2.658c0 .356.005.72.013 1.092.005.221.026.45.066.69.034.225.08.439.136.643l-1.066.234c-.1-.29-.163-.616-.189-.975l-.13-.013c-.537.676-1.222 1.014-2.053 1.014-.607 0-1.095-.168-1.463-.504-.369-.336-.552-.81-.552-1.42 0-.455.1-.828.302-1.118a2.41 2.41 0 0 1 .854-.735c.581-.316 1.393-.474 2.438-.474.138 0 .325.004.56.013v-.989c0-.311-.097-.537-.287-.675-.19-.14-.49-.208-.897-.208-.594 0-1.248.13-1.963.39M54.869 58.616c0 .355.004.653.013.893.008.241.02.452.032.634.013.182.034.347.062.494.028.148.064.31.107.488-.182.047-.364.092-.546.133-.182.04-.364.077-.546.107a5.554 5.554 0 0 1-.185-.773 4.436 4.436 0 0 1-.055-.69v-8.007h1.118v6.72Z" fill="#FFF"/><mask id="d" fill="#fff"><use xlink:href="#c"/></mask><path d="M57.105 61.242h1.118v-6.76h-1.118v6.76Zm.572-9.38c.2 0 .373.07.52.208.143.152.214.33.214.533a.719.719 0 0 1-.214.527.713.713 0 0 1-.52.22.728.728 0 0 1-.533-.22.693.693 0 0 1-.221-.527c0-.208.073-.386.22-.533a.75.75 0 0 1 .534-.208ZM62.058 55.424c-.178 0-.34-.002-.487-.006a5.031 5.031 0 0 1-.427-.03 3.236 3.236 0 0 1-.416-.074 4.306 4.306 0 0 1-.458-.143l.166-.455c.054-.147.11-.303.166-.468.173.056.327.1.461.13s.266.053.397.068c.13.015.264.025.402.03.14.004.304.006.495.006h2.73v.78l-3.393 5.037h3.45v.943h-4.848v-.787l3.387-5.03h-1.625ZM71.288 57.296c-.035-.701-.203-1.214-.504-1.537-.302-.323-.732-.484-1.29-.484-.56 0-.986.161-1.278.484-.293.323-.47.836-.53 1.537h3.602Zm.76 3.569c-.481.19-.933.327-1.356.41-.422.081-.8.123-1.134.123-.511 0-.957-.082-1.339-.244a2.56 2.56 0 0 1-.952-.686 2.947 2.947 0 0 1-.572-1.056 4.545 4.545 0 0 1-.192-1.355c0-.304.022-.607.065-.91a4.71 4.71 0 0 1 .208-.868c.096-.275.22-.532.374-.77.154-.239.342-.445.562-.618.221-.173.48-.31.774-.41.294-.099.63-.148 1.008-.148.966 0 1.694.301 2.183.906.49.604.735 1.47.735 2.597v.357h-4.758c0 .364.039.686.117.965.078.28.198.516.36.709.163.193.369.339.618.439.25.1.545.149.887.149.19 0 .38-.014.57-.042.187-.028.37-.065.548-.11.178-.046.348-.097.51-.153.163-.056.316-.11.459-.163l.325.878ZM78.106 58.505v-3.022c-.49-.13-.94-.195-1.352-.195-.351 0-.653.064-.907.191a1.445 1.445 0 0 0-.594.54c-.144.232-.248.49-.312.777a4.328 4.328 0 0 0-.098.962c0 .243.006.456.017.64.01.184.03.383.058.598.028.214.072.398.133.549.061.152.136.293.228.423.09.13.209.228.354.295.145.068.313.101.504.101.459 0 .858-.184 1.196-.552.242-.27.5-.704.773-1.307Zm0-6.623h1.118v6.805c0 .763.011 1.263.033 1.502.021.295.071.61.15.949l-1.08.24a4.783 4.783 0 0 1-.162-.735 6.541 6.541 0 0 1-.072-.701h-.098c-.225.468-.474.812-.747 1.033-.329.282-.736.422-1.222.422-.425 0-.79-.092-1.098-.276a1.895 1.895 0 0 1-.718-.77 4.118 4.118 0 0 1-.378-1.085 6.56 6.56 0 0 1-.12-1.307c0-.537.055-1.02.166-1.45.11-.429.28-.809.51-1.14.23-.332.537-.587.923-.767.386-.18.839-.27 1.358-.27.408 0 .887.054 1.437.163v-2.613ZM146.824 54.482l-2.25 6.76h-1.494l-2.25-6.76h1.21l1.787 5.902 1.788-5.902zM152.537 57.296c-.035-.701-.203-1.214-.504-1.537-.301-.323-.731-.484-1.29-.484s-.985.161-1.277.484c-.293.323-.47.836-.53 1.537h3.601Zm.76 3.569c-.48.19-.932.327-1.355.41-.422.081-.8.123-1.134.123-.511 0-.958-.082-1.339-.244a2.56 2.56 0 0 1-.952-.686 2.947 2.947 0 0 1-.572-1.056 4.545 4.545 0 0 1-.192-1.355c0-.304.022-.607.065-.91a4.71 4.71 0 0 1 .208-.868c.095-.275.22-.532.374-.77.154-.239.341-.445.562-.618.221-.173.479-.31.774-.41.294-.099.63-.148 1.007-.148.966 0 1.694.301 2.184.906.49.604.735 1.47.735 2.597v.357h-4.758c0 .364.039.686.117.965.078.28.198.516.36.709.163.193.369.339.618.439.25.1.545.149.887.149.19 0 .38-.014.57-.042.187-.028.37-.065.548-.11.178-.046.348-.097.51-.153.163-.056.316-.11.459-.163l.325.878ZM156.619 56.048c.135-.268.278-.511.432-.728.154-.216.325-.4.51-.552.17-.148.356-.257.56-.329.203-.071.435-.107.695-.107.087 0 .187.005.302.013.115.009.224.024.328.046-.017.217-.038.42-.061.61a8.112 8.112 0 0 1-.094.58 7.189 7.189 0 0 0-.595-.086 2.022 2.022 0 0 0-.51.014c-.191.035-.357.098-.498.191a1.643 1.643 0 0 0-.39.371c-.119.154-.235.338-.347.552-.113.215-.236.46-.37.738v3.88h-1.119v-4.166c0-.273-.003-.513-.01-.721a8.177 8.177 0 0 0-.039-.595 5.23 5.23 0 0 0-.087-.56 8.704 8.704 0 0 0-.157-.613 18.572 18.572 0 0 1 1.073-.241c.06.174.11.327.146.462a4.06 4.06 0 0 1 .137.783l.036.458h.058ZM160.902 61.242h1.119v-6.76h-1.119v6.76Zm.572-9.38c.2 0 .373.07.52.208.143.152.215.33.215.533a.719.719 0 0 1-.214.527.713.713 0 0 1-.52.22.728.728 0 0 1-.534-.22.693.693 0 0 1-.22-.527c0-.208.073-.386.22-.533a.75.75 0 0 1 .533-.208ZM170.97 53.13a.693.693 0 0 1-.22-.527c0-.208.074-.385.22-.533a.752.752 0 0 1 .534-.208c.2 0 .372.07.52.208.143.152.215.33.215.533a.718.718 0 0 1-.215.527.714.714 0 0 1-.52.22.729.729 0 0 1-.533-.22Zm-4.783 1.351h5.863v6.76h-1.118v-5.817h-4.745V60.3h2.171v.943h-4.433v-.943h1.131v-4.875h-1.131v-.943h1.131v-.734c0-.32.03-.598.09-.832.062-.234.168-.45.32-.65s.373-.35.666-.452c.292-.101.653-.152 1.082-.152.559 0 1.224.093 1.996.28l-.202.916c-.728-.152-1.282-.228-1.664-.228-.186 0-.344.01-.47.03a.785.785 0 0 0-.524.302.713.713 0 0 0-.108.292c-.024.13-.039.254-.045.37-.007.118-.01.28-.01.488v.37ZM179.089 61a7.727 7.727 0 0 1-1.082.287c-.384.074-.746.11-1.089.11-.52 0-.97-.075-1.352-.227a2.379 2.379 0 0 1-.946-.663 2.805 2.805 0 0 1-.555-1.069 5.253 5.253 0 0 1-.182-1.446c0-.59.074-1.111.224-1.567.15-.455.366-.837.65-1.147.284-.31.63-.545 1.04-.705a3.8 3.8 0 0 1 1.394-.24c.265 0 .533.026.806.08.274.055.55.123.832.206l-.28.91a6.859 6.859 0 0 0-.627-.176 2.778 2.778 0 0 0-.607-.065c-.737 0-1.305.213-1.703.64-.4.427-.598 1.071-.598 1.933 0 .404.03.764.088 1.083.058.318.162.59.311.812.15.224.354.394.611.51.258.118.587.176.985.176.26 0 .54-.033.842-.1.301-.068.62-.151.959-.251l.279.91ZM184.231 59.344v-1.365a7.554 7.554 0 0 0-.514-.014c-.38 0-.732.033-1.052.098-.477.095-.847.246-1.109.452-.262.206-.393.501-.393.887 0 .693.377 1.04 1.13 1.04.39 0 .755-.104 1.093-.312.277-.173.56-.435.845-.786m-3.146-3.666-.286-.91a6.122 6.122 0 0 1 2.288-.436c.697 0 1.23.117 1.599.351.42.269.63.726.63 1.372v2.658c0 .356.005.72.013 1.092.005.221.027.45.066.69.034.225.08.439.136.643l-1.066.234c-.1-.29-.163-.616-.188-.975l-.13-.013c-.538.676-1.223 1.014-2.054 1.014-.607 0-1.095-.168-1.463-.504-.369-.336-.552-.81-.552-1.42 0-.455.1-.828.302-1.118a2.41 2.41 0 0 1 .854-.735c.581-.316 1.393-.474 2.438-.474.138 0 .325.004.56.013v-.989c0-.311-.097-.537-.287-.675-.19-.14-.49-.208-.897-.208-.594 0-1.248.13-1.963.39M188.053 52.935h1.118v1.547h2.275v.942h-2.275v3.88c0 .26.008.459.023.595a.625.625 0 0 0 .114.322c.112.156.34.234.682.234.19 0 .375-.02.553-.059.182-.039.348-.082.5-.13.121.265.232.555.332.872a4.8 4.8 0 0 1-1.547.26c-.378 0-.68-.043-.907-.127a1.09 1.09 0 0 1-.536-.413 1.739 1.739 0 0 1-.267-.715 7.898 7.898 0 0 1-.065-1.15v-3.569h-.975v-.942h.975v-1.547ZM193.136 61.242h1.118v-6.76h-1.118v6.76Zm.572-9.38c.2 0 .372.07.52.208.142.152.214.33.214.533a.719.719 0 0 1-.214.527.712.712 0 0 1-.52.22.728.728 0 0 1-.533-.22.693.693 0 0 1-.22-.527c0-.208.073-.386.22-.533a.75.75 0 0 1 .533-.208ZM199.096 55.249c-.246 0-.48.039-.698.117-.22.078-.41.214-.576.409-.168.2-.303.466-.402.8-.1.333-.15.763-.15 1.287 0 .52.05.948.15 1.283.1.336.234.602.402.796.165.2.357.338.576.413.219.076.452.114.698.114.252 0 .489-.038.713-.114.222-.075.419-.213.587-.413.17-.194.303-.46.4-.796.097-.335.147-.763.147-1.283 0-.524-.05-.954-.147-1.287-.097-.334-.23-.6-.4-.8a1.377 1.377 0 0 0-.587-.41 2.145 2.145 0 0 0-.713-.116m0-.917c.213 0 .434.016.664.05.23.031.454.093.676.184.22.096.43.224.627.387.197.162.371.374.523.634.152.264.27.581.358.952.086.37.13.811.13 1.323a5.9 5.9 0 0 1-.13 1.322c-.087.371-.206.686-.358.946a2.362 2.362 0 0 1-.523.644 2.4 2.4 0 0 1-.627.383c-.222.095-.447.16-.676.192-.23.032-.451.049-.664.049-.208 0-.425-.017-.652-.049a2.647 2.647 0 0 1-1.298-.575 2.396 2.396 0 0 1-.52-.644 3.42 3.42 0 0 1-.357-.946 5.845 5.845 0 0 1-.13-1.322c0-.512.043-.953.13-1.323.087-.37.206-.688.357-.952a2.366 2.366 0 0 1 1.144-1.02c.222-.092.445-.154.67-.186.225-.033.444-.049.656-.049M203.6 54.599l1.08-.24c.082.26.14.51.175.754.018.116.04.348.065.694h.136a3.16 3.16 0 0 1 .885-1.046c.386-.286.793-.429 1.222-.429.646 0 1.137.156 1.475.468.29.264.492.67.605 1.216.074.373.11.927.11 1.664v3.562h-1.118v-3.874c0-.646-.063-1.107-.189-1.385-.186-.412-.56-.617-1.123-.617-.4 0-.79.19-1.17.572-.256.255-.53.63-.82 1.124v4.18h-1.118v-4.16c0-.585-.015-1.09-.045-1.515a5.632 5.632 0 0 0-.17-.968M86.797 61.381h1.132v-6.845h-1.132v6.845Zm.579-9.497c.201 0 .377.07.526.21a.762.762 0 0 1 .217.54c0 .21-.072.388-.217.533a.723.723 0 0 1-.526.224.738.738 0 0 1-.54-.224.7.7 0 0 1-.224-.533c0-.21.074-.39.224-.54a.76.76 0 0 1 .54-.21ZM94.367 58.61v-3.06a5.366 5.366 0 0 0-1.369-.198c-.355 0-.661.065-.918.194a1.46 1.46 0 0 0-.602.547c-.145.235-.25.497-.316.786-.066.29-.099.615-.099.974 0 .246.006.462.017.649.01.186.03.388.059.605.028.217.073.403.135.556.061.154.138.297.23.428a.875.875 0 0 0 .359.3c.147.068.317.102.51.102.465 0 .869-.187 1.211-.56.246-.272.507-.713.783-1.323Zm0-6.707H95.5v6.891c0 .773.011 1.28.034 1.521.021.298.072.619.15.961l-1.092.244a4.859 4.859 0 0 1-.164-.744 6.543 6.543 0 0 1-.073-.711h-.099c-.228.474-.48.823-.757 1.046-.333.285-.746.428-1.237.428-.43 0-.8-.093-1.113-.28a1.917 1.917 0 0 1-.726-.78 4.139 4.139 0 0 1-.382-1.099 6.612 6.612 0 0 1-.122-1.323c0-.544.056-1.033.168-1.467.112-.435.284-.82.516-1.155.233-.336.545-.595.935-.777.39-.182.849-.273 1.375-.273.413 0 .898.055 1.455.164v-2.646ZM102.189 57.386c-.036-.71-.206-1.23-.51-1.556-.306-.328-.741-.491-1.307-.491s-.997.163-1.293.49c-.297.327-.475.846-.537 1.557h3.647Zm.77 3.614c-.487.192-.945.33-1.373.414-.427.084-.81.125-1.149.125-.517 0-.969-.082-1.355-.247a2.593 2.593 0 0 1-.964-.694 2.972 2.972 0 0 1-.58-1.07 4.592 4.592 0 0 1-.194-1.372c0-.307.022-.615.066-.921.044-.307.114-.6.21-.879.097-.279.224-.539.38-.78.155-.241.345-.45.568-.626.224-.175.485-.313.784-.414.298-.1.638-.151 1.02-.151.978 0 1.715.306 2.212.918.495.612.743 1.488.743 2.63v.361H98.51c0 .369.04.695.119.977.079.284.2.523.365.718.165.196.373.343.626.444.251.101.551.152.897.152.194 0 .386-.014.577-.043a5.37 5.37 0 0 0 .556-.112c.18-.046.352-.098.517-.154l.463-.165.33.889ZM104.954 54.654l1.093-.243c.084.263.143.518.178.764.017.118.04.352.066.704h.138c.241-.444.54-.797.895-1.06.39-.29.803-.434 1.237-.434.654 0 1.152.158 1.495.474.293.267.498.677.612 1.23.074.378.112.94.112 1.685v3.607h-1.132v-3.923c0-.654-.064-1.12-.191-1.402-.19-.416-.569-.625-1.139-.625-.404 0-.799.194-1.185.58-.259.259-.535.638-.83 1.138v4.232h-1.131V57.17c0-.593-.016-1.104-.046-1.534a5.712 5.712 0 0 0-.172-.98M113.408 52.97h1.132v1.566h2.304v.955h-2.304v3.929c0 .263.008.464.022.602a.633.633 0 0 0 .116.325c.114.158.345.237.691.237.193 0 .38-.02.56-.059.184-.04.353-.083.506-.131.123.267.235.562.336.882a4.845 4.845 0 0 1-1.566.263c-.382 0-.688-.043-.919-.128a1.107 1.107 0 0 1-.543-.418 1.765 1.765 0 0 1-.27-.725 8.005 8.005 0 0 1-.065-1.164v-3.613h-.988v-.955h.988V52.97ZM118.636 61.381h1.132v-6.845h-1.132v6.845Zm.58-9.497c.2 0 .376.07.526.21a.762.762 0 0 1 .217.54c0 .21-.073.388-.217.533a.722.722 0 0 1-.527.224.738.738 0 0 1-.54-.224.702.702 0 0 1-.223-.533c0-.21.074-.39.223-.54a.76.76 0 0 1 .54-.21ZM122.81 52.97h1.133v1.566h2.303v.955h-2.303v3.929c0 .263.007.464.022.602a.633.633 0 0 0 .116.325c.114.158.345.237.69.237.194 0 .38-.02.56-.059.184-.04.353-.083.507-.131.123.267.235.562.336.882a4.845 4.845 0 0 1-1.566.263c-.383 0-.689-.043-.92-.128a1.107 1.107 0 0 1-.542-.418 1.765 1.765 0 0 1-.27-.725 8.005 8.005 0 0 1-.066-1.164v-3.613h-.987v-.955h.987V52.97ZM133.495 54.536v6.997c0 .434-.072.809-.214 1.125-.143.316-.34.577-.592.783a2.476 2.476 0 0 1-.9.458 4.125 4.125 0 0 1-1.131.148c-.369 0-.74-.032-1.113-.095a7.043 7.043 0 0 1-1.066-.267c.057-.154.117-.303.178-.448l.184-.434a6.792 6.792 0 0 0 .846.22c.165.033.333.06.507.08.173.02.341.029.504.029.254 0 .484-.034.69-.102.207-.068.382-.17.527-.306a1.34 1.34 0 0 0 .333-.504c.076-.2.115-.429.115-.687v-1.488h-.126a3.86 3.86 0 0 1-.395.582 2.882 2.882 0 0 1-.493.478c-.18.136-.374.242-.582.32a1.912 1.912 0 0 1-.662.114c-.32 0-.599-.036-.836-.109a1.698 1.698 0 0 1-.609-.322 1.673 1.673 0 0 1-.414-.533 2.937 2.937 0 0 1-.248-.74 5.644 5.644 0 0 1-.091-.804c-.014-.285-.02-.579-.02-.881v-3.614h1.132v3.93c0 .284.013.551.04.8.026.247.084.462.174.644.09.182.223.325.398.428.176.103.415.155.718.155.223 0 .434-.054.631-.162.198-.107.38-.244.546-.41a3.91 3.91 0 0 0 .458-.554c.138-.202.264-.4.379-.592v-4.239h1.132Z" fill="#FFF" mask="url(#d)"/><path fill="#9E2544" mask="url(#d)" d="M201.969 4.078 210 26.145l-15.094 17.99-23.127-4.079-8.032-22.067L178.842 0l23.126 4.078z"/><path fill="#E43366" mask="url(#d)" d="M201.969 4.078 210 26.145l-23.127-4.078L178.842 0l23.126 4.078z"/><path fill="#E43366" mask="url(#d)" d="m201.967 4.078-15.094 17.989-23.126-4.077L178.84 0z"/><path fill="#D3245E" mask="url(#d)" d="m201.968 4.078 8.031 22.067-15.094 17.99-8.032-22.068 15.094-17.988z"/><path d="M178.401 8.973c-.14.015-.294.024-.446.048-.532.084-1.035.222-1.36.71-.076.114-.178.212-.267.32-.522.623-1.047 1.244-1.563 1.873-.214.26-.193.438.06.662.08.072.174.137.272.182.489.226.999.284 1.524.165.977-.224 1.743-.783 2.386-1.526.34-.394.668-.8.81-1.318.105-.382-.028-.7-.378-.887-.32-.171-.677-.178-1.038-.229m.141-1.47c.365-.09.71-.192 1.067-.228.697-.07 1.385-.012 2.026.28.88.4 1.229 1.147 1.018 2.093-.164.735-.56 1.353-1.029 1.921-.57.69-1.197 1.332-1.928 1.858-1.091.784-2.29 1.317-3.643 1.43-.65.054-1.303.026-1.944-.143a1.437 1.437 0 0 1-.896-.66c-.071-.115-.136-.13-.206-.022-.178.277-.43.245-.7.193a79.566 79.566 0 0 0-1.666-.302c-.189-.033-.219-.082-.092-.244.486-.624 1.009-1.22 1.516-1.827.995-1.194 1.99-2.388 2.988-3.58.98-1.167 1.964-2.331 2.945-3.5a.586.586 0 0 1 .397-.204c.822-.111 1.643-.227 2.464-.34.077-.01.18-.047.227.028.059.094-.046.155-.1.219-.777.935-1.557 1.87-2.334 2.807-.046.054-.112.099-.11.221M188.653 10.615c-.825.041-1.522.297-2.125.792-.05.04-.121.08-.103.155.018.075.102.078.163.09.366.07.733.135 1.1.198.684.119 1.367.235 2.05.351.09.016.185.021.244-.06.29-.4.34-.992-.205-1.28-.368-.193-.774-.203-1.124-.246m.764-1.635c.675-.056 1.317.06 1.946.246.54.161 1.003.437 1.324.923.25.377.262.788.19 1.206-.106.62-.462 1.12-.836 1.601-.306.394-.64.763-.996 1.114a.382.382 0 0 1-.374.115c-1.493-.269-2.986-.538-4.482-.786-.345-.057-.685-.158-1.04-.164-.168-.003-.272.061-.349.209-.342.655-.04 1.16.606 1.371.808.264 1.612.156 2.397-.116.528-.182.523-.194.7.33.073.216.146.431.226.644.065.175.027.294-.155.368-.836.34-1.698.562-2.604.589-.75.021-1.496-.012-2.224-.224-.637-.185-1.213-.463-1.54-1.08-.337-.636-.213-1.28.073-1.884.495-1.044 1.258-1.886 2.142-2.617a8.172 8.172 0 0 1 3.46-1.71c.51-.114 1.025-.182 1.536-.135" fill="#FFE6F0" mask="url(#d)"/><path d="M199.161 30.054c-.086-.772-.265-1.52-.613-2.22a1.547 1.547 0 0 0-.35-.492c-.252-.22-.459-.223-.696.012-.224.222-.334.504-.39.81-.128.694.082 1.326.362 1.944.135.296.327.548.6.732.35.238.449.223.715-.113.083-.103.163-.208.251-.307a.44.44 0 0 0 .121-.366m4.08-3.35c.072 1.602-.58 2.882-1.544 4.032-1.278 1.527-2.569 3.042-3.854 4.562l-.015.018c-.077.074-.126.213-.241.2-.129-.014-.122-.166-.158-.263-.208-.556-.405-1.117-.615-1.672-.086-.227-.107-.416.085-.618.2-.21.173-.221-.073-.362-.518-.297-.834-.77-1.053-1.307-.633-1.554-.695-3.13-.136-4.717a4.597 4.597 0 0 1 1.444-2.042c.742-.612 1.59-.464 2.25.388.577.747.87 1.616 1.055 2.53.059.292.084.587.127.88.009.066-.016.161.066.185.077.024.123-.056.167-.107.342-.39.576-.836.656-1.352.123-.798-.154-1.507-.498-2.2-.273-.552-.665-1.001-1.185-1.33-.155-.097-.192-.2-.114-.367.288-.624.57-1.251.853-1.878.075-.168.18-.19.333-.095.412.256.752.588 1.027.98a8.108 8.108 0 0 1 1.379 3.551c.049.343.05.685.043.983M192.783 22.386c-.017-1.122.459-2.04 1.158-2.87 1.053-1.246 2.103-2.494 3.16-3.737.158-.186.207-.36.104-.594-.113-.256-.19-.529-.287-.793-.044-.12-.041-.223.041-.328.388-.5.8-.98 1.221-1.451.117-.131.176-.041.216.063.108.276.205.557.313.834.088.223.113.222.268.04.494-.584.992-1.164 1.483-1.75.137-.164.243-.191.417-.028.409.385.838.749 1.263 1.116.155.134.163.234.019.402-.758.882-1.494 1.782-2.252 2.664-.163.19-.178.362-.098.577.181.483.346.973.535 1.452.086.22.048.386-.101.556-.366.416-.722.84-1.084 1.26-.144.169-.205.16-.283-.051-.18-.483-.354-.969-.535-1.452-.113-.3-.148-.308-.351-.07a298.74 298.74 0 0 0-2.966 3.533c-.31.378-.37.795-.175 1.25.153.356.348.683.632.948.129.12.124.204-.007.322-.406.365-.808.735-1.201 1.114-.16.152-.268.104-.386-.04-.712-.86-1.087-1.847-1.104-2.967" fill="#CC7D9D" mask="url(#d)"/></g></svg>