<svg width="207" height="63" xmlns="http://www.w3.org/2000/svg" xmlns:xlink="http://www.w3.org/1999/xlink"><defs><path id="a" d="M0 0h13.417v18.136H0z"/><path id="c" d="M0 63h207V0H0z"/></defs><g fill="none" fill-rule="evenodd"><g transform="translate(0 25.773)"><mask id="b" fill="#fff"><use xlink:href="#a"/></mask><path d="M6.61 0c.983 0 1.971.094 2.962.284.55.105 1.078.232 1.585.381.646.19.957.879.662 1.444l-.005.01c-.037.07-.073.139-.111.208-.253.461-.836.676-1.366.512a11.425 11.425 0 0 0-1.27-.32 17.175 17.175 0 0 0-1.242-.192c-.426-.05-.844-.075-1.252-.075-.444 0-.873.042-1.287.126-.415.083-.78.22-1.099.409a2.237 2.237 0 0 0-.765.742c-.192.306-.289.687-.289 1.143 0 .467.108.86.325 1.176.216.317.51.582.882.793.372.211.808.39 1.306.533.498.145 1.03.278 1.594.401.876.2 1.692.425 2.449.676a7.16 7.16 0 0 1 1.963.976c.552.4.984.895 1.296 1.485.312.59.469 1.318.469 2.185 0 .912-.196 1.697-.586 2.353a4.88 4.88 0 0 1-1.584 1.627c-.667.428-1.444.745-2.332.95a12.52 12.52 0 0 1-2.846.31c-.528 0-1.071-.031-1.63-.092-.558-.061-1.11-.15-1.657-.267a17.577 17.577 0 0 1-1.96-.54c-.633-.214-.936-.891-.632-1.448l.017-.031.103-.186c.26-.464.849-.676 1.38-.499a15.16 15.16 0 0 0 1.732.476c.468.1.93.181 1.386.242.457.061.895.092 1.315.092.528 0 1.042-.056 1.54-.167.498-.11.942-.286 1.333-.525.39-.24.702-.548.936-.926.234-.378.35-.834.35-1.369 0-.5-.11-.911-.332-1.234a2.732 2.732 0 0 0-.892-.81 5.554 5.554 0 0 0-1.305-.533 30.319 30.319 0 0 0-1.576-.393 26.225 26.225 0 0 1-2.386-.65 7.291 7.291 0 0 1-1.963-.96A4.48 4.48 0 0 1 .495 6.85C.165 6.265 0 5.54 0 4.672c0-.812.18-1.513.54-2.103a4.391 4.391 0 0 1 1.45-1.451C2.596.74 3.299.459 4.097.275A11.176 11.176 0 0 1 6.61 0" fill="#FFF" mask="url(#b)"/></g><path d="M21.51 28.137c-.63 0-.808.07-1.367.27-.559.202-1.048.553-1.47 1.056-.43.513-.774 1.2-1.028 2.059-.255.86-.382 1.964-.382 3.315 0 1.34.127 2.442.382 3.307.254.865.597 1.548 1.029 2.05.42.514.91.868 1.47 1.064.558.195.735.254 1.366.254.642 0 .886-.07 1.456-.266.57-.195 1.07-.55 1.502-1.063.431-.502.772-1.186 1.02-2.051.25-.865.374-1.967.374-3.307 0-1.35-.124-2.455-.373-3.315-.25-.86-.59-1.546-1.021-2.06-.432-.502-.932-.853-1.502-1.054-.57-.201-.814-.259-1.456-.259m0-2.364c.542 0 .745.003 1.331.087a7.11 7.11 0 0 1 1.727.477 6.66 6.66 0 0 1 1.6.996c.505.419.95.963 1.337 1.632.387.681.692 1.499.913 2.453.221.955.332 2.09.332 3.407 0 1.317-.11 2.453-.332 3.407-.221.955-.526 1.767-.913 2.436-.387.681-.832 1.234-1.336 1.658a6.124 6.124 0 0 1-1.601.987 6.68 6.68 0 0 1-1.727.495c-.586.083-.778.101-1.32.101-.531 0-.681-.006-1.262-.09a6.685 6.685 0 0 1-1.718-.494 6 6 0 0 1-1.593-.987c-.498-.425-.94-.977-1.328-1.658-.387-.67-.692-1.482-.913-2.436-.221-.954-.332-2.09-.332-3.407 0-1.317.11-2.453.332-3.407.221-.954.526-1.772.913-2.453.387-.67.83-1.214 1.328-1.632a6.501 6.501 0 0 1 1.593-.996 7.12 7.12 0 0 1 1.71-.478c.575-.083.717-.098 1.259-.098M44.988 41.78a1.177 1.177 0 0 1-.814 1.485c-.532.145-1.084.271-1.655.38-1 .19-1.515.264-2.408.264-1.355 0-2.146-.175-3.14-.565-.994-.39-1.816-.96-2.465-1.706-.65-.747-1.132-1.665-1.449-2.753-.315-1.087-.474-2.327-.474-3.721 0-1.517.195-2.86.585-4.032.39-1.17.954-2.155 1.694-2.952a7.164 7.164 0 0 1 2.71-1.815c1.068-.413 1.892-.592 3.248-.592.688 0 .962.042 1.673.182.313.061.628.13.945.205a1.18 1.18 0 0 1 .858 1.496l-.015.05c-.19.612-.838.953-1.466.79a14.633 14.633 0 0 0-.516-.124c-.503-.111-.601-.131-1.155-.131-1.92 0-3.016.513-4.054 1.611-1.04 1.099-1.56 2.758-1.56 4.977 0 1.037.077 1.965.23 2.785.152.82.423 1.517.813 2.091a3.71 3.71 0 0 0 1.592 1.313c.672.301 1.158.423 2.197.423.678 0 .965-.057 1.75-.23.449-.099.913-.211 1.393-.337a1.197 1.197 0 0 1 1.448.793l.035.113Zm31.474-24.598h-2.345c-.709 0-1.284.587-1.284 1.384 0 .775.548 1.267 1.232 1.3h.004c.614 0 1.113.563 1.107 1.253l.002 21.348c0 .797.575 1.442 1.284 1.442.71 0 1.163-.51 1.163-1.306V18.702c0-.797-.453-1.52-1.163-1.52M65.735 41.118c-.987.242-2.523.339-3.52.339-1.93 0-2.895-.89-2.895-2.67 0-.99.335-1.75 1.006-2.277.671-.529 1.617-.915 2.837-1.16.82-.167 1.719-.25 2.695-.25h.088c.677 0 1.226.551 1.226 1.23v.52h.004v3.168c-.109.92-.758.932-1.441 1.1m4.215-6.612v-4.312c0-1.657-.538-2.83-1.614-3.52-.942-.601-2.307-.901-4.092-.901-1.621 0-3.187.235-4.696.706a1.239 1.239 0 0 0-.802 1.554 1.233 1.233 0 0 0 1.53.81c1.386-.412 2.675-.617 3.868-.617 1.043 0 1.808.177 2.296.533.488.356.732.935.732 1.735v1.267c0 .686-.56 1.243-1.243 1.237h-.188c-2.673 0-4.752.406-6.238 1.217-.943.512-1.672 1.14-2.188 1.886-.515.745-.773 1.701-.773 2.87 0 1.568.471 2.783 1.414 3.645.942.862 2.19 1.293 3.743 1.293 1.491 0 3.751-.21 5.43-.935.122-.053.195-.032.263.016.246.403.678.673 1.175.673.768 0 1.391-.642 1.391-1.435v-7.636c0-.03-.006-.057-.008-.086m-18.388-8.733h-2.355c-.713 0-1.29.429-1.29 1.243 0 .793.552 1.32 1.238 1.353h.003c.617 0 1.118.576 1.112 1.281l.002 12.786c0 .813.578 1.473 1.29 1.473.712 0 1.146-.66 1.146-1.473v-15.42c0-.814-.434-1.243-1.146-1.243m.213-2.863c.513 0 .96-.19 1.34-.568.367-.366.552-.817.552-1.35a1.93 1.93 0 0 0-.553-1.368 1.893 1.893 0 0 0-1.339-.533c-.536 0-.993.178-1.372.533a1.86 1.86 0 0 0-.57 1.368c0 .544.19.994.57 1.35.379.378.836.567 1.372.567m33.517 7.609V18.827c0-.27-.006-.542.022-.81.055-.508.304-.782.83-.788a211.81 211.81 0 0 1 5.367 0c.532.007.787.305.803.856.023.763.013 1.527.014 2.29.003 1.559-.007 3.118.017 4.676.004.263.152.524.233.786.225-.171.505-.305.664-.52 1.713-2.315 3.431-4.628 5.092-6.977.57-.806 1.222-1.2 2.274-1.155 1.585.07 3.177.018 4.765.019.2 0 .402-.003.602.006.826.035 1.041.43.566 1.089-.51.708-1.05 1.397-1.583 2.09-1.747 2.272-3.483 4.552-5.252 6.81-.46.587-.505 1.087-.104 1.735 2.78 4.479 5.526 8.976 8.286 13.466.7 1.14.531 1.475-.84 1.495-1.805.026-3.613-.015-5.418.014-.895.014-1.443-.347-1.869-1.088-1.509-2.622-3.068-5.22-4.608-7.826-.033-.056-.064-.112-.099-.166-.404-.636-.666-.653-1.15-.076-.032.037-.06.076-.09.115-1.724 2.253-1.463 1.562-1.484 4.261-.009 1.225.004 2.45-.006 3.674-.007.793-.232 1.048-1.066 1.066-1.571.034-3.144.043-4.714.014-1.053-.02-1.248-.244-1.249-1.245-.004-4.04-.002-8.08-.002-12.12h-.001Zm47.917-.477c.037-1.953-.01-3.909.425-5.84 1.088-4.83 4.644-7.746 9.746-7.957 2.09-.086 4.126.134 6.009 1.093 2.82 1.437 4.252 3.836 4.864 6.772.147.706-.154 1.035-.903 1.045-1.5.02-3.002.002-4.503.009-.682.002-1.025-.365-1.266-.946-.814-1.956-2.736-2.786-4.767-2.084-1.14.394-1.79 1.248-2.122 2.317-.227.73-.431 1.501-.442 2.257-.036 2.418-.034 4.84.07 7.256.055 1.257.46 2.462 1.448 3.388 1.744 1.632 4.902.958 5.757-1.232.42-1.073.502-1.13 1.697-1.13 1.353-.002 2.706-.007 4.058.004.84.007 1.133.316.967 1.112-.961 4.617-3.629 7.279-8.475 7.725-2.104.193-4.191.062-6.183-.72-3.136-1.234-4.949-3.563-5.82-6.667-.534-1.91-.54-3.868-.56-5.825-.002-.192 0-.384 0-.577m-9.053 8.373c0 1.448.005 2.897-.002 4.345-.004.86-.21 1.108-1.076 1.126-1.56.032-3.122.032-4.683 0-.837-.016-1.058-.285-1.06-1.149-.008-2.53-.052-5.062.015-7.591.035-1.303-.267-2.446-.89-3.594-2.328-4.287-4.59-8.607-6.872-12.917-.612-1.157-.437-1.437.884-1.44 1.708-.002 3.416.026 5.124-.01.804-.017 1.263.329 1.575 1.018a506.259 506.259 0 0 0 3.034 6.57c.119.251.363.447.549.67.187-.226.431-.426.552-.682a359.29 359.29 0 0 0 3.015-6.525c.33-.74.81-1.071 1.648-1.052 1.723.038 3.448.01 5.172.013.195 0 .394 0 .583.037.51.1.664.454.396.992-.45.902-.924 1.79-1.396 2.68-2.067 3.9-4.148 7.792-6.19 11.704-.234.448-.342 1-.359 1.508-.047 1.431-.016 2.865-.016 4.297h-.003ZM4.656 57.235v-3.032a3.798 3.798 0 0 0-1.138-.195c-.295 0-.55.064-.763.192-.213.128-.38.309-.5.541-.12.233-.208.493-.263.78a5.147 5.147 0 0 0-.082.964c0 .244.005.458.014.642.009.185.025.385.049.6.024.215.061.4.112.551.051.152.115.294.192.424a.78.78 0 0 0 .298.297.864.864 0 0 0 .424.101c.386 0 .722-.185 1.006-.554.204-.27.421-.706.651-1.311Zm0-6.644h.94v6.826c0 .765.01 1.268.028 1.507.018.296.06.613.126.952l-.908.241a5.599 5.599 0 0 1-.137-.737 7.786 7.786 0 0 1-.06-.704h-.082c-.19.47-.4.815-.629 1.036-.277.283-.62.424-1.028.424-.358 0-.666-.092-.925-.276a1.81 1.81 0 0 1-.604-.773 4.683 4.683 0 0 1-.317-1.089 7.808 7.808 0 0 1-.102-1.31c0-.54.047-1.024.14-1.454.093-.431.236-.812.43-1.145a2.02 2.02 0 0 1 .776-.77c.325-.18.706-.27 1.143-.27.343 0 .746.055 1.209.163v-2.621Zm6.708 5.667c-.034-.664-.197-1.149-.49-1.455-.294-.305-.712-.458-1.256-.458s-.958.153-1.243.458c-.285.306-.457.79-.516 1.455h3.505Zm.74 3.374c-.468.18-.908.31-1.32.388-.41.077-.778.116-1.103.116-.497 0-.932-.076-1.303-.23a2.49 2.49 0 0 1-.927-.648 2.764 2.764 0 0 1-.556-1 4.186 4.186 0 0 1-.187-1.281c0-.287.021-.574.063-.861.043-.287.11-.56.203-.82.093-.26.214-.504.364-.73a2.397 2.397 0 0 1 1.3-.97c.286-.095.613-.141.98-.141.94 0 1.649.285 2.126.857.476.571.714 1.39.714 2.456v.337h-4.63c0 .345.038.65.114.914.076.264.193.487.35.67.16.182.36.32.602.414.242.095.53.142.863.142.185 0 .37-.013.554-.04.183-.026.361-.061.534-.105a6.46 6.46 0 0 0 .497-.144c.158-.053.307-.105.446-.154l.316.83Zm7.063.129a6.96 6.96 0 0 1-.996.27 5.16 5.16 0 0 1-1.002.105c-.479 0-.893-.071-1.244-.215a2.19 2.19 0 0 1-.871-.627c-.23-.275-.4-.612-.511-1.011a5.097 5.097 0 0 1-.168-1.368c0-.557.069-1.05.206-1.482a2.96 2.96 0 0 1 .599-1.084c.26-.293.58-.516.957-.667a3.414 3.414 0 0 1 1.283-.227c.243 0 .49.025.741.076.252.051.507.116.766.194l-.257.86a6.18 6.18 0 0 0-.577-.166 2.491 2.491 0 0 0-.56-.061c-.678 0-1.2.202-1.567.606-.367.403-.55 1.013-.55 1.828 0 .381.027.723.08 1.024.055.3.15.557.288.768.138.212.325.372.562.483.237.11.54.166.906.166.24 0 .498-.032.775-.096.277-.063.571-.142.883-.237l.257.861Zm6.573-3.503c-.035-.664-.198-1.149-.491-1.455-.294-.305-.712-.458-1.256-.458s-.958.153-1.243.458c-.285.306-.457.79-.516 1.455h3.505Zm.739 3.374c-.468.18-.908.31-1.32.388-.41.077-.778.116-1.103.116-.497 0-.932-.076-1.303-.23a2.49 2.49 0 0 1-.927-.648 2.764 2.764 0 0 1-.556-1 4.186 4.186 0 0 1-.187-1.281c0-.287.021-.574.063-.861.043-.287.11-.56.203-.82.093-.26.214-.504.364-.73a2.397 2.397 0 0 1 1.3-.97c.286-.095.613-.141.98-.141.94 0 1.649.285 2.126.857.476.571.714 1.39.714 2.456v.337h-4.63c0 .345.038.65.114.914.076.264.193.487.35.67.16.182.36.32.602.414.242.095.53.142.863.142.185 0 .37-.013.554-.04.183-.026.361-.061.534-.105a6.46 6.46 0 0 0 .497-.144c.158-.053.307-.105.446-.154l.316.83Zm1.313-5.92 1.079-.232c.082.251.14.494.175.73.017.112.039.336.065.671h.136a3.08 3.08 0 0 1 .884-1.012 2.057 2.057 0 0 1 1.221-.414c.646 0 1.137.15 1.475.452.29.256.491.648.604 1.176.074.36.11.896.11 1.609v3.444h-1.117V56.39c0-.625-.063-1.07-.189-1.34-.186-.397-.56-.596-1.123-.596-.399 0-.789.184-1.17.553-.255.247-.528.61-.818 1.088v4.041h-1.118v-4.023c0-.565-.015-1.054-.045-1.464a5.286 5.286 0 0 0-.17-.937m8.737-2.167h1.226v1.57h2.496v.958h-2.496v3.939c0 .264.009.465.025.604a.605.605 0 0 0 .125.326c.124.158.373.238.749.238.209 0 .41-.02.606-.06.2-.04.382-.083.549-.132.133.269.254.564.363.885a5.651 5.651 0 0 1-1.696.263c-.414 0-.746-.042-.996-.128a1.188 1.188 0 0 1-.588-.42 1.687 1.687 0 0 1-.292-.725 7.428 7.428 0 0 1-.071-1.168v-3.622h-1.07v-.957h1.07v-1.57Zm5.346 3.569c.15-.26.312-.495.484-.704.172-.21.364-.388.572-.534.19-.143.398-.249.626-.318.229-.07.488-.103.78-.103a3.703 3.703 0 0 1 .706.056c-.02.21-.043.406-.07.59a6.651 6.651 0 0 1-.105.56 9.258 9.258 0 0 0-.666-.082 2.62 2.62 0 0 0-.572.013c-.214.034-.4.095-.557.185-.158.09-.304.21-.437.359a3.57 3.57 0 0 0-.39.534c-.126.208-.264.445-.414.714v3.752h-1.253v-4.03a18.7 18.7 0 0 0-.011-.697 6.842 6.842 0 0 0-.044-.575 4.422 4.422 0 0 0-.098-.54 7.494 7.494 0 0 0-.175-.594 23.931 23.931 0 0 1 1.201-.234c.068.169.123.317.164.447a3.474 3.474 0 0 1 .154.758l.04.443h.065Zm7.776 3.08v-1.291a6.168 6.168 0 0 0-.452-.012c-.335 0-.643.03-.925.092-.42.09-.744.233-.974.427-.23.195-.345.474-.345.84 0 .655.33.983.993.983.343 0 .663-.099.96-.295.243-.164.491-.412.742-.744m-2.764-3.467-.25-.86a5.046 5.046 0 0 1 2.01-.412c.612 0 1.08.11 1.404.331.37.255.554.687.554 1.298v2.514c0 .336.004.68.011 1.032.004.21.023.426.058.652.03.213.07.416.12.608l-.937.222a3.901 3.901 0 0 1-.166-.922l-.114-.013c-.472.64-1.074.96-1.805.96-.533 0-.961-.16-1.285-.477-.323-.318-.485-.766-.485-1.343 0-.43.088-.783.266-1.057.176-.275.427-.506.75-.695.51-.3 1.224-.449 2.142-.449.122 0 .286.004.491.013v-.935c0-.295-.084-.508-.25-.64-.168-.13-.431-.196-.79-.196-.52 0-1.096.123-1.724.369m7.431 2.638a16.214 16.214 0 0 0 .065 1.54c.02.183.049.35.09.497.04.15.091.313.154.492a33.52 33.52 0 0 1-.785.134c-.262.042-.524.078-.786.108a4.259 4.259 0 0 1-.266-.78 3.17 3.17 0 0 1-.08-.694v-8.071h1.608v6.774Z" fill="#FFF"/><mask id="d" fill="#fff"><use xlink:href="#c"/></mask><path d="M56.776 60.136h1.44v-6.88h-1.44v6.88Zm.737-9.545c.256 0 .48.07.67.211.183.155.275.335.275.542a.663.663 0 0 1-.276.537 1.05 1.05 0 0 1-.67.224c-.267 0-.496-.075-.686-.224a.644.644 0 0 1-.284-.537c0-.211.094-.392.284-.542.19-.14.419-.211.687-.211Zm3.66 3.988c-.174 0-.334-.003-.478-.007a5.087 5.087 0 0 1-.42-.028 3.264 3.264 0 0 1-.408-.071 4.323 4.323 0 0 1-.45-.137c.055-.149.109-.294.163-.434.053-.14.107-.29.162-.447.17.053.322.095.454.124a3.964 3.964 0 0 0 .786.093c.136.004.298.006.486.006h2.683v.745l-3.335 4.813h3.392v.9h-4.766v-.751l3.329-4.806h-1.598Zm9.607 1.679c-.033-.664-.197-1.149-.49-1.455-.293-.305-.712-.458-1.255-.458-.544 0-.959.153-1.243.458-.285.306-.457.79-.516 1.455h3.505Zm.74 3.374c-.468.18-.907.31-1.318.388-.411.077-.78.116-1.104.116-.498 0-.932-.076-1.303-.23a2.49 2.49 0 0 1-.927-.648 2.764 2.764 0 0 1-.557-1 4.186 4.186 0 0 1-.186-1.281c0-.287.02-.574.063-.861.043-.287.11-.56.203-.82a3.32 3.32 0 0 1 .364-.73 2.397 2.397 0 0 1 1.3-.97c.286-.095.613-.141.98-.141.94 0 1.649.285 2.125.857.476.571.715 1.39.715 2.456v.337h-4.63c0 .345.037.65.113.914.076.264.193.487.351.67.159.182.359.32.601.414.243.095.53.142.864.142.185 0 .37-.013.554-.04.182-.026.36-.061.534-.105a6.46 6.46 0 0 0 .496-.144c.159-.053.307-.105.446-.154l.317.83Zm5.011-2.397v-3.032a3.798 3.798 0 0 0-1.138-.195c-.295 0-.55.064-.763.192-.213.128-.38.309-.5.541-.12.233-.208.493-.263.78a5.147 5.147 0 0 0-.082.964c0 .244.005.458.014.642.009.185.025.385.049.6.024.215.061.4.112.551.051.152.115.294.192.424a.78.78 0 0 0 .298.297.864.864 0 0 0 .424.101c.386 0 .722-.185 1.006-.554.204-.27.421-.706.651-1.311Zm0-6.644h.94v6.826c0 .765.01 1.268.028 1.507.018.296.06.613.126.952l-.908.241a5.6 5.6 0 0 1-.137-.737 7.786 7.786 0 0 1-.06-.704h-.082c-.19.47-.4.815-.629 1.036-.277.283-.62.424-1.028.424-.358 0-.666-.092-.925-.276a1.81 1.81 0 0 1-.604-.773 4.683 4.683 0 0 1-.317-1.089 7.808 7.808 0 0 1-.102-1.31c0-.54.047-1.024.14-1.454.093-.431.236-.812.43-1.145a2.02 2.02 0 0 1 .776-.77c.325-.18.706-.27 1.143-.27.343 0 .746.055 1.209.163v-2.621Zm68.177 2.864-2.157 6.681h-1.435l-2.158-6.681h1.16l1.715 5.833 1.715-5.833zm5.614 2.803c-.034-.664-.197-1.149-.49-1.455-.293-.305-.712-.458-1.255-.458-.545 0-.96.153-1.244.458-.284.306-.456.79-.516 1.455h3.505Zm.74 3.374a7.68 7.68 0 0 1-1.319.388c-.41.077-.779.116-1.104.116-.497 0-.931-.076-1.302-.23a2.49 2.49 0 0 1-.927-.648 2.764 2.764 0 0 1-.557-1 4.186 4.186 0 0 1-.186-1.281c0-.287.02-.574.062-.861.043-.287.11-.56.203-.82.093-.26.214-.504.364-.73a2.397 2.397 0 0 1 1.3-.97c.287-.095.613-.141.98-.141.94 0 1.65.285 2.126.857.476.571.715 1.39.715 2.456v.337h-4.63c0 .345.037.65.113.914.076.264.193.487.35.67.16.182.36.32.602.414.243.095.53.142.863.142.186 0 .37-.013.554-.04.183-.026.362-.061.534-.105a6.46 6.46 0 0 0 .497-.144c.158-.053.307-.105.446-.154l.316.83Zm3.895-4.518c.151-.26.312-.495.484-.704a2.9 2.9 0 0 1 .572-.534c.19-.143.398-.249.626-.318a2.67 2.67 0 0 1 .78-.103c.097 0 .21.003.338.011.129.01.252.024.368.045-.02.21-.043.406-.07.59a6.862 6.862 0 0 1-.104.56 9.258 9.258 0 0 0-.667-.082 2.62 2.62 0 0 0-.572.013 1.64 1.64 0 0 0-.557.185c-.158.09-.303.21-.437.359a3.57 3.57 0 0 0-.39.534c-.126.208-.264.445-.414.714v3.752h-1.253v-4.03c0-.263-.003-.495-.01-.697a6.842 6.842 0 0 0-.045-.575 4.422 4.422 0 0 0-.098-.54 7.494 7.494 0 0 0-.175-.594 24.017 24.017 0 0 1 1.202-.234c.068.169.123.317.164.447a3.474 3.474 0 0 1 .153.758l.04.443h.065Zm3.403 5.022h1.44v-6.88h-1.44v6.88Zm.736-9.545c.257 0 .48.07.67.211.183.155.276.335.276.542a.665.665 0 0 1-.276.537 1.05 1.05 0 0 1-.67.224 1.08 1.08 0 0 1-.687-.224.644.644 0 0 1-.284-.537c0-.211.095-.392.284-.542.19-.14.42-.211.687-.211Zm9.36 1.463a.718.718 0 0 1-.204-.524c0-.208.068-.384.204-.531a.666.666 0 0 1 .492-.207c.183 0 .343.069.48.207a.784.784 0 0 1 .197.53.746.746 0 0 1-.198.525.648.648 0 0 1-.972 0Zm-4.412 1.347h5.407v6.735h-1.03v-5.795h-4.377v4.856h2.003v.94h-4.089v-.94h1.044v-4.856h-1.044v-.94h1.044v-.731c0-.32.028-.597.083-.83.056-.232.154-.448.294-.647.14-.199.345-.348.615-.45.27-.101.602-.152.998-.152.515 0 1.128.093 1.84.279l-.186.913c-.671-.152-1.183-.227-1.534-.227-.172 0-.318.01-.435.029a.691.691 0 0 0-.297.116.783.783 0 0 0-.186.185.746.746 0 0 0-.099.291 3.12 3.12 0 0 0-.042.37c-.005.116-.009.278-.009.485v.37Zm12.289 6.36c-.31.111-.643.201-.995.27-.354.07-.688.105-1.003.105-.478 0-.893-.071-1.244-.215a2.19 2.19 0 0 1-.87-.627 2.68 2.68 0 0 1-.512-1.011 5.097 5.097 0 0 1-.167-1.368c0-.557.068-1.05.206-1.482a2.96 2.96 0 0 1 .598-1.084c.261-.293.58-.516.957-.667a3.414 3.414 0 0 1 1.284-.227c.243 0 .49.025.741.076.252.051.507.116.766.194l-.257.86a6.18 6.18 0 0 0-.577-.166 2.491 2.491 0 0 0-.56-.061c-.678 0-1.2.202-1.567.606-.367.403-.55 1.013-.55 1.828 0 .381.027.723.08 1.024.054.3.15.557.287.768.138.212.326.372.563.483.237.11.54.166.906.166.24 0 .498-.032.775-.096.277-.063.571-.142.882-.237l.257.861Zm4.608-1.567v-1.291a6.168 6.168 0 0 0-.451-.012c-.335 0-.644.03-.925.092-.42.09-.744.233-.974.427-.23.195-.346.474-.346.84 0 .655.331.983.994.983.342 0 .662-.099.96-.295.243-.164.49-.412.742-.744m-2.764-3.467-.251-.86a5.046 5.046 0 0 1 2.01-.412c.613 0 1.08.11 1.404.331.37.255.555.687.555 1.298v2.514c0 .336.003.68.01 1.032.005.21.024.426.058.652.03.213.07.416.12.608l-.936.222a3.88 3.88 0 0 1-.166-.922l-.115-.013c-.471.64-1.073.96-1.804.96-.533 0-.961-.16-1.285-.477-.324-.318-.485-.766-.485-1.343 0-.43.088-.783.265-1.057.177-.275.427-.506.75-.695.511-.3 1.225-.449 2.143-.449.121 0 .286.004.491.013v-.935c0-.295-.084-.508-.251-.64-.168-.13-.43-.196-.789-.196-.521 0-1.096.123-1.724.369m6.893-3.182h1.226v1.57h2.496v.958h-2.496v3.939c0 .264.008.465.025.604a.605.605 0 0 0 .125.326c.123.158.373.238.748.238.21 0 .412-.02.606-.06.2-.04.383-.083.55-.132.132.269.254.564.363.885a5.651 5.651 0 0 1-1.696.263c-.415 0-.746-.042-.996-.128a1.188 1.188 0 0 1-.588-.42 1.687 1.687 0 0 1-.292-.725 7.428 7.428 0 0 1-.071-1.168v-3.622H184v-.957h1.07v-1.57Zm5.873 8.591h1.44v-6.88h-1.44v6.88Zm.737-9.545c.256 0 .479.07.669.211.184.155.276.335.276.542a.663.663 0 0 1-.276.537 1.05 1.05 0 0 1-.67.224c-.267 0-.496-.075-.686-.224a.644.644 0 0 1-.285-.537c0-.211.095-.392.285-.542.19-.14.419-.211.687-.211Zm4.769 3.73c-.24 0-.465.037-.677.111a1.303 1.303 0 0 0-.558.387c-.163.189-.293.44-.39.756-.096.316-.145.722-.145 1.217 0 .492.049.897.145 1.214.097.318.227.57.39.753.16.189.346.32.558.39.212.073.438.109.677.109.243 0 .473-.036.69-.109a1.27 1.27 0 0 0 .57-.39c.163-.184.292-.435.387-.753.094-.317.141-.722.141-1.214 0-.495-.047-.901-.141-1.217-.095-.315-.224-.567-.388-.756a1.335 1.335 0 0 0-.57-.387 2.124 2.124 0 0 0-.69-.11m0-.867c.206 0 .42.015.643.046.223.03.44.089.656.175.213.09.416.212.607.366.19.153.36.353.507.6.147.249.262.549.347.9.083.35.125.767.125 1.25 0 .484-.042.9-.125 1.251a3.2 3.2 0 0 1-.347.895 2.246 2.246 0 0 1-1.114.97 2.547 2.547 0 0 1-.656.182 4.537 4.537 0 0 1-1.275 0 2.613 2.613 0 0 1-1.257-.544 2.277 2.277 0 0 1-.503-.608 3.187 3.187 0 0 1-.346-.895 5.4 5.4 0 0 1-.127-1.25c0-.484.042-.901.127-1.251.084-.351.199-.651.346-.9a2.25 2.25 0 0 1 .503-.6c.19-.154.391-.276.605-.366.215-.086.43-.145.649-.175.218-.031.43-.046.636-.046m4.801.257 1.079-.232c.082.251.14.494.175.73.017.112.04.336.065.671h.136c.239-.423.534-.76.884-1.012.386-.277.793-.414 1.221-.414.646 0 1.137.15 1.475.452.29.256.492.648.604 1.176.074.36.111.896.111 1.609v3.444h-1.118V56.39c0-.625-.063-1.07-.188-1.34-.186-.397-.561-.596-1.124-.596-.398 0-.788.184-1.17.553-.255.247-.528.61-.818 1.088v4.041h-1.117v-4.023c0-.565-.015-1.054-.046-1.464a5.286 5.286 0 0 0-.169-.937M85.526 60.136h1.44v-6.88h-1.44v6.88Zm.737-9.545c.256 0 .479.07.67.212.183.154.275.334.275.542 0 .211-.092.39-.276.536-.19.15-.413.225-.67.225a1.08 1.08 0 0 1-.686-.225.642.642 0 0 1-.284-.536c0-.212.094-.393.284-.542.19-.142.419-.212.687-.212Zm6.341 6.644v-3.032a5.385 5.385 0 0 0-1.365-.196c-.355 0-.66.065-.916.193a1.453 1.453 0 0 0-.6.541c-.145.233-.25.492-.316.78a4.312 4.312 0 0 0-.098.964c0 .244.005.458.017.642.01.185.03.385.058.6.028.215.074.399.135.55.061.153.137.295.23.425.091.13.21.23.357.296a1.2 1.2 0 0 0 .51.102c.463 0 .866-.185 1.207-.555.245-.27.505-.706.78-1.31Zm0-6.644h1.129v6.826c0 .766.01 1.268.033 1.507.022.295.072.613.15.952l-1.089.241a4.786 4.786 0 0 1-.164-.737 6.44 6.44 0 0 1-.072-.704h-.099c-.227.47-.479.815-.755 1.036-.332.283-.744.424-1.234.424-.428 0-.798-.092-1.11-.277a1.904 1.904 0 0 1-.724-.773c-.173-.33-.3-.693-.38-1.088a6.508 6.508 0 0 1-.122-1.311c0-.539.056-1.023.167-1.454.112-.43.284-.811.515-1.144.233-.332.543-.589.932-.77.39-.18.847-.27 1.372-.27.412 0 .895.055 1.45.163v-2.621Zm7.886 5.667c-.035-.664-.198-1.149-.491-1.454-.293-.306-.712-.458-1.256-.458s-.958.152-1.243.458c-.285.305-.456.79-.516 1.454h3.505Zm.74 3.374c-.469.18-.908.31-1.32.388a6.02 6.02 0 0 1-1.104.116c-.497 0-.931-.077-1.303-.23a2.491 2.491 0 0 1-.926-.648 2.753 2.753 0 0 1-.557-1 4.176 4.176 0 0 1-.187-1.281c0-.287.021-.574.063-.86.043-.288.11-.561.203-.821a3.37 3.37 0 0 1 .364-.729 2.41 2.41 0 0 1 1.3-.971 3.14 3.14 0 0 1 .98-.141c.94 0 1.649.285 2.126.857.476.572.714 1.39.714 2.456v.338h-4.63c0 .344.038.648.114.912.076.265.193.488.35.67.16.183.359.321.602.416.242.094.53.14.863.14.186 0 .37-.012.554-.039a6.056 6.056 0 0 0 1.031-.249c.158-.053.307-.105.446-.154l.316.83Zm2.27-5.92 1.079-.232c.082.251.14.494.175.729.017.113.04.337.065.672h.136a3.08 3.08 0 0 1 .884-1.012 2.057 2.057 0 0 1 1.221-.414c.646 0 1.137.15 1.475.452.29.255.492.647.604 1.175.074.361.111.897.111 1.61v3.444h-1.117V56.39c0-.625-.064-1.07-.19-1.34-.186-.397-.56-.596-1.123-.596-.399 0-.788.184-1.17.553-.255.248-.528.61-.818 1.088v4.041h-1.117v-4.023c0-.565-.016-1.054-.046-1.465a5.294 5.294 0 0 0-.169-.936m7.778-2.167h1.226v1.57H115v.958h-2.496v3.94c0 .263.009.464.025.603a.606.606 0 0 0 .125.326c.124.158.374.237.749.237.209 0 .41-.02.606-.059.2-.04.382-.083.549-.132.133.269.254.564.363.884a5.633 5.633 0 0 1-1.696.264c-.414 0-.746-.042-.996-.128a1.191 1.191 0 0 1-.588-.42 1.69 1.69 0 0 1-.292-.725 7.435 7.435 0 0 1-.071-1.168v-3.622h-1.07v-.957h1.07v-1.57Zm5.873 8.591h1.44v-6.88h-1.44v6.88Zm.737-9.545c.256 0 .48.07.67.212.183.154.275.334.275.542 0 .211-.092.39-.276.536a1.05 1.05 0 0 1-.67.225 1.08 1.08 0 0 1-.686-.225.644.644 0 0 1-.284-.536c0-.212.094-.393.284-.542.19-.142.419-.212.687-.212Zm2.973.954h1.227v1.57h2.495v.958h-2.495v3.94c0 .263.008.464.024.603a.606.606 0 0 0 .126.326c.123.158.373.237.748.237.21 0 .411-.02.606-.059.2-.04.383-.083.55-.132.132.269.253.564.363.884a5.633 5.633 0 0 1-1.697.264c-.414 0-.745-.042-.995-.128a1.191 1.191 0 0 1-.588-.42 1.69 1.69 0 0 1-.292-.725 7.435 7.435 0 0 1-.072-1.168v-3.622h-1.07v-.957h1.07v-1.57Zm10.431 1.91v7.022c0 .436-.061.812-.183 1.129-.122.317-.29.58-.506.786-.216.207-.472.36-.768.46a3.036 3.036 0 0 1-.967.148c-.315 0-.632-.032-.95-.096a5.3 5.3 0 0 1-.912-.268c.049-.154.1-.303.152-.449l.157-.436a5.17 5.17 0 0 0 .723.222c.141.033.285.06.434.079.147.02.29.03.43.03.217 0 .414-.034.59-.103a1.17 1.17 0 0 0 .45-.307 1.38 1.38 0 0 0 .284-.505c.065-.2.098-.43.098-.69v-1.493h-.107a3.97 3.97 0 0 1-.337.584 2.699 2.699 0 0 1-.422.48c-.153.136-.32.243-.497.32a1.418 1.418 0 0 1-.566.115 2.11 2.11 0 0 1-.714-.109 1.396 1.396 0 0 1-.52-.323 1.67 1.67 0 0 1-.354-.536 3.315 3.315 0 0 1-.212-.742 6.616 6.616 0 0 1-.078-.807 21.808 21.808 0 0 1-.017-.885v-3.626h.967v3.944c0 .285.012.553.034.802.023.249.072.465.15.647.076.183.19.326.34.43.15.103.354.155.612.155a.985.985 0 0 0 .54-.162c.169-.108.325-.246.467-.413.143-.167.273-.352.391-.555.118-.202.226-.4.323-.594v-4.254h.968Z" fill="#FFF" mask="url(#d)"/><path fill="#BB294B" mask="url(#d)" d="m199.97 3.969 7.988 21.477-15.012 17.509-23-3.97-7.988-21.477L176.97 0l23 3.968v.001z"/><path fill="#E43366" mask="url(#d)" d="m199.807 4.02 8.151 21.753-23.473-4.02L176.333 0l23.473 4.02z"/><path fill="#E43366" mask="url(#d)" d="m199.333 4.057-15.139 17.898L161 17.898 176.139 0z"/><path fill="#E43366" mask="url(#d)" d="M199.013 2.864 207 24.95l-15.012 18.005L184 20.868l15.012-18.004z"/></g></svg>