<svg version="1.1" id="bf6620f2-5605-4d7a-8f89-59d86820af4f" xmlns="http://www.w3.org/2000/svg" x="0" y="0" viewBox="0 0 460 140" style="enable-background:new 0 0 460 140" xml:space="preserve"><style>.st0{fill:#fff}.st2{fill:#e43366}.st3{opacity:.85}</style><path class="st0" d="M18.4 57.8c2 0 4.1.2 6 .6 1.1.2 2.2.5 3.2.8 1.2.4 1.9 1.7 1.5 2.9 0 .1-.1.2-.1.3l-.2.5c-.5 1-1.7 1.5-2.8 1.1l-.2-.1c-.7-.2-1.5-.4-2.3-.6s-1.7-.3-2.5-.4c-.8-.1-1.7-.2-2.5-.2-.9 0-1.8.1-2.6.3-.8.2-1.6.5-2.2.9-2.1 1.5-2.8 4.4-1.5 6.7.5.7 1.1 1.3 1.8 1.8.8.5 1.7.9 2.7 1.2 1 .3 2.1.6 3.2.9 1.8.4 3.5.9 5 1.5 1.4.5 2.8 1.2 4 2.2 1.1.9 2 2 2.6 3.3.7 1.5 1 3.2 1 4.8 0 1.8-.4 3.6-1.2 5.2-.8 1.4-1.9 2.7-3.2 3.6-1.4 1-3.1 1.7-4.8 2.1-1.9.5-3.9.7-5.8.7-1.1 0-2.2-.1-3.3-.2-1.1-.1-2.3-.3-3.4-.6s-2.4-.7-3.5-1.1l-.7-.2c-1.2-.4-1.8-1.8-1.4-3 0-.1.1-.2.1-.2v-.1l.2-.4c.5-1 1.7-1.5 2.8-1.1l.7.3c.9.3 1.9.6 2.8.8 1 .2 1.9.4 2.8.5.9.1 1.8.2 2.7.2 1.1 0 2.1-.1 3.1-.4 1-.2 1.9-.6 2.7-1.2 1.7-1.1 2.7-3 2.6-5.1 0-1-.2-1.9-.7-2.7-.5-.7-1.1-1.3-1.8-1.8-.8-.5-1.7-.9-2.7-1.2-1-.3-2.1-.6-3.2-.9-1.7-.4-3.4-.9-4.9-1.5-1.4-.5-2.8-1.2-4-2.1-1.1-.9-2.1-1.9-2.7-3.2-.7-1.5-1.1-3.1-1-4.8.1-2.9 1.6-5.9 4.2-7.6 1.3-.9 2.8-1.5 4.3-1.9 1.7-.4 3.4-.6 5.2-.6zM53.1 57.9c2.3 0 4.6.4 6.8 1.3 1.3.6 2.5 1.3 3.6 2.2 1.2 1 2.2 2.2 3 3.6.9 1.7 1.6 3.5 2 5.4 1 5 1 10 0 15-.4 1.9-1.1 3.7-2 5.4-.8 1.4-1.8 2.6-3 3.6-1.1.9-2.3 1.6-3.6 2.2-1.2.5-2.5.9-3.8 1.1-1 .2-1.9.2-2.9.2-2.3 0-4.5-.4-6.6-1.3-1.4-.6-2.6-1.3-3.6-2.2-1.2-1-2.2-2.3-2.9-3.6-.9-1.7-1.6-3.5-2-5.4-1-5-1-10 0-15 .4-1.9 1.1-3.7 2-5.4.8-1.4 1.8-2.6 2.9-3.6 1.1-.9 2.2-1.6 3.5-2.2 1.2-.5 2.5-.8 3.8-1 .9-.2 1.8-.3 2.8-.3zm0 5.2c-1 0-2.1.2-3 .6-1.3.5-2.4 1.3-3.3 2.3-1.1 1.3-1.8 2.9-2.3 4.5-.6 2.4-.9 4.8-.8 7.3-.1 2.4.2 4.9.8 7.3.4 1.6 1.2 3.2 2.3 4.5.8 1.1 2 1.9 3.3 2.3.9.4 2 .6 3 .6 1.1 0 2.2-.2 3.2-.6 1.3-.5 2.5-1.3 3.3-2.3 1.1-1.3 1.8-2.9 2.3-4.5.6-2.4.9-4.8.8-7.3.1-2.5-.2-4.9-.8-7.3-.4-1.7-1.2-3.2-2.3-4.5-1.6-1.9-4-2.9-6.5-2.9zM102 93c.4 1.4-.3 2.8-1.7 3.3h-.1c-1.2.3-2.4.6-3.6.8-1.7.4-3.5.6-5.2.6-2.3.1-4.7-.3-6.8-1.2-2.1-.8-3.9-2.1-5.3-3.8-1.5-1.8-2.5-3.8-3.2-6.1-.7-2.7-1-5.4-1-8.2 0-3 .4-6 1.3-8.9.8-2.4 2-4.6 3.7-6.5 1.6-1.8 3.6-3.1 5.9-4 2.2-.9 4.6-1.4 7.1-1.3 1.2 0 2.4.1 3.6.4l2 .4c1.4.3 2.3 1.8 1.9 3.2v.2c-.4 1.3-1.8 2.1-3.2 1.7l-1.1-.3c-.8-.2-1.7-.3-2.5-.3-4.2 0-6.5 1.1-8.8 3.5s-3.4 6.1-3.4 10.9c0 2.1.1 4.1.5 6.1.3 1.6.9 3.2 1.8 4.6.9 1.3 2.1 2.3 3.5 2.9 1.5.7 3.1 1 4.8.9 1.3 0 2.6-.2 3.8-.5 1-.2 2-.5 3-.7 1.3-.4 2.7.4 3.1 1.8l-.1.5zM172.1 38.6h-5.8c-1.7-.1-3.1 1.3-3.2 2.9v.1c0 1.6 1.3 2.9 2.9 2.9h.1c1.5 0 2.8 1.2 2.8 2.7V94c0 1.7 1.4 3.2 3.2 3.2 1.5.1 2.8-1 2.9-2.5V41.9c.2-1.6-1.1-3.1-2.9-3.3.1 0 .1 0 0 0zM157.8 77v-9.5c0-3.7-1.2-6.2-3.6-7.8-2.1-1.3-5.1-2-9-2-3.5 0-7 .5-10.4 1.6-1.4.5-2.1 2.1-1.6 3.5.5 1.3 1.9 2.1 3.2 1.7 2.8-.9 5.6-1.3 8.6-1.4 1.8-.1 3.5.3 5.1 1.2 1.1.9 1.8 2.4 1.6 3.8V71c0 1.5-1.2 2.7-2.7 2.7h-.4c-5.9 0-10.5.9-13.8 2.7-1.9 1-3.6 2.4-4.8 4.2-1.2 1.9-1.8 4.1-1.7 6.3 0 3.4 1.1 6.1 3.1 8 2.3 2 5.2 3 8.3 2.9 3.3 0 8.3-.5 12-2.1.2-.1.4-.1.6 0 .5.9 1.5 1.5 2.6 1.5 1.7 0 3.1-1.4 3.1-3.2V77.2c-.2 0-.2-.1-.2-.2zm-9.4 14.6c-2.6.5-5.2.8-7.8.7-4.3 0-6.4-2-6.4-5.9-.1-1.9.7-3.8 2.2-5 1.9-1.3 4-2.2 6.3-2.6 2-.4 4-.6 5.9-.6h.2c1.5 0 2.7 1.2 2.7 2.7V89c-.1 2.2-1.5 2.2-3.1 2.6zM117.4 58.3h-5.8c-1.8 0-3.2.9-3.2 2.7.1 1.6 1.4 2.9 3 2.9 1.5 0 2.7 1.2 2.7 2.7V94c0 1.7 1.4 3.2 3.1 3.2 1.6 0 2.9-1.3 2.8-2.9V61c.1-1.4-.9-2.6-2.3-2.7h-.3zM117.2 50.3c2.1 0 3.7-1.7 3.7-3.8 0-1-.4-2-1.1-2.7-.7-.7-1.6-1-2.6-1s-2 .3-2.7 1c-.7.7-1.1 1.7-1.1 2.7 0 1 .4 2 1.1 2.6.7.8 1.6 1.2 2.7 1.2z"/><g id="e56e939c-8e21-49b5-b97e-017511a56d9e"><path class="st0" d="M190.6 67.3V41.5c0-.6 0-1.2.1-1.8.1-1.1.6-1.7 1.7-1.7 3.8-.1 7.5-.1 11.3 0 1.1 0 1.7.7 1.7 1.9.1 1.7 0 3.4 0 5.1v10.3c.1.6.2 1.2.5 1.7.5-.3 1-.7 1.4-1.2 3.6-5.1 7.2-10.2 10.7-15.4 1-1.7 2.9-2.7 4.8-2.5 3.3.2 6.7 0 10 0h1.3c1.7.1 2.2 1 1.2 2.4s-2.2 3.1-3.3 4.6c-3.7 5-7.3 10.1-11 15-1 1.1-1.1 2.7-.2 3.8 5.9 9.9 11.6 19.8 17.4 29.8 1.5 2.5 1.1 3.3-1.8 3.3-3.8.1-7.6 0-11.4 0-1.7.1-3.3-.9-3.9-2.4-3.2-5.8-6.5-11.5-9.7-17.3l-.2-.4c-.9-1.4-1.4-1.4-2.4-.2-.1.1-.1.2-.2.2-3.6 5-3.1 3.4-3.1 9.4v8.1c0 1.8-.5 2.3-2.2 2.4-3.3.1-6.6.1-9.9 0-2.2 0-2.6-.5-2.6-2.8V67l-.2.3zM294.9 67.4c.1-4.3 0-8.6.9-12.8 2.3-10.6 9.9-17 20.8-17.4 4.5-.2 8.8.3 12.8 2.4 6 3.2 9.1 8.4 10.4 14.8.3 1.6-.3 2.3-1.9 2.3h-9.6c-1.3 0-2.4-.8-2.7-2.1-1.4-4-5.8-6.1-9.8-4.7-.1 0-.3.1-.4.1-2.3.8-4 2.7-4.5 5.1-.5 1.6-.9 3.3-1 4.9-.1 5.3-.1 10.6.2 15.9 0 2.8 1.1 5.5 3.1 7.4 3.7 3.6 10.5 2.1 12.3-2.7.9-2.3 1.1-2.5 3.6-2.5h8.7c1.8 0 2.4.7 2.1 2.4-2 10.1-7.7 15.9-18.1 16.9-4.5.6-9 0-13.2-1.6-6.7-2.7-10.6-7.8-12.4-14.6-1.1-4.2-1.1-8.5-1.2-12.8-.1-.2-.1-.6-.1-1zM274.4 84.8v9.6c0 1.9-.5 2.4-2.3 2.5-3.4.1-6.8.1-10.1 0-1.8 0-2.3-.6-2.3-2.5 0-5.6-.1-11.2 0-16.8.1-2.8-.6-5.5-1.9-7.9-5-9.5-9.9-19-14.9-28.5-1.3-2.6-.9-3.2 1.9-3.2 3.7 0 7.4.1 11.1 0 1.5-.1 3 .8 3.4 2.3 2.1 4.9 4.3 9.7 6.6 14.5.3.5.7 1 1.2 1.5.5-.4.9-1 1.2-1.5 2.2-4.8 4.4-9.6 6.5-14.4.5-1.5 2-2.5 3.6-2.3 3.7.1 7.5 0 11.2 0 .4 0 .8 0 1.3.1 1.1.2 1.4 1 .9 2.2-1 2-2 3.9-3 5.9-4.5 8.6-9 17.2-13.4 25.8-.5 1-.8 2.2-.8 3.3-.3 3.1-.2 6.2-.2 9.4z"/></g><path style="fill:#9e2544" d="m437.7 10.2 17.2 47.3L422.5 96 373 87.3 355.8 40l32.3-38.6 49.6 8.8z"/><path class="st2" d="m437.7 10.2 17.2 47.3-49.6-8.8-17.2-47.3 49.6 8.8z"/><g class="st3"><path class="st2" d="m437.7 10.2-32.4 38.5-49.5-8.7 32.3-38.6z"/></g><path style="fill:#d3245e" d="m437.7 10.2 17.2 47.3L422.5 96l-17.2-47.3 32.4-38.5z" class="st3"/><path class="st0" d="M14.2 112.6h2.4V127c0 1.6 0 2.7.1 3.2.1.7.2 1.3.3 2l-2.3.5c-.2-.5-.3-1-.3-1.6-.1-.5-.1-1-.2-1.5H14c-.4.8-.9 1.6-1.6 2.2-.7.6-1.6.9-2.6.9-.8 0-1.6-.2-2.3-.6-.6-.4-1.2-1-1.5-1.6-.4-.7-.6-1.5-.8-2.3-.2-.9-.3-1.8-.2-2.8 0-1 .1-2 .3-3 .2-.9.6-1.7 1.1-2.4.5-.7 1.2-1.3 1.9-1.6.9-.4 1.9-.6 2.9-.6s2 .1 3 .3v-5.5zm0 14v-6.4c-.9-.3-1.9-.4-2.8-.4-.7 0-1.3.1-1.9.4-.5.3-1 .6-1.3 1.1-.3.5-.5 1.1-.7 1.6-.1.7-.2 1.3-.2 2v1.4c0 .4 0 .8.1 1.3 0 .4.1.8.3 1.2.1.3.3.6.5.9.2.3.4.5.7.6.3.1.7.2 1.1.2 1 0 1.9-.4 2.5-1.2.7-.8 1.3-1.7 1.7-2.7zM32.1 131.6c-.9.4-1.9.7-2.9.9-.8.2-1.6.3-2.4.3-1 0-1.9-.2-2.8-.5-.8-.3-1.5-.8-2-1.4-.6-.7-1-1.4-1.2-2.2-.3-.9-.4-1.9-.4-2.9 0-.6 0-1.3.1-1.9.1-.6.2-1.2.4-1.8.2-.6.5-1.1.8-1.6.3-.5.7-.9 1.2-1.3s1-.7 1.6-.9c.7-.2 1.4-.3 2.1-.3 1.8-.1 3.5.6 4.6 1.9 1.1 1.6 1.7 3.5 1.5 5.5v.8h-10c0 .7.1 1.3.2 2 .1.5.4 1.1.8 1.5.3.4.8.7 1.3.9.6.2 1.2.3 1.9.3.4 0 .8 0 1.2-.1.4-.1.8-.1 1.2-.2.4-.1.7-.2 1.1-.3l1-.3.7 1.6zm-1.6-7.5c0-1.2-.3-2.3-1.1-3.2-.7-.7-1.7-1.1-2.7-1-1-.1-2 .3-2.7 1-.7.9-1.1 2.1-1.1 3.2h7.6zM46.7 131.9c-.7.2-1.5.5-2.3.6-.8.2-1.5.2-2.3.2-1 0-1.9-.1-2.9-.5-.8-.3-1.5-.8-2-1.4-.6-.7-1-1.4-1.2-2.2-.3-1-.4-2-.4-3.1s.1-2.2.5-3.3c.3-.9.8-1.7 1.4-2.4.6-.7 1.4-1.2 2.2-1.5.9-.4 1.9-.5 2.9-.5.6 0 1.1.1 1.7.2.6.1 1.2.3 1.8.4l-.6 1.9c-.5-.1-.9-.3-1.3-.4-.4-.1-.9-.1-1.3-.1-1.3-.1-2.6.4-3.6 1.4-.9 1.2-1.4 2.6-1.3 4.1 0 .8.1 1.5.2 2.3.1.6.3 1.2.7 1.7.3.5.8.8 1.3 1.1.7.3 1.4.4 2.1.4.6 0 1.2-.1 1.8-.2.6-.1 1.3-.3 2-.5l.6 1.8zM60.9 131.6c-.9.4-1.9.7-2.9.9-.8.2-1.6.3-2.4.3-.9 0-1.9-.2-2.7-.5-.8-.3-1.5-.8-2-1.4-.6-.6-1-1.4-1.2-2.2-.3-.9-.4-1.9-.4-2.9 0-.6 0-1.3.1-1.9.1-.6.2-1.2.4-1.8.2-.6.5-1.1.8-1.6.3-.5.7-.9 1.2-1.3s1-.7 1.6-.9c.7-.2 1.4-.3 2.1-.3 1.8-.1 3.5.6 4.6 1.9 1.1 1.6 1.7 3.5 1.6 5.5v.8h-10c0 .7.1 1.3.2 2 .1.5.4 1.1.8 1.5.3.4.8.7 1.3.9.6.2 1.2.3 1.9.3.4 0 .8 0 1.2-.1.4-.1.8-.1 1.2-.2.4-.1.7-.2 1.1-.3l1-.3.5 1.6zm-1.6-7.5c0-1.2-.3-2.3-1.1-3.2-.7-.7-1.7-1.1-2.7-1-1-.1-2 .3-2.7 1-.7.9-1.1 2.1-1.1 3.2h7.6zM65.1 118.4l2.3-.5c.2.5.3 1.1.4 1.6 0 .2.1.7.1 1.5h.3c.5-.9 1.1-1.6 1.9-2.2.7-.6 1.6-.9 2.6-.9 1.1-.1 2.2.3 3.1 1 .7.7 1.1 1.6 1.3 2.6.2 1.2.3 2.3.2 3.5v7.5H75v-8.2c.1-1-.1-2-.4-2.9-.4-.9-1.4-1.4-2.4-1.3-1 0-1.8.5-2.5 1.2s-1.3 1.5-1.7 2.4v8.8h-2.4v-8.8c0-1.2 0-2.3-.1-3.2-.1-.8-.3-1.5-.4-2.1zM82.7 114.9H85v3.3h4.8v2H85v9.5c0 .2.1.5.2.7.4.4.9.6 1.4.5.4 0 .8 0 1.2-.1.4-.1.7-.2 1.1-.3.3.6.5 1.2.7 1.8-1.1.4-2.2.5-3.3.6-.6 0-1.3-.1-1.9-.3-.5-.2-.9-.5-1.1-.9-.3-.5-.5-1-.6-1.5-.1-.8-.2-1.6-.1-2.4v-7.5h-2.1v-2h2.1l.1-3.4zM96 121.4c.3-.5.6-1.1.9-1.5.3-.4.7-.8 1.1-1.2.3-.3.7-.5 1.2-.7.5-.2 1-.2 1.5-.2h.6c.2 0 .5 0 .7.1 0 .5-.1.9-.1 1.3s-.1.8-.2 1.2c-.4-.1-.9-.1-1.2-.2h-1.1c-.4.1-.7.2-1 .4-.3.2-.6.5-.8.8-.3.4-.5.8-.7 1.2l-.8 1.6v8.2h-2.4v-10.2c0-.4 0-.9-.1-1.3 0-.4-.1-.8-.2-1.2-.1-.4-.2-.8-.3-1.3l1.1-.3 1.1-.2c.1.4.2.7.3 1s.1.6.2.8.1.5.1.8-.1.6.1.9zM105.9 120.6l-.6-1.9c1.5-.6 3.2-.9 4.8-.9 1.2-.1 2.3.2 3.4.7.9.7 1.4 1.8 1.3 2.9V129.3c0 .5.1 1 .1 1.5.1.5.2.9.3 1.4l-2.2.5c-.2-.7-.4-1.4-.4-2.1h-.3c-1 1.4-2.6 2.2-4.3 2.1-1.1.1-2.2-.3-3.1-1.1-.8-.8-1.2-1.9-1.2-3 0-.8.2-1.7.6-2.4.5-.7 1.1-1.2 1.8-1.6 1.6-.7 3.4-1.1 5.1-1h1.2v-2.1c.1-.5-.2-1.1-.6-1.4-.6-.3-1.2-.5-1.9-.4-1.3.2-2.7.4-4 .9zm6.6 7.8v-2.9h-1.1c-.7 0-1.5.1-2.2.2-.8.1-1.6.5-2.3 1-.6.5-.9 1.1-.8 1.9 0 1.5.8 2.2 2.4 2.2.8 0 1.6-.2 2.3-.7.6-.5 1.2-1 1.7-1.7zM121.4 126.8v1.9c0 .5 0 1 .1 1.3 0 .3.1.7.1 1 .1.3.1.6.2 1l-1.2.3c-.4.1-.8.2-1.1.2-.2-.5-.3-1.1-.4-1.6-.1-.5-.1-1-.1-1.4v-16.8h2.4v14.1zM127.5 112.6c.4 0 .8.1 1.1.4.3.3.5.7.4 1.1 0 .4-.2.8-.4 1.1-.3.3-.7.5-1.1.5-.4 0-.8-.2-1.1-.5-.3-.3-.5-.7-.5-1.1 0-.4.2-.8.5-1.1.3-.3.7-.4 1.1-.4zm-1.2 5.5h2.4v14.3h-2.4v-14.3zM136.9 120.1h-1c-.3 0-.6 0-.9-.1-.3 0-.6-.1-.9-.2-.3-.1-.7-.2-1-.3l.4-1c.1-.3.2-.6.4-1 .4.1.7.2 1 .3s.6.1.8.1.6.1.9.1h6.8v1.6l-7.2 10.6h7.3v2h-10.3v-1.7l7.1-10.6-3.4.2zM158.2 131.6c-.9.4-1.9.7-2.9.9-.8.2-1.6.3-2.4.3-1 0-1.9-.2-2.8-.5-.8-.3-1.5-.8-2-1.4-.6-.6-1-1.4-1.2-2.2-.3-.9-.4-1.9-.4-2.9 0-.6 0-1.3.1-1.9.1-.6.2-1.2.4-1.8.2-.6.5-1.1.8-1.6.3-.5.7-.9 1.2-1.3s1-.7 1.6-.9c.7-.2 1.4-.3 2.1-.3 1.8-.1 3.5.6 4.6 1.9 1.1 1.6 1.7 3.5 1.5 5.5v.8h-10c0 .7.1 1.3.2 2 .1.5.4 1.1.8 1.5.4.4.8.7 1.3.9.6.2 1.2.3 1.9.3.4 0 .8 0 1.2-.1.4-.1.8-.1 1.2-.2.4-.1.7-.2 1.1-.3l1-.3.7 1.6zm-1.6-7.5c0-1.2-.3-2.3-1.1-3.2-.7-.7-1.7-1.1-2.7-1-1-.1-2 .3-2.7 1-.7.9-1.1 2.1-1.1 3.2h7.6zM171.2 112.6h2.4V127c0 1.6 0 2.7.1 3.2.1.7.2 1.3.3 2l-2.3.5c-.2-.5-.3-1-.3-1.6-.1-.5-.1-1-.1-1.5h-.2c-.4.8-.9 1.6-1.6 2.2-.7.6-1.6.9-2.6.9-.8 0-1.6-.2-2.3-.6-.7-.4-1.2-1-1.5-1.6-.4-.7-.6-1.5-.8-2.3-.2-.9-.3-1.8-.2-2.8 0-1 .1-2 .4-3 .2-.9.6-1.7 1.1-2.4.5-.7 1.2-1.3 1.9-1.6.9-.4 1.9-.6 2.9-.6s2 .1 3 .3l-.2-5.5zm0 14v-6.4c-.9-.3-1.9-.4-2.9-.4-.7 0-1.3.1-1.9.4-.5.3-1 .6-1.3 1.1-.3.5-.5 1.1-.7 1.6-.1.7-.2 1.3-.2 2v1.4c0 .4.1.8.1 1.3 0 .4.1.8.3 1.2.1.3.3.6.5.9.2.3.4.5.7.6.3.1.7.2 1.1.2 1 0 1.9-.4 2.5-1.2.8-.8 1.3-1.7 1.8-2.7zM196 112.6c.4 0 .8.1 1.1.4.3.3.5.7.4 1.1 0 .4-.2.8-.4 1.1-.3.3-.7.5-1.1.5-.4 0-.8-.2-1.1-.5-.3-.3-.5-.7-.5-1.1 0-.4.2-.8.5-1.1.3-.3.7-.4 1.1-.4zm-1.1 5.5h2.4v14.3h-2.4v-14.3zM210.6 112.6h2.4V127c0 1.6 0 2.7.1 3.2.1.7.2 1.3.3 2l-2.3.5c-.2-.5-.3-1-.3-1.6-.1-.5-.1-1-.1-1.5h-.2c-.4.8-.9 1.6-1.6 2.2-.7.6-1.6.9-2.6.9-.8 0-1.6-.2-2.3-.6-.6-.4-1.2-1-1.5-1.6-.4-.7-.6-1.5-.8-2.3-.2-.9-.3-1.8-.2-2.8 0-1 .1-2 .4-3 .2-.9.6-1.7 1.1-2.4.5-.7 1.2-1.3 1.9-1.6.9-.4 1.9-.6 2.9-.6s2 .1 3 .3l-.2-5.5zm0 14v-6.4c-.9-.3-1.9-.4-2.9-.4-.7 0-1.3.1-1.9.4-.5.3-1 .6-1.3 1.1-.3.5-.5 1.1-.7 1.6-.1.7-.2 1.3-.2 2v1.4c0 .4 0 .8.1 1.3 0 .4.1.8.3 1.2.1.3.3.6.5.9.2.3.4.5.8.6.3.1.7.2 1.1.2 1 0 1.9-.4 2.5-1.2.7-.8 1.3-1.7 1.7-2.7zM228.5 131.6c-.9.4-1.9.7-2.9.9-.8.2-1.6.3-2.4.3-1 0-1.9-.2-2.8-.5-.8-.3-1.5-.8-2-1.4-.6-.7-1-1.4-1.2-2.2-.3-.9-.4-1.9-.4-2.9 0-.6 0-1.3.1-1.9.1-.6.2-1.2.4-1.8.2-.6.5-1.1.8-1.6.3-.5.7-.9 1.2-1.3s1-.7 1.6-.9c.7-.2 1.4-.3 2.1-.3 1.8-.1 3.5.6 4.6 1.9 1.1 1.6 1.7 3.5 1.5 5.5v.8h-10c0 .7.1 1.3.2 2 .1.5.4 1.1.8 1.5.3.4.8.7 1.3.9.6.2 1.2.3 1.9.3.4 0 .8 0 1.2-.1.4-.1.8-.1 1.2-.2.4-.1.7-.2 1.1-.3l1-.3.7 1.6zm-1.6-7.5c0-1.2-.3-2.3-1.1-3.2-.7-.7-1.7-1.1-2.7-1-1-.1-2 .3-2.7 1-.7.9-1.1 2.1-1.1 3.2h7.6zM232.7 118.4l2.3-.5c.2.5.3 1.1.4 1.6 0 .2.1.7.1 1.5h.3c.5-.9 1.1-1.6 1.9-2.2.7-.6 1.6-.9 2.6-.9 1.1-.1 2.2.3 3.1 1 .7.7 1.1 1.6 1.3 2.6.2 1.2.3 2.3.2 3.5v7.5h-2.4v-8.2c.1-1-.1-2-.4-2.9-.4-.9-1.4-1.4-2.4-1.3-1 .1-1.8.5-2.5 1.2s-1.2 1.5-1.7 2.4v8.8h-2.4v-8.8c0-1.2 0-2.3-.1-3.2 0-.8-.2-1.5-.3-2.1zM250.3 114.9h2.4v3.3h4.8v2h-4.8v9.5c0 .2.1.5.2.7.4.4.9.6 1.4.5.4 0 .8 0 1.2-.1.4-.1.7-.2 1-.3.3.6.5 1.2.7 1.8-1 .4-2.2.5-3.3.6-.6 0-1.3-.1-1.9-.3-.5-.2-.9-.5-1.1-.9-.3-.5-.5-1-.6-1.5-.1-.8-.2-1.6-.1-2.4v-7.5h-2.1v-2h2.1l.1-3.4zM262.4 112.6c.4 0 .8.1 1.1.4.3.3.5.7.5 1.1 0 .4-.2.8-.5 1.1-.3.3-.7.5-1.1.5-.4 0-.8-.2-1.1-.5-.3-.3-.5-.7-.5-1.1 0-.4.2-.8.5-1.1.3-.3.7-.4 1.1-.4zm-1.2 5.5h2.4v14.3h-2.4v-14.3zM269.9 114.9h2.4v3.3h4.8v2h-4.8v9.5c0 .2.1.5.2.7.4.4.9.6 1.4.5.4 0 .8 0 1.2-.1.4-.1.7-.2 1-.3.3.6.5 1.2.7 1.9-1 .4-2.2.5-3.3.6-.6 0-1.3-.1-1.9-.3-.5-.2-.9-.5-1.1-.9-.3-.5-.5-1-.6-1.5-.1-.8-.2-1.6-.1-2.4v-7.5h-2v-2h2v-3.5zM292.2 118.1v14.6c0 .8-.1 1.6-.4 2.4-.3.6-.7 1.2-1.2 1.6-.5.4-1.2.8-1.9.9-.8.2-1.6.3-2.4.3-.8 0-1.6-.1-2.3-.2-.8-.1-1.5-.3-2.2-.6.1-.3.2-.6.4-.9s.3-.6.4-.9l.8.2c.3.1.6.2 1 .2s.7.1 1 .2c.3 0 .7.1 1 .1.5 0 1-.1 1.4-.2.4-.1.8-.3 1.1-.6.3-.3.5-.7.7-1.1.2-.5.2-.9.2-1.4v-3.1h-.3c-.2.4-.5.8-.8 1.2-.3.4-.6.7-1 1-.4.3-.8.5-1.2.7-.4.2-.9.2-1.4.2-.6 0-1.2-.1-1.7-.2s-.9-.4-1.3-.7c-.4-.3-.7-.7-.9-1.1-.2-.5-.4-1-.5-1.5-.1-.6-.2-1.1-.2-1.7v-9.3h2.3v8.2c0 .6 0 1.1.1 1.7 0 .5.2.9.4 1.4.2.4.5.7.8.9.5.2 1 .3 1.5.3s.9-.1 1.3-.3c.4-.2.8-.5 1.1-.9.4-.4.7-.7 1-1.1.3-.4.5-.8.8-1.2v-8.8l2.4-.3zM314.1 120.6l-.6-1.9c1.5-.6 3.2-.9 4.8-.9 1.2-.1 2.3.2 3.4.7.9.7 1.4 1.8 1.3 2.9V129.3c0 .5.1 1 .1 1.5.1.5.2.9.3 1.4l-2.2.5c-.2-.7-.4-1.4-.4-2.1h-.3c-1 1.4-2.6 2.2-4.3 2.1-1.1.1-2.2-.3-3.1-1.1-.8-.8-1.2-1.9-1.2-3 0-.8.2-1.7.6-2.4.5-.7 1.1-1.2 1.8-1.6 1.6-.7 3.4-1.1 5.1-1h1.2v-2.1c.1-.5-.2-1.1-.6-1.4-.6-.3-1.2-.5-1.9-.4-1.3.2-2.7.4-4 .9zm6.7 7.8v-2.9h-1.1c-.7 0-1.5.1-2.2.2-.8.1-1.6.5-2.3 1-.6.5-.9 1.1-.8 1.9 0 1.5.8 2.2 2.4 2.2.8 0 1.6-.2 2.3-.7.6-.5 1.2-1 1.7-1.7zM329 114.9h2.4v3.3h4.8v2h-4.8v9.5c0 .2.1.5.2.7.4.4.9.6 1.4.5.4 0 .8 0 1.2-.1.4-.1.7-.2 1.1-.3.3.6.5 1.2.7 1.8-1.1.4-2.2.5-3.3.6-.6 0-1.3-.1-1.9-.3-.5-.2-.9-.5-1.1-.9-.3-.5-.5-1-.6-1.5-.1-.8-.1-1.6-.1-2.4v-7.5h-2v-2h2.1l-.1-3.4zM341 114.9h2.4v3.3h4.8v2h-4.8v9.5c0 .2.1.5.2.7.4.4.9.6 1.4.5.4 0 .8 0 1.2-.1.4-.1.7-.2 1.1-.3.3.6.5 1.2.7 1.8-1.1.4-2.2.5-3.3.6-.6 0-1.3-.1-1.9-.3-.5-.2-.9-.5-1.1-.9-.3-.5-.5-1-.6-1.5-.1-.8-.2-1.6-.1-2.4v-7.5h-2.1v-2h2.1v-3.4zM362.4 131.6c-.9.4-1.9.7-2.9.9-.8.2-1.6.3-2.4.3-1 0-1.9-.2-2.8-.5-.8-.3-1.5-.8-2-1.4-.6-.7-1-1.4-1.2-2.2-.3-.9-.4-1.9-.4-2.9 0-.6 0-1.3.1-1.9.1-.6.2-1.2.4-1.8.2-.6.5-1.1.8-1.6.3-.5.7-.9 1.2-1.3s1-.7 1.6-.9c.7-.2 1.4-.3 2.1-.3 1.8-.1 3.5.6 4.6 1.9 1.1 1.6 1.7 3.5 1.5 5.5v.8h-10c0 .7.1 1.3.2 2 .1.5.4 1.1.8 1.5.3.4.8.7 1.3.9.6.2 1.2.3 1.9.3.4 0 .8 0 1.2-.1.4-.1.8-.1 1.2-.2.4-.1.7-.2 1.1-.3l1-.3.7 1.6zm-1.6-7.5c0-1.2-.3-2.3-1.1-3.2-.7-.7-1.7-1.1-2.7-1-1-.1-2 .3-2.7 1-.7.9-1.1 2.1-1.1 3.2h7.6zM371.2 117.8c.8 0 1.5.1 2.2.2.7.1 1.4.4 2.1.6-.1.3-.3.6-.4.9s-.3.6-.5.8l-.8-.3c-.3-.1-.6-.2-.9-.2-.3-.1-.6-.1-1-.2-.3 0-.6-.1-1-.1-.3 0-.7 0-1 .1-.3.1-.6.2-.8.3l-.6.6c-.2.3-.2.6-.2.9 0 .3.1.7.2 1 .2.3.4.5.7.6.3.2.7.3 1 .4l1.2.3c.7.2 1.3.4 1.9.6.5.2 1 .5 1.5.8.4.3.8.7 1 1.2.2.6.4 1.2.4 1.8 0 .7-.1 1.3-.4 1.9-.3.5-.7 1-1.2 1.3-.5.4-1.1.6-1.8.8-.7.2-1.4.3-2.2.2-.4 0-.8 0-1.2-.1-.4 0-.8-.1-1.3-.2s-.8-.2-1.2-.4-.8-.3-1.1-.4c.1-.3.3-.6.4-.9s.3-.6.4-.8c.3.1.6.2 1 .4.3.1.7.2 1 .3s.7.1 1 .2c.3 0 .7.1 1 .1.4 0 .8 0 1.2-.1.4-.1.7-.2 1-.4.3-.2.5-.5.7-.8.2-.3.3-.7.3-1.1 0-.4-.1-.7-.2-1-.2-.3-.4-.5-.7-.7-.3-.2-.7-.3-1-.4l-1.2-.3c-.6-.1-1.2-.3-1.8-.5-.5-.2-1-.5-1.5-.8-.4-.3-.8-.7-1-1.2-.3-.6-.4-1.2-.4-1.8 0-.6.1-1.2.4-1.7.3-.5.7-.9 1.1-1.2.5-.3 1-.6 1.6-.7.9.1 1.5 0 2.1 0zM381.5 114.9h2.3v3.3h4.8v2h-4.8v9.5c0 .2.1.5.2.7.4.4.9.6 1.4.5.4 0 .8 0 1.2-.1.4-.1.7-.2 1.1-.3.3.6.5 1.2.7 1.8-1 .4-2.2.5-3.3.6-.6 0-1.3-.1-1.9-.3-.5-.2-.9-.5-1.1-.9-.3-.5-.5-1-.6-1.5-.1-.8-.2-1.6-.1-2.4v-7.5h-2.1v-2h2.1l.1-3.4zM393.1 120.6l-.6-1.9c1.5-.6 3.2-.9 4.8-.9 1.2-.1 2.3.2 3.4.7.9.7 1.4 1.8 1.3 2.9V129.3c0 .5.1 1 .1 1.5.1.5.2.9.3 1.4l-2.2.5c-.2-.7-.4-1.4-.4-2.1h-.3c-1 1.4-2.6 2.2-4.3 2.1-1.1.1-2.2-.3-3.1-1.1-.8-.8-1.2-1.9-1.2-3 0-.8.2-1.7.6-2.4.5-.7 1.1-1.2 1.8-1.6 1.6-.7 3.4-1.1 5.1-1h1.2v-2.1c.1-.5-.2-1.1-.6-1.4-.6-.3-1.2-.5-1.9-.4-1.3.2-2.7.4-4 .9zm6.6 7.8v-2.9h-1.1c-.7 0-1.5.1-2.2.2-.8.1-1.6.5-2.3 1-.6.5-.9 1.1-.8 1.9 0 1.5.8 2.2 2.4 2.2.8 0 1.6-.2 2.3-.7.6-.5 1.2-1 1.7-1.7zM408 114.9h2.4v3.3h4.8v2h-4.8v9.5c0 .2.1.5.2.7.4.4.9.6 1.4.5.4 0 .8 0 1.2-.1.4-.1.7-.2 1-.3.3.6.5 1.2.7 1.8-1 .4-2.2.5-3.3.6-.6 0-1.3-.1-1.9-.3-.5-.2-.9-.5-1.1-.9-.3-.5-.5-1-.6-1.5-.1-.8-.2-1.6-.1-2.4v-7.5h-2.1v-2h2.1l.1-3.4zM420.1 112.6c.4 0 .8.1 1.1.4.3.3.5.7.5 1.1 0 .9-.7 1.6-1.5 1.6-.4 0-.8-.2-1.1-.5-.3-.3-.5-.7-.5-1.1 0-.4.2-.8.5-1.1.1-.3.6-.4 1-.4zm-1.2 5.5h2.4v14.3h-2.4v-14.3zM431.6 117.8c.5 0 .9 0 1.4.1.5.1 1 .2 1.4.4.5.2.9.5 1.3.8.4.4.8.8 1.1 1.3.4.6.6 1.3.8 2 .4 1.8.4 3.7 0 5.6-.2.7-.4 1.4-.8 2-.3.5-.7 1-1.1 1.4-.8.7-1.7 1.1-2.8 1.2-.5.1-.9.1-1.4.1-.5 0-.9 0-1.4-.1-.5-.1-.9-.2-1.4-.4-.5-.2-.9-.5-1.3-.8-.4-.4-.8-.8-1.1-1.4-.4-.6-.6-1.3-.8-2-.4-1.8-.4-3.7 0-5.6.2-.7.4-1.4.8-2 .3-.5.7-1 1.1-1.3.4-.3.8-.6 1.3-.8.5-.2.9-.3 1.4-.4.6-.1 1.1-.1 1.5-.1zm0 1.9c-.5 0-1 .1-1.5.2-.5.2-.9.5-1.2.9-.4.5-.7 1.1-.9 1.7-.4 1.8-.4 3.6 0 5.4.2.6.4 1.2.9 1.7.3.4.7.7 1.2.9.5.2 1 .2 1.5.2s1-.1 1.5-.2c.5-.2.9-.5 1.2-.9.4-.5.7-1.1.9-1.7.4-1.8.4-3.6 0-5.4-.2-.6-.5-1.2-.9-1.7-.3-.4-.8-.7-1.2-.9-.5-.1-1-.2-1.5-.2zM441.3 118.4l2.3-.5c.2.5.3 1.1.4 1.6 0 .2.1.7.1 1.5h.3c.5-.9 1.1-1.6 1.9-2.2.7-.6 1.6-.9 2.6-.9 1.1-.1 2.2.3 3.1 1 .7.7 1.1 1.6 1.3 2.6.2 1.2.3 2.3.2 3.5v7.5h-2.4v-8.2c.1-1-.1-2-.4-2.9-.4-.9-1.4-1.4-2.4-1.3-.9.1-1.8.5-2.4 1.2-.7.7-1.3 1.5-1.7 2.4v8.8h-2.4v-8.8c0-1.2 0-2.3-.1-3.2-.1-.8-.2-1.5-.4-2.1z"/></svg>