<svg width="78" height="105" xmlns="http://www.w3.org/2000/svg" xmlns:xlink="http://www.w3.org/1999/xlink"><defs><path id="a" d="M0 0h53.332v22.011H0z"/><path id="c" d="M0 0h8.012v14.672H0z"/><path id="e" d="M0 0h5.731v7.958H0z"/></defs><g fill="none" fill-rule="evenodd"><g transform="translate(11.884)"><mask id="b" fill="#fff"><use xlink:href="#a"/></mask><path d="M26.666 19.641a2.44 2.44 0 0 1 2.436 2.37 58.26 58.26 0 0 0 24.23-6.365C48.104 6.312 38.125 0 26.666 0S5.228 6.312 0 15.646a58.26 58.26 0 0 0 24.23 6.365 2.439 2.439 0 0 1 2.436-2.37" fill="#FFF" mask="url(#b)"/></g><path d="M66.33 17.843a60.527 60.527 0 0 1-15.56 5.433V38.84a2.444 2.444 0 0 1-4.888 0V24.045a61.924 61.924 0 0 1-4.888.41v16.83a2.444 2.444 0 1 1-4.888 0v-16.83a61.924 61.924 0 0 1-4.888-.41V38.84a2.444 2.444 0 1 1-4.888 0V23.276a60.514 60.514 0 0 1-15.56-5.433 30.422 30.422 0 0 0-2.769 12.706c0 16.872 13.677 30.549 30.549 30.549s30.549-13.677 30.549-30.55a30.42 30.42 0 0 0-2.769-12.705m10.483 73.049H.293a.083.083 0 0 1-.083-.083v-.159c0-.046.037-.084.083-.084h76.52c.046 0 .083.038.083.084v.159a.083.083 0 0 1-.083.083" fill="#FFF"/><g transform="translate(0 70.405)"><mask id="d" fill="#fff"><use xlink:href="#c"/></mask><path d="M3.956 14.672c-.848 0-1.567-.127-2.156-.378-.59-.252-1.038-.548-1.343-.885-.304-.338-.457-.607-.457-.805 0-.079.026-.166.08-.258a.744.744 0 0 1 .179-.22.321.321 0 0 1 .198-.079c.12 0 .242.084.369.248.125.166.3.363.526.588.225.225.537.42.934.586.398.166.92.249 1.57.249.677 0 1.25-.113 1.72-.338a2.36 2.36 0 0 0 1.074-1.005c.245-.444.368-.991.368-1.639 0-.69-.123-1.243-.368-1.661a3.048 3.048 0 0 0-.954-1.013 5.865 5.865 0 0 0-1.292-.637 95.367 95.367 0 0 1-1.412-.507 6.448 6.448 0 0 1-1.302-.645 2.939 2.939 0 0 1-.964-1.044C.48 4.791.358 4.221.358 3.519c0-.716.13-1.302.387-1.76A2.978 2.978 0 0 1 1.75.686c.41-.258.848-.437 1.31-.537A6.42 6.42 0 0 1 5.578.1c.377.066.725.149 1.043.248.318.1.57.215.756.348.185.133.278.272.278.418 0 .079-.02.163-.06.248a.748.748 0 0 1-.16.228.323.323 0 0 1-.237.1c-.106 0-.266-.062-.477-.189a4.72 4.72 0 0 0-.875-.377C5.474.998 4.99.935 4.393.935c-.477 0-.95.073-1.421.219-.47.146-.858.397-1.162.755-.306.358-.458.868-.458 1.531 0 .57.123 1.026.368 1.371.245.346.566.623.964.835.398.212.828.394 1.292.547.464.152.934.328 1.412.527.477.198.91.451 1.302.756.39.304.708.708.954 1.212.245.503.368 1.153.368 1.948 0 .942-.176 1.71-.527 2.306a3.169 3.169 0 0 1-1.432 1.311c-.603.279-1.301.419-2.097.419" fill="#FFF" mask="url(#d)"/></g><path d="M12.485 78.06h3.02c.942 0 1.678-.267 2.208-.797.53-.53.795-1.345.795-2.446v-.238c0-1.086-.265-1.89-.795-2.415-.53-.523-1.266-.785-2.207-.785h-3.021v6.68Zm-.497 6.897a.57.57 0 0 1-.348-.11.359.359 0 0 1-.15-.308V70.822a.35.35 0 0 1 .12-.268.532.532 0 0 1 .318-.129h3.599c.74 0 1.414.136 2.017.407.603.272 1.08.712 1.43 1.323.352.61.528 1.418.528 2.424v.22c0 1.006-.176 1.815-.527 2.424a3.14 3.14 0 0 1-1.441 1.333 4.83 4.83 0 0 1-2.028.417h-3.021v5.566a.35.35 0 0 1-.16.308.584.584 0 0 1-.337.11Zm14.67-.835c.94 0 1.68-.26 2.216-.785.538-.525.806-1.329.806-2.416V74.58c0-1.086-.266-1.89-.795-2.415-.53-.523-1.273-.785-2.227-.785-.941 0-1.676.262-2.206.785-.531.524-.796 1.33-.796 2.415v6.342c0 1.087.265 1.891.796 2.416.53.524 1.265.785 2.206.785m0 .954c-.742 0-1.415-.14-2.018-.418a3.162 3.162 0 0 1-1.431-1.32c-.351-.605-.527-1.409-.527-2.417V74.58c0-1.006.176-1.812.527-2.415a3.17 3.17 0 0 1 1.43-1.322c.604-.278 1.277-.417 2.019-.417.756 0 1.438.14 2.047.417a3.16 3.16 0 0 1 1.442 1.322c.35.603.527 1.41.527 2.415v6.342c0 1.008-.176 1.812-.527 2.416a3.152 3.152 0 0 1-1.442 1.321c-.61.278-1.291.418-2.047.418m9.045-7.814h2.842c.941 0 1.707-.228 2.297-.686.589-.457.884-1.215.884-2.276 0-1.046-.295-1.796-.884-2.246-.59-.45-1.356-.676-2.297-.676h-2.842v5.884Zm6.501 7.713c-.146 0-.269-.082-.369-.248l-.268-.447-3.121-6.104h-2.743v6.362a.348.348 0 0 1-.16.308.577.577 0 0 1-.337.11.564.564 0 0 1-.348-.11.357.357 0 0 1-.149-.307V70.822c0-.106.036-.195.109-.269a.49.49 0 0 1 .308-.127h3.419c.743 0 1.432.114 2.068.347a3.094 3.094 0 0 1 1.531 1.193c.384.563.576 1.336.576 2.316 0 .835-.143 1.517-.427 2.047-.285.53-.67.931-1.153 1.204a4.793 4.793 0 0 1-1.64.544l3.181 6.163c.026.04.042.08.049.12.006.04.01.073.01.1a.417.417 0 0 1-.079.249.816.816 0 0 1-.199.188.463.463 0 0 1-.258.08Zm4.79-7.713h2.842c.941 0 1.707-.228 2.297-.686.59-.457.884-1.215.884-2.276 0-1.046-.295-1.796-.884-2.246-.59-.45-1.356-.676-2.297-.676h-2.842v5.884Zm6.501 7.713c-.146 0-.269-.082-.369-.248l-.268-.447-3.12-6.104h-2.744v6.362a.348.348 0 0 1-.16.308.577.577 0 0 1-.337.11.564.564 0 0 1-.348-.11.357.357 0 0 1-.149-.307V70.822c0-.106.036-.195.11-.269a.49.49 0 0 1 .307-.127h3.42c.742 0 1.431.114 2.067.347a3.094 3.094 0 0 1 1.531 1.193c.384.563.576 1.336.576 2.316 0 .835-.143 1.517-.427 2.047-.285.53-.67.931-1.153 1.204a4.793 4.793 0 0 1-1.64.544l3.181 6.163c.026.04.042.08.05.12.005.04.01.073.01.1a.417.417 0 0 1-.08.249.816.816 0 0 1-.199.188.463.463 0 0 1-.258.08Zm4.87-4.393h5.17l-2.566-8.489-2.604 8.49Zm-1.67 4.374a.604.604 0 0 1-.248-.06.618.618 0 0 1-.21-.15.333.333 0 0 1-.079-.228c0-.039.006-.079.02-.118l4.234-13.738a.43.43 0 0 1 .22-.278.745.745 0 0 1 .686.01.448.448 0 0 1 .227.268l4.195 13.738c.014.04.02.08.02.118 0 .067-.03.136-.09.21a.603.603 0 0 1-.218.168.647.647 0 0 1-.269.06.449.449 0 0 1-.248-.07.354.354 0 0 1-.149-.229l-.975-3.16h-5.725l-.953 3.16a.349.349 0 0 1-.16.23.534.534 0 0 1-.278.07Zm12.604 0a.568.568 0 0 1-.349-.11.357.357 0 0 1-.148-.307V70.843c0-.16.05-.27.148-.328.1-.061.216-.09.349-.09.118 0 .228.044.327.129.1.087.19.192.268.319.08.126.146.248.2.367l5.765 11.352v-11.77c0-.132.05-.231.148-.297.1-.066.216-.1.349-.1.12 0 .232.034.338.1a.33.33 0 0 1 .16.298V84.54a.35.35 0 0 1-.16.307.578.578 0 0 1-.338.11c-.16 0-.298-.082-.417-.248a3.568 3.568 0 0 1-.298-.487L69.794 72.77v11.77a.349.349 0 0 1-.159.307.58.58 0 0 1-.337.11M.489 104.115a.256.256 0 0 1-.18-.068.21.21 0 0 1-.072-.153v-7.6c0-.07.025-.123.073-.162a.279.279 0 0 1 .179-.058c.077 0 .139.019.188.058.05.039.074.092.074.163v5.28L3.46 99.2a.242.242 0 0 1 .136-.052c.042 0 .083.009.12.026a.28.28 0 0 1 .1.08.205.205 0 0 1 .042.136.411.411 0 0 1-.01.089c-.007.032-.028.058-.063.079l-1.617 1.417 1.88 2.772a.177.177 0 0 1 .04.116.246.246 0 0 1-.035.125.282.282 0 0 1-.1.1.26.26 0 0 1-.137.036c-.07 0-.125-.035-.168-.104L1.79 101.3l-1.04.914v1.679a.204.204 0 0 1-.074.153.266.266 0 0 1-.188.068m5.187.001a.254.254 0 0 1-.178-.068.207.207 0 0 1-.074-.153V99.37c0-.063.025-.114.074-.153a.288.288 0 0 1 .178-.058.3.3 0 0 1 .189.058c.049.039.074.09.074.153v4.524a.207.207 0 0 1-.074.153.269.269 0 0 1-.19.068m0-6.52a.39.39 0 0 1-.277-.115.36.36 0 0 1-.121-.273c0-.105.04-.192.12-.262a.41.41 0 0 1 .279-.104c.112 0 .205.034.278.104.074.07.11.157.11.262a.377.377 0 0 1-.11.273.367.367 0 0 1-.278.116m2.508 6.519a.254.254 0 0 1-.178-.068.207.207 0 0 1-.074-.153v-7.6c0-.07.025-.123.074-.162a.276.276 0 0 1 .178-.058c.077 0 .14.019.19.058a.195.195 0 0 1 .073.163v7.599a.207.207 0 0 1-.074.153.269.269 0 0 1-.189.068m3.832 0c-.518 0-.913-.118-1.186-.357-.273-.238-.41-.616-.41-1.133v-5.65a.19.19 0 0 1 .084-.162.31.31 0 0 1 .168-.058c.07 0 .132.02.185.058a.193.193 0 0 1 .078.163v2.183h1.396c.056 0 .103.022.142.064a.241.241 0 0 1 .058.168c0 .056-.02.106-.058.153a.183.183 0 0 1-.142.067h-1.396v3.014c0 .364.082.622.246.777.165.153.443.23.835.23h.263c.076 0 .136.022.178.069a.24.24 0 0 1 .063.173.25.25 0 0 1-.063.167.223.223 0 0 1-.178.074h-.263Zm3.202.063c-.322 0-.6-.04-.835-.12a1.802 1.802 0 0 1-.55-.284c-.134-.109-.2-.213-.2-.31a.24.24 0 0 1 .026-.105.318.318 0 0 1 .074-.095c.03-.027.06-.042.089-.042.07 0 .15.041.242.121.09.08.223.162.398.246.175.085.424.127.746.127.419 0 .717-.08.892-.24a.75.75 0 0 0 .262-.569c0-.252-.061-.449-.183-.593a1.188 1.188 0 0 0-.49-.33 7.59 7.59 0 0 0-.633-.206 4.2 4.2 0 0 1-.636-.225 1.242 1.242 0 0 1-.493-.388c-.126-.168-.19-.396-.19-.683 0-.21.057-.423.169-.64.11-.217.285-.396.519-.536.235-.14.54-.209.919-.209.224 0 .437.023.64.068.204.046.37.105.505.18.132.071.199.147.199.224a.285.285 0 0 1-.032.11.372.372 0 0 1-.08.115.16.16 0 0 1-.12.048.5.5 0 0 1-.21-.074 1.811 1.811 0 0 0-.893-.209c-.271 0-.49.05-.655.146a.918.918 0 0 0-.467.766c0 .211.064.376.189.494a1.3 1.3 0 0 0 .488.28c.2.065.412.13.636.192.223.064.435.148.635.253.199.104.362.25.488.435.126.186.188.44.188.761 0 .392-.143.706-.43.94-.286.235-.69.352-1.207.352" fill="#FFF"/><g transform="translate(20.791 96.262)"><mask id="f" fill="#fff"><use xlink:href="#e"/></mask><path d="M2.424 7.464c.427 0 .773-.088 1.04-.263.265-.174.479-.398.64-.671L1.763 4.01a4.56 4.56 0 0 0-.535.347c-.189.14-.352.316-.488.53-.137.213-.205.48-.205.802 0 .309.073.6.22.873.147.272.362.49.646.655.283.165.624.247 1.023.247m-.073.494c-.497 0-.92-.103-1.271-.305a2.089 2.089 0 0 1-.802-.808A2.241 2.241 0 0 1 0 5.743c0-.364.071-.683.215-.956a2.28 2.28 0 0 1 .551-.693c.223-.189.454-.332.693-.43a7.232 7.232 0 0 1-.604-.835C.67 2.532.577 2.174.577 1.753c0-.371.084-.687.251-.95.169-.263.391-.462.668-.598A2.01 2.01 0 0 1 2.403 0c.371 0 .676.062.913.19.239.125.417.264.536.414.119.15.178.267.178.351a.223.223 0 0 1-.073.173.252.252 0 0 1-.179.069c-.055 0-.112-.037-.167-.111A5.198 5.198 0 0 0 3.39.823a1.184 1.184 0 0 0-.362-.261C2.877.488 2.68.451 2.435.451c-.399 0-.714.123-.945.368-.231.246-.347.57-.347.976 0 .251.046.482.137.693.091.21.21.409.357.598s.301.375.462.557L4.345 6.12c.155-.357.254-.724.3-1.102.045-.378.075-.693.089-.944 0-.091.018-.156.052-.195.036-.038.098-.058.189-.058.077 0 .133.025.169.074a.408.408 0 0 1 .052.231 6.996 6.996 0 0 1-.179 1.444c-.07.31-.182.618-.335.918l.997 1.07.036.079a.154.154 0 0 1 .016.058.195.195 0 0 1-.073.157.24.24 0 0 1-.158.064.201.201 0 0 1-.078-.016.256.256 0 0 1-.079-.058l-.903-.966a2.64 2.64 0 0 1-.824.771c-.339.207-.761.311-1.265.311" fill="#FFF" mask="url(#f)"/></g><path d="M32.349 104.178c-.448 0-.817-.085-1.107-.253a1.578 1.578 0 0 1-.651-.693 2.229 2.229 0 0 1-.216-.996v-1.197c0-.364.07-.695.21-.992.14-.297.358-.53.65-.699.295-.167.666-.25 1.114-.25.287 0 .537.035.75.11.214.072.38.157.5.256.118.098.178.19.178.273a.224.224 0 0 1-.037.115.31.31 0 0 1-.09.1.202.202 0 0 1-.115.037c-.063 0-.134-.034-.215-.105a1.419 1.419 0 0 0-.336-.205c-.143-.067-.348-.1-.614-.1-.483 0-.851.132-1.102.394-.252.263-.378.618-.378 1.066v1.197c0 .448.126.803.378 1.066.25.261.623.392 1.113.392.279 0 .494-.034.645-.105a1.49 1.49 0 0 0 .347-.209c.08-.07.156-.106.226-.106.048 0 .089.015.12.042a.688.688 0 0 1 .084.095.195.195 0 0 1 .037.116c0 .076-.062.167-.184.273a1.539 1.539 0 0 1-.514.267c-.22.073-.485.111-.793.111m3.244-.063a.254.254 0 0 1-.179-.068.207.207 0 0 1-.074-.153V99.37c0-.063.025-.114.074-.153a.288.288 0 0 1 .178-.058c.078 0 .139.02.184.058a.19.19 0 0 1 .068.153v.536a1.83 1.83 0 0 1 .326-.394 1.6 1.6 0 0 1 .477-.3 1.65 1.65 0 0 1 .636-.115h.377c.064 0 .117.023.159.068a.248.248 0 0 1 .063.174.247.247 0 0 1-.063.173.205.205 0 0 1-.159.068h-.377c-.238 0-.468.062-.688.183a1.423 1.423 0 0 0-.535.526 1.579 1.579 0 0 0-.205.824v2.78a.207.207 0 0 1-.073.154.269.269 0 0 1-.19.068m3.696-2.741h2.237c.236 0 .395-.025.471-.072.078-.049.115-.152.115-.305a1.463 1.463 0 0 0-.665-1.229 1.322 1.322 0 0 0-.741-.209c-.265 0-.505.062-.72.189a1.443 1.443 0 0 0-.508.503c-.125.21-.19.441-.19.693v.43Zm1.669 2.804a2.51 2.51 0 0 1-1.129-.242 1.896 1.896 0 0 1-.77-.678 1.83 1.83 0 0 1-.285-1.022v-1.25c0-.343.09-.657.268-.945a2.04 2.04 0 0 1 .704-.687c.29-.172.61-.257.96-.257.343 0 .659.082.945.247.288.164.52.388.697.671.18.283.268.611.268.982 0 .259-.044.446-.13.562a.525.525 0 0 1-.331.209 2.324 2.324 0 0 1-.43.038h-2.436v.44c0 .448.16.803.483 1.066.322.263.724.392 1.207.392.286 0 .508-.034.661-.103.154-.071.273-.141.357-.211.084-.07.161-.104.231-.104.05 0 .092.013.126.042a.3.3 0 0 1 .084.099.227.227 0 0 1 .032.11c0 .071-.062.157-.184.263a1.545 1.545 0 0 1-.52.267 2.592 2.592 0 0 1-.809.111Zm4.976-.484c.266 0 .502-.068.708-.205a1.72 1.72 0 0 0 .488-.466c.12-.175.18-.32.18-.43v-1.576c0-.3-.068-.557-.2-.77a1.399 1.399 0 0 0-.51-.495 1.327 1.327 0 0 0-.656-.173 1.25 1.25 0 0 0-.698.211c-.213.14-.385.317-.514.534a1.33 1.33 0 0 0-.194.693v1.22c0 .243.064.478.194.702.13.224.3.406.51.546.21.14.44.21.692.21m-.042.483c-.329 0-.637-.09-.924-.273a2.05 2.05 0 0 1-.687-.719 1.871 1.871 0 0 1-.258-.95v-1.219c0-.357.086-.68.258-.97.171-.29.4-.522.687-.693.287-.172.602-.257.945-.257.35 0 .642.082.877.246.234.165.407.348.52.551v-3.6a.19.19 0 0 1 .078-.163.296.296 0 0 1 .183-.058.27.27 0 0 1 .184.058c.046.04.068.092.068.163v7.6a.21.21 0 0 1-.068.152.248.248 0 0 1-.184.068.263.263 0 0 1-.173-.068c-.052-.046-.079-.096-.079-.153v-.514c-.104.217-.288.405-.55.562a1.681 1.681 0 0 1-.877.237m4.178-2.804h2.236c.237 0 .395-.025.473-.072.077-.049.114-.152.114-.305 0-.238-.056-.468-.173-.689a1.44 1.44 0 0 0-.492-.54 1.322 1.322 0 0 0-.741-.209c-.265 0-.505.062-.72.189a1.443 1.443 0 0 0-.508.503c-.126.21-.19.441-.19.693v.43Zm1.668 2.804a2.51 2.51 0 0 1-1.128-.242 1.896 1.896 0 0 1-.77-.678 1.83 1.83 0 0 1-.285-1.022v-1.25c0-.343.09-.657.268-.945.178-.287.413-.515.703-.687.29-.172.611-.257.96-.257.343 0 .66.082.946.247.288.164.52.388.698.671.178.283.268.611.268.982 0 .259-.044.446-.131.562a.525.525 0 0 1-.331.209 2.324 2.324 0 0 1-.43.038h-2.437v.44c0 .448.162.803.483 1.066.322.263.725.392 1.209.392.285 0 .507-.034.66-.103.154-.071.273-.141.358-.211.084-.07.16-.104.23-.104.05 0 .091.013.125.042a.3.3 0 0 1 .085.099.227.227 0 0 1 .031.11c0 .071-.06.157-.183.263a1.545 1.545 0 0 1-.52.267 2.592 2.592 0 0 1-.809.111Zm3.507-.063a.254.254 0 0 1-.178-.068.207.207 0 0 1-.074-.153V99.37c0-.063.025-.114.074-.153a.288.288 0 0 1 .178-.058.28.28 0 0 1 .184.058.19.19 0 0 1 .068.153v.524a1.82 1.82 0 0 1 .53-.55c.235-.164.527-.247.877-.247.342 0 .656.086.94.257.283.172.51.403.682.693.171.29.257.614.257.97v2.877a.189.189 0 0 1-.079.163.296.296 0 0 1-.352 0 .187.187 0 0 1-.083-.163v-2.876c0-.244-.065-.475-.195-.693a1.668 1.668 0 0 0-.509-.535 1.24 1.24 0 0 0-.704-.21 1.3 1.3 0 0 0-.645.173c-.206.115-.376.28-.509.494-.133.213-.199.47-.199.77v2.877a.207.207 0 0 1-.074.153.269.269 0 0 1-.189.068m6.96 0c-.518 0-.913-.118-1.186-.357-.273-.238-.41-.616-.41-1.133v-5.65a.19.19 0 0 1 .084-.162.31.31 0 0 1 .168-.058c.07 0 .132.02.185.058a.193.193 0 0 1 .078.163v2.183h1.396c.056 0 .103.022.142.064a.241.241 0 0 1 .058.168c0 .056-.02.106-.058.153a.183.183 0 0 1-.142.067h-1.396v3.014c0 .364.082.622.246.777.165.153.443.23.835.23h.263c.076 0 .136.022.178.069a.24.24 0 0 1 .063.173.25.25 0 0 1-.063.167.223.223 0 0 1-.178.074h-.263Zm2.173 0a.254.254 0 0 1-.178-.068.207.207 0 0 1-.074-.153V99.37c0-.063.025-.114.074-.153a.288.288 0 0 1 .178-.058.3.3 0 0 1 .189.058c.049.039.074.09.074.153v4.524a.207.207 0 0 1-.074.153.269.269 0 0 1-.189.068m0-6.52a.39.39 0 0 1-.278-.115.36.36 0 0 1-.121-.273c0-.105.04-.192.121-.262a.41.41 0 0 1 .278-.104c.112 0 .205.034.278.104.074.07.11.157.11.262a.377.377 0 0 1-.11.273.367.367 0 0 1-.278.116m3.349 6.12c.245 0 .482-.062.71-.185.226-.12.413-.273.561-.45.146-.179.22-.345.22-.498v-.777h-.514c-.344 0-.666.018-.966.056-.3.04-.546.127-.735.263-.189.137-.284.352-.284.645 0 .33.098.57.294.72.196.151.434.226.714.226m-.074.462c-.405 0-.748-.114-1.028-.342-.28-.227-.42-.575-.42-1.044 0-.37.103-.659.31-.86.206-.204.493-.346.86-.427a6.12 6.12 0 0 1 1.276-.119h.567v-.273c0-.246-.044-.487-.132-.725a1.325 1.325 0 0 0-.419-.588c-.193-.154-.45-.23-.772-.23-.224 0-.408.022-.55.067a1.707 1.707 0 0 0-.347.147.452.452 0 0 1-.205.078c-.07 0-.126-.032-.168-.099a.352.352 0 0 1-.063-.184c0-.084.068-.163.205-.235a1.99 1.99 0 0 1 .52-.179 3 3 0 0 1 .63-.068c.454 0 .813.095 1.075.29.263.191.452.44.567.744.116.304.174.631.174.982v2.781a.218.218 0 0 1-.069.153.253.253 0 0 1-.183.068.26.26 0 0 1-.179-.068.204.204 0 0 1-.073-.153v-.514a2.89 2.89 0 0 1-.657.551 1.687 1.687 0 0 1-.919.247m4.273-.063a.254.254 0 0 1-.178-.068.207.207 0 0 1-.074-.153v-7.6c0-.07.025-.123.074-.162a.276.276 0 0 1 .178-.058c.077 0 .14.019.189.058a.195.195 0 0 1 .074.163v7.599a.207.207 0 0 1-.074.153.269.269 0 0 1-.189.068m3.538.063c-.322 0-.6-.04-.835-.12a1.802 1.802 0 0 1-.55-.284c-.134-.109-.2-.213-.2-.31a.24.24 0 0 1 .026-.105.318.318 0 0 1 .074-.095c.03-.027.06-.042.089-.042.07 0 .15.041.242.121.09.08.223.162.398.246.175.085.424.127.746.127.419 0 .717-.08.892-.24a.75.75 0 0 0 .262-.569c0-.252-.061-.449-.183-.593a1.188 1.188 0 0 0-.49-.33 7.59 7.59 0 0 0-.633-.206 4.2 4.2 0 0 1-.636-.225 1.242 1.242 0 0 1-.493-.388c-.126-.168-.19-.396-.19-.683 0-.21.057-.423.169-.64.11-.217.285-.396.519-.536.235-.14.54-.209.919-.209.224 0 .437.023.64.068.204.046.37.105.505.18.132.071.199.147.199.224a.285.285 0 0 1-.032.11.372.372 0 0 1-.08.115.16.16 0 0 1-.12.048.5.5 0 0 1-.21-.074 1.811 1.811 0 0 0-.893-.209c-.271 0-.49.05-.655.146a.918.918 0 0 0-.467.766c0 .211.064.376.189.494a1.3 1.3 0 0 0 .488.28c.2.065.412.13.636.192.223.064.435.148.635.253.199.104.362.25.488.435.126.186.188.44.188.761 0 .392-.143.706-.43.94-.286.235-.69.352-1.207.352" fill="#FFF"/></g></svg>