<svg width="50" height="50" xmlns="http://www.w3.org/2000/svg"><g transform="matrix(1 0 0 -1 0 50)" fill="none" fill-rule="evenodd"><circle stroke="#FFF" stroke-width="3" fill="#E43366" cx="25" cy="25" r="23.5"/><path d="M25.416 16.84c.49 0 .917-.181 1.28-.544.363-.363.544-.79.544-1.28v-.192c0-.49-.181-.917-.544-1.28a1.752 1.752 0 0 0-1.28-.544h-.832c-.49 0-.917.181-1.28.544-.363.363-.544.79-.544 1.28v.192c0 .49.181.917.544 1.28.363.363.79.544 1.28.544h.832Zm0 20.16c.49 0 .917-.181 1.28-.544.363-.363.544-.79.544-1.28V22.184c0-.49-.181-.917-.544-1.28a1.752 1.752 0 0 0-1.28-.544h-.832c-.49 0-.917.181-1.28.544-.363.363-.544.79-.544 1.28v12.992c0 .49.181.917.544 1.28.363.363.79.544 1.28.544h.832Z" fill="#FFF" fill-rule="nonzero"/></g></svg>