<svg id="a2ce86ee-07c4-4d0a-82c1-0c487de97f9a" data-name="Ebene 1" xmlns="http://www.w3.org/2000/svg" viewBox="0 0 175 45"><defs><radialGradient id="e5c04bab-3eb6-4890-8c95-bb29f6d96f26" cx="-7948.82" cy="8566.06" r="41.55" gradientTransform="matrix(.88 0 0 -.88 6998.79 7507.4)" gradientUnits="userSpaceOnUse"><stop offset=".13" stop-color="#ffbd4f"/><stop offset=".19" stop-color="#ffac31"/><stop offset=".25" stop-color="#ff9d17"/><stop offset=".28" stop-color="#ff980e"/><stop offset=".4" stop-color="#ff563b"/><stop offset=".47" stop-color="#ff3750"/><stop offset=".71" stop-color="#f5156c"/><stop offset=".78" stop-color="#eb0878"/><stop offset=".86" stop-color="#e50080"/></radialGradient><radialGradient id="fff15277-fdce-4668-a983-8cde9ed17753" cx="-7964.25" cy="8549.08" r="41.55" gradientTransform="matrix(.88 0 0 -.88 6998.79 7507.4)" gradientUnits="userSpaceOnUse"><stop offset=".3" stop-color="#960e18"/><stop offset=".35" stop-color="#b11927" stop-opacity=".74"/><stop offset=".43" stop-color="#db293d" stop-opacity=".34"/><stop offset=".5" stop-color="#f5334b" stop-opacity=".09"/><stop offset=".53" stop-color="#ff3750" stop-opacity="0"/></radialGradient><radialGradient id="acd0365b-796f-4d65-a66b-b0ae2fe754cc" cx="-7959.11" cy="8575.31" r="30.1" gradientTransform="matrix(.88 0 0 -.88 6998.79 7507.4)" gradientUnits="userSpaceOnUse"><stop offset=".13" stop-color="#fff44f"/><stop offset=".25" stop-color="#ffdc3e"/><stop offset=".51" stop-color="#ff9d12"/><stop offset=".53" stop-color="#ff980e"/></radialGradient><radialGradient id="bec984c8-1336-4a54-8adb-93215268d040" cx="-7968.88" cy="8538.28" r="19.78" gradientTransform="matrix(.88 0 0 -.88 6998.79 7507.4)" gradientUnits="userSpaceOnUse"><stop offset=".35" stop-color="#3a8ee6"/><stop offset=".47" stop-color="#5c79f0"/><stop offset=".67" stop-color="#9059ff"/><stop offset="1" stop-color="#c139e6"/></radialGradient><radialGradient id="a6838566-11cd-40a7-96b2-d0096f67e496" cx="-8021.92" cy="8496.8" r="10.49" gradientTransform="matrix(.85 -.21 -.24 -1 8900.02 6834.65)" gradientUnits="userSpaceOnUse"><stop offset=".21" stop-color="#9059ff" stop-opacity="0"/><stop offset=".28" stop-color="#8c4ff3" stop-opacity=".06"/><stop offset=".75" stop-color="#7716a8" stop-opacity=".45"/><stop offset=".97" stop-color="#6e008b" stop-opacity=".6"/></radialGradient><radialGradient id="a7e1901c-f7d6-4bc0-b47c-bfe6b20d48c6" cx="-7964.76" cy="8567.6" r="14.24" gradientTransform="matrix(.88 0 0 -.88 6998.79 7507.4)" gradientUnits="userSpaceOnUse"><stop offset="0" stop-color="#ffe226"/><stop offset=".12" stop-color="#ffdb27"/><stop offset=".29" stop-color="#ffc82a"/><stop offset=".5" stop-color="#ffa930"/><stop offset=".73" stop-color="#ff7e37"/><stop offset=".79" stop-color="#ff7139"/></radialGradient><radialGradient id="bd018102-86f2-4414-8897-4d96a7bc7977" cx="-7953.45" cy="8576.86" r="60.74" gradientTransform="matrix(.88 0 0 -.88 6998.79 7507.4)" gradientUnits="userSpaceOnUse"><stop offset=".11" stop-color="#fff44f"/><stop offset=".46" stop-color="#ff980e"/><stop offset=".62" stop-color="#ff5634"/><stop offset=".72" stop-color="#ff3647"/><stop offset=".9" stop-color="#e31587"/></radialGradient><radialGradient id="a203e0b7-d30e-4aab-9711-f0caddfcdff9" cx="-8155.15" cy="9421.08" r="44.49" gradientTransform="matrix(.09 .87 .57 -.06 -4604.78 7674.57)" gradientUnits="userSpaceOnUse"><stop offset="0" stop-color="#fff44f"/><stop offset=".06" stop-color="#ffe847"/><stop offset=".17" stop-color="#ffc830"/><stop offset=".3" stop-color="#ff980e"/><stop offset=".36" stop-color="#ff8b16"/><stop offset=".46" stop-color="#ff672a"/><stop offset=".57" stop-color="#ff3647"/><stop offset=".74" stop-color="#e31587"/></radialGradient><radialGradient id="a1d9e43b-0d4b-499c-98a6-e4e412c7f02e" cx="-7964.76" cy="8562.46" r="37.91" gradientTransform="matrix(.88 0 0 -.88 6998.79 7507.4)" gradientUnits="userSpaceOnUse"><stop offset=".14" stop-color="#fff44f"/><stop offset=".48" stop-color="#ff980e"/><stop offset=".59" stop-color="#ff5634"/><stop offset=".66" stop-color="#ff3647"/><stop offset=".9" stop-color="#e31587"/></radialGradient><radialGradient id="e3f108c4-e675-4095-8b6b-b7e941f60d9e" cx="-7954.99" cy="8560.4" r="41.5" gradientTransform="matrix(.88 0 0 -.88 6998.79 7507.4)" gradientUnits="userSpaceOnUse"><stop offset=".09" stop-color="#fff44f"/><stop offset=".23" stop-color="#ffe141"/><stop offset=".51" stop-color="#ffaf1e"/><stop offset=".63" stop-color="#ff980e"/></radialGradient><linearGradient id="bee77285-a4b7-4a79-b4da-24b569635d8c" x1="42.28" y1="37.36" x2="13.31" y2="9.41" gradientTransform="matrix(1 0 0 -1 -1.3 47)" gradientUnits="userSpaceOnUse"><stop offset=".05" stop-color="#fff44f"/><stop offset=".11" stop-color="#ffe847"/><stop offset=".23" stop-color="#ffc830"/><stop offset=".37" stop-color="#ff980e"/><stop offset=".4" stop-color="#ff8b16"/><stop offset=".46" stop-color="#ff672a"/><stop offset=".53" stop-color="#ff3647"/><stop offset=".7" stop-color="#e31587"/></linearGradient><linearGradient id="f5c27e98-59c1-4d48-8385-e3efae888148" x1="41.93" y1="37.51" x2="17.29" y2="12.86" gradientTransform="matrix(1 0 0 -1 -1.3 47)" gradientUnits="userSpaceOnUse"><stop offset=".17" stop-color="#fff44f" stop-opacity=".8"/><stop offset=".27" stop-color="#fff44f" stop-opacity=".63"/><stop offset=".49" stop-color="#fff44f" stop-opacity=".22"/><stop offset=".6" stop-color="#fff44f" stop-opacity="0"/></linearGradient><style>.a4172011-6cc9-4888-9c1e-125604ec9bde{fill:#fff}</style></defs><path class="a4172011-6cc9-4888-9c1e-125604ec9bde" d="M171 1a3 3 0 0 1 3 3v37a3 3 0 0 1-3 3H4a3 3 0 0 1-3-3V4a3 3 0 0 1 3-3h167m0-1H4a4 4 0 0 0-4 4v37a4 4 0 0 0 4 4h167a4 4 0 0 0 4-4V4a4 4 0 0 0-4-4Z"/><path class="a4172011-6cc9-4888-9c1e-125604ec9bde" d="M53.81 33.4v-9.15h6v1.34h-4.35v2.49h4.09v1.34h-4.09v4Zm6.72-9.29h1.84v1.56h-1.84Zm.09 9.29v-6.34h1.62v6.34Zm7.1-5.15-.93.09c-1.07.12-1.61.66-1.61 1.64v3.42h-1.63v-6.34h1.55v1.11a2.13 2.13 0 0 1 2-1.24l.48-.05Zm5.84 2.27h-4.32a1.93 1.93 0 0 0 .52 1.31 1.86 1.86 0 0 0 1.3.43 3 3 0 0 0 1.94-.67l.47 1.11a3.37 3.37 0 0 1-1.11.58 4.4 4.4 0 0 1-1.35.23 3.38 3.38 0 0 1-2.45-.93 3.19 3.19 0 0 1-.93-2.41 3.65 3.65 0 0 1 .37-1.72 2.78 2.78 0 0 1 1.11-1.17 3.09 3.09 0 0 1 1.6-.42 2.62 2.62 0 0 1 2.07.85 3.42 3.42 0 0 1 .76 2.29Zm-3.85-2.09a2 2 0 0 0-.47 1.2h2.92a1.85 1.85 0 0 0-.38-1.2 1.29 1.29 0 0 0-1-.41 1.42 1.42 0 0 0-1.07.41Zm6.8-1.37h1.68v1.21h-1.68v5.13h-1.62v-5.13h-1.21v-1.21h1.22a2.77 2.77 0 0 1 .71-2.06 3.33 3.33 0 0 1 2.2-.76h.64l.1 1.21h-.61a1.65 1.65 0 0 0-1.09.34 1.28 1.28 0 0 0-.33 1Zm3.32 6.05A2.83 2.83 0 0 1 78.69 32a4 4 0 0 1 0-3.5 2.78 2.78 0 0 1 1.14-1.14 3.75 3.75 0 0 1 3.41 0 2.73 2.73 0 0 1 1.14 1.12 4.05 4.05 0 0 1 0 3.5 2.77 2.77 0 0 1-1.14 1.16 3.58 3.58 0 0 1-1.7.4 3.51 3.51 0 0 1-1.71-.43Zm2.9-1.38a2.39 2.39 0 0 0 .42-1.53 2.39 2.39 0 0 0-.42-1.53 1.44 1.44 0 0 0-1.19-.53 1.49 1.49 0 0 0-1.21.53 2.44 2.44 0 0 0-.41 1.53 2.44 2.44 0 0 0 .41 1.53 1.64 1.64 0 0 0 2.31.09Z"/><path class="a4172011-6cc9-4888-9c1e-125604ec9bde" d="m89.13 30.13 2.68 3.27h-1.92l-1.69-2.11-1.68 2.11H84.6l2.66-3.27-2.52-3.07h1.93L88.19 29l1.52-1.93h1.93Zm9.54.55a1.79 1.79 0 0 1-.24 2.32 2.41 2.41 0 0 1-1.56.44h-2.65v-6.39h2.55a2.35 2.35 0 0 1 1.52.43 1.49 1.49 0 0 1 .55 1.23 1.53 1.53 0 0 1-.27.92 1.56 1.56 0 0 1-.74.55 1.41 1.41 0 0 1 .84.5ZM95 29.87h1.72a1.8 1.8 0 0 0 1.08-.29 1 1 0 0 0 .36-.84c0-.72-.48-1.07-1.44-1.07H95Zm3 2.65a1 1 0 0 0 .35-.87c0-.78-.48-1.17-1.46-1.17H95v2.31h1.84a1.82 1.82 0 0 0 1.07-.27Zm4.4-2.98h-.48a1.33 1.33 0 0 0-1 .42 1.3 1.3 0 0 0-.31.92v2.52h-.72V29h.71v.77a1.59 1.59 0 0 1 1.45-.85h.26Zm1.06 3.65a2 2 0 0 1-.73-.8 2.66 2.66 0 0 1-.25-1.21 2.57 2.57 0 0 1 .25-1.19 1.77 1.77 0 0 1 .73-.8 2.3 2.3 0 0 1 2.2 0 1.77 1.77 0 0 1 .73.8 2.58 2.58 0 0 1 .26 1.19 2.67 2.67 0 0 1-.26 1.21 1.88 1.88 0 0 1-.73.8 2.3 2.3 0 0 1-2.2 0Zm2.09-.75a2 2 0 0 0 .37-1.25 1.93 1.93 0 0 0-.35-1.23 1.33 1.33 0 0 0-2 0 1.86 1.86 0 0 0-.36 1.23 2 2 0 0 0 .35 1.25 1.34 1.34 0 0 0 2 0Zm7.82-3.44h.74l-1.63 4.39h-.71L110.53 30l-1.25 3.39h-.69L107 29h.8l1.2 3.54 1.28-3.54h.62l1.26 3.53Zm1.02 3.9.24-.55a2.2 2.2 0 0 0 .71.41 2.92 2.92 0 0 0 .83.12 1.4 1.4 0 0 0 .75-.17.58.58 0 0 0 .18-.8l-.1-.12a1.33 1.33 0 0 0-.57-.25l-.74-.16a1.66 1.66 0 0 1-.85-.44 1.05 1.05 0 0 1-.3-.75 1.14 1.14 0 0 1 .46-.92 1.93 1.93 0 0 1 1.23-.36 2.44 2.44 0 0 1 .92.15 1.69 1.69 0 0 1 .69.42l-.24.53a2 2 0 0 0-1.33-.51 1.33 1.33 0 0 0-.71.17.62.62 0 0 0-.16.86v.06a1 1 0 0 0 .51.24l.76.19a2 2 0 0 1 .92.43 1 1 0 0 1 .29.77 1.1 1.1 0 0 1-.47.92 2.14 2.14 0 0 1-1.26.34 2.61 2.61 0 0 1-1.76-.58Zm8-1.58h-3.21a1.69 1.69 0 0 0 .42 1.16 1.41 1.41 0 0 0 1.07.39 2.18 2.18 0 0 0 1.41-.52l.24.53a2.21 2.21 0 0 1-.74.43 2.92 2.92 0 0 1-.92.16 2.13 2.13 0 0 1-1.61-.61 2.23 2.23 0 0 1-.6-1.67 2.52 2.52 0 0 1 .26-1.18 2 2 0 0 1 .74-.82 2.05 2.05 0 0 1 1.08-.28 1.67 1.67 0 0 1 1.36.57 2.32 2.32 0 0 1 .5 1.58Zm-2.76-1.49a1.68 1.68 0 0 0-.41 1h2.55a1.62 1.62 0 0 0-.33-1 1.1 1.1 0 0 0-.92-.36 1.24 1.24 0 0 0-.91.36Zm6.06-.29h-.48a1.42 1.42 0 0 0-1 .42 1.39 1.39 0 0 0-.29.92v2.52h-.74V29h.72v.77a1.59 1.59 0 0 1 1.45-.85h.26ZM133 33.4l-.64-1.49h-3.06l-.65 1.49h-1.17l2.88-6.35h.92l2.87 6.35Zm-3.33-2.4H132l-1.17-2.71Zm4.92-3.95h2.34a3.33 3.33 0 0 1 2.43.83 3.15 3.15 0 0 1 .85 2.34 3.19 3.19 0 0 1-.85 2.35 3.33 3.33 0 0 1-2.43.83h-2.34Zm2.27 5.41a2 2 0 0 0 2.22-1.64 2 2 0 0 0 0-.6 2 2 0 0 0-1.63-2.22 1.75 1.75 0 0 0-.56 0h-1.11v4.46Zm4.25-5.41h2.35a3.31 3.31 0 0 1 2.42.83 3.11 3.11 0 0 1 .86 2.34 3.14 3.14 0 0 1-.86 2.35 3.29 3.29 0 0 1-2.42.83h-2.35Zm2.28 5.41a2 2 0 0 0 2.2-1.7 2 2 0 0 0 0-.54 2 2 0 0 0-1.66-2.22 1.63 1.63 0 0 0-.54 0h-1.11v4.46Zm4.18-1.02v-.92h2.69v.92Zm4.94 1.65a2.69 2.69 0 0 1-1-1.14 3.7 3.7 0 0 1-.37-1.73 4 4 0 0 1 .36-1.73 2.72 2.72 0 0 1 1.05-1.13 3.16 3.16 0 0 1 1.62-.39 3.09 3.09 0 0 1 1.6.39 2.72 2.72 0 0 1 1.05 1.13 3.82 3.82 0 0 1 .36 1.73 3.7 3.7 0 0 1-.37 1.73 2.57 2.57 0 0 1-1 1.14 3.42 3.42 0 0 1-3.2 0Zm3-1.14a2.69 2.69 0 0 0 .49-1.73 2.68 2.68 0 0 0-.49-1.73 1.65 1.65 0 0 0-1.36-.59 1.69 1.69 0 0 0-1.38.59 2.68 2.68 0 0 0-.49 1.73 2.69 2.69 0 0 0 .49 1.73 1.7 1.7 0 0 0 1.38.61 1.66 1.66 0 0 0 1.33-.56Zm6.8-4.9h1.09v6.35h-.87l-3.41-4.4v4.4H158v-6.35h.87l3.41 4.43Zm-102.5-8.43-.75-1.76h-3.6l-.77 1.76h-1l3.18-7.12h.87l3.16 7.12Zm-4-2.59h2.9l-1.45-3.37Zm8.79-2.34h1l-2.14 4.92h-.92l-2.12-4.92h1.07l1.54 3.77Zm4.9.37a2.1 2.1 0 0 1 .5 1.48v3h-1v-.82a1.45 1.45 0 0 1-.58.67 1.84 1.84 0 0 1-.92.22 2.11 2.11 0 0 1-.92-.19 1.46 1.46 0 0 1-.58-.52 1.28 1.28 0 0 1-.23-.78 1.24 1.24 0 0 1 .27-.85 1.64 1.64 0 0 1 .92-.43 8.65 8.65 0 0 1 1.76-.14h.24v-.28a1.14 1.14 0 0 0-.24-.82 1 1 0 0 0-.77-.26 3.23 3.23 0 0 0-1.6.55l-.35-.72a3.67 3.67 0 0 1 .92-.43 4 4 0 0 1 1.08-.17 2 2 0 0 1 1.5.49Zm-.86 3.49a1.38 1.38 0 0 0 .36-1v-.26h-.19a8.18 8.18 0 0 0-1.21.06 1.27 1.27 0 0 0-.6.24.63.63 0 0 0-.19.48.77.77 0 0 0 .26.59.9.9 0 0 0 .66.24 1.15 1.15 0 0 0 .91-.35ZM71 11.49h1.17v1.06H71Zm.08 7.13v-4.93h1v4.93Zm2.13 0V11.5h1v7.12Zm5.67-4.56a2.13 2.13 0 0 1 .48 1.48v3h-1v-.82a1.43 1.43 0 0 1-.57.67 1.74 1.74 0 0 1-.92.22 2.08 2.08 0 0 1-.92-.19 1.65 1.65 0 0 1-.64-.56 1.5 1.5 0 0 1-.22-.78 1.25 1.25 0 0 1 .28-.85 1.58 1.58 0 0 1 .92-.43 8.75 8.75 0 0 1 1.77-.14h.23v-.28a1.19 1.19 0 0 0-.24-.82 1 1 0 0 0-.78-.26 3.21 3.21 0 0 0-1.67.51l-.31-.71a3.6 3.6 0 0 1 .93-.44 3.91 3.91 0 0 1 1.07-.16 2 2 0 0 1 1.59.56ZM78 17.55a1.36 1.36 0 0 0 .35-1v-.26h-.18a8.11 8.11 0 0 0-1.21.06 1.35 1.35 0 0 0-.61.24.66.66 0 0 0-.18.48.77.77 0 0 0 .26.59.9.9 0 0 0 .66.24 1.15 1.15 0 0 0 .91-.35Zm6.24-3.66a2 2 0 0 1 .77.92 3 3 0 0 1 .28 1.34A3.14 3.14 0 0 1 85 17.5a2 2 0 0 1-.78.92 2.18 2.18 0 0 1-2.11.09 1.51 1.51 0 0 1-.64-.68v.85h-1V11.5h1v3a1.53 1.53 0 0 1 .64-.69 1.88 1.88 0 0 1 1-.24 2 2 0 0 1 1.13.32Zm-.36 3.49a2 2 0 0 0 .37-1.3 2 2 0 0 0-.36-1.28 1.29 1.29 0 0 0-1-.42 1.25 1.25 0 0 0-1 .46 2.12 2.12 0 0 0-.35 1.29 2.1 2.1 0 0 0 .35 1.29 1.3 1.3 0 0 0 2 0Zm2.24 1.24V11.5h1v7.12Zm6.35-2.29H89q.12 1.56 1.56 1.56a2.4 2.4 0 0 0 1.56-.51l.31.71a2.72 2.72 0 0 1-.85.47 3.26 3.26 0 0 1-1 .16A2.36 2.36 0 0 1 88 16.57a2.54 2.54 0 0 1 0-.39 2.8 2.8 0 0 1 .3-1.34 2.16 2.16 0 0 1 .84-.93 2.29 2.29 0 0 1 1.23-.32 2 2 0 0 1 1.57.65 2.6 2.6 0 0 1 .55 1.76Zm-3-1.64a1.7 1.7 0 0 0-.47 1.05h2.6a1.72 1.72 0 0 0-.35-1.05 1.1 1.1 0 0 0-.92-.37 1.17 1.17 0 0 0-.9.37Zm9.72-.63a2.13 2.13 0 0 1 .48 1.51v3.05h-1v-.82a1.47 1.47 0 0 1-.57.66 1.75 1.75 0 0 1-.92.23 2.09 2.09 0 0 1-.92-.2 1.48 1.48 0 0 1-.86-1.33 1.2 1.2 0 0 1 .28-.85 1.58 1.58 0 0 1 .92-.43 8 8 0 0 1 1.76-.14h.23v-.29a1.21 1.21 0 0 0-.23-.82 1 1 0 0 0-.78-.26 3.31 3.31 0 0 0-1.67.52l-.31-.72a3.67 3.67 0 0 1 .92-.43 3.92 3.92 0 0 1 1.07-.17 2 2 0 0 1 1.6.49Zm-.87 3.49a1.32 1.32 0 0 0 .35-1v-.26h-.17a8.24 8.24 0 0 0-1.22.06 1.31 1.31 0 0 0-.6.24.62.62 0 0 0-.18.48.74.74 0 0 0 .26.59.91.91 0 0 0 .65.24 1.12 1.12 0 0 0 .91-.35Zm2.12.51.31-.74a2.72 2.72 0 0 0 1.77.59 1.43 1.43 0 0 0 .76-.16.58.58 0 0 0 .09-.89 1.53 1.53 0 0 0-.62-.25l-.81-.18a2 2 0 0 1-1-.5 1.19 1.19 0 0 1-.33-.86 1.28 1.28 0 0 1 .54-1.08 2.24 2.24 0 0 1 1.42-.42 3 3 0 0 1 1 .17 2.4 2.4 0 0 1 .82.47l-.31.72a2.38 2.38 0 0 0-1.5-.58 1.27 1.27 0 0 0-.74.18.58.58 0 0 0-.27.49.55.55 0 0 0 .17.41 1.07 1.07 0 0 0 .53.24l.84.2a2 2 0 0 1 1 .49 1.19 1.19 0 0 1 .33.93 1.23 1.23 0 0 1-.54 1.05 2.48 2.48 0 0 1-1.46.38 3.1 3.1 0 0 1-2-.66Z"/><path d="M43.3 16.14a9.91 9.91 0 0 0-3.5-4.42A18.39 18.39 0 0 1 41.57 17c-2-4.92-5.32-6.9-8-11.22-.14-.22-.28-.44-.41-.67s-.14-.25-.2-.36a3.38 3.38 0 0 1-.26-.69.05.05 0 0 0 0-.05h-.06a12.74 12.74 0 0 0-6 9.7 8.69 8.69 0 0 0-4.8 1.85c-.15-.12-.3-.24-.45-.34a8 8 0 0 1 0-4.27 12.94 12.94 0 0 0-4.2 3.25c-.69-.88-.64-3.77-.6-4.37a2.77 2.77 0 0 0-.59.31 11.81 11.81 0 0 0-1.7 1.46 15.18 15.18 0 0 0-1.63 1.95 14.71 14.71 0 0 0-2.34 5.29v.12c0 .15-.15.92-.17 1.08a16.34 16.34 0 0 0-.29 2.41v.09a17.45 17.45 0 0 0 34.65 2.95c0-.23 0-.45.08-.68a17.94 17.94 0 0 0-1.13-8.76ZM23.19 29.8l.24.12Zm18.38-12.75Z" style="fill:url(#bee77285-a4b7-4a79-b4da-24b569635d8c)"/><path d="M43.3 16.14a9.91 9.91 0 0 0-3.5-4.42A18.39 18.39 0 0 1 41.57 17 15.85 15.85 0 0 1 41 28.83a15 15 0 0 1-14.42 8.48A17.58 17.58 0 0 1 9.86 23a7.49 7.49 0 0 1 .14-2.87 13 13 0 0 0-.28 2.41v.09a17.45 17.45 0 0 0 34.64 2.95c0-.23.06-.45.08-.68a17.94 17.94 0 0 0-1.13-8.76Z" style="fill:url(#e5c04bab-3eb6-4890-8c95-bb29f6d96f26)"/><path d="M43.3 16.14a9.91 9.91 0 0 0-3.5-4.42A18.39 18.39 0 0 1 41.57 17 15.85 15.85 0 0 1 41 28.83a15 15 0 0 1-14.42 8.48A17.58 17.58 0 0 1 9.86 23a7.49 7.49 0 0 1 .14-2.87 13 13 0 0 0-.28 2.41v.09a17.45 17.45 0 0 0 34.64 2.95c0-.23.06-.45.08-.68a17.94 17.94 0 0 0-1.13-8.76Z" style="fill:url(#fff15277-fdce-4668-a983-8cde9ed17753)"/><path d="m34.82 18.19.1.08a9 9 0 0 0-1.62-2.11c-5.42-5.43-1.42-11.77-.74-12.09a12.72 12.72 0 0 0-6 9.69h.61a8.81 8.81 0 0 1 7.65 4.47Z" style="fill:url(#acd0365b-796f-4d65-a66b-b0ae2fe754cc)"/><path d="M27.18 19.27a4.19 4.19 0 0 1-2.1 1.94c-5 0-5.77 3-5.77 3a7.4 7.4 0 0 0 4.11 5.71l.3.14.51.21a8 8 0 0 0 2.27.43c8.7.41 10.38-10.4 4.11-13.53a6 6 0 0 1 4.2 1 8.79 8.79 0 0 0-7.64-4.47h-.61a8.8 8.8 0 0 0-4.81 1.85c.27.23.57.53 1.2 1.15 1.19 1.17 4.22 2.38 4.23 2.52Z" style="fill:url(#bec984c8-1336-4a54-8adb-93215268d040)"/><path d="M27.18 19.27a4.19 4.19 0 0 1-2.1 1.94c-5 0-5.77 3-5.77 3a7.4 7.4 0 0 0 4.11 5.71l.3.14.51.21a8 8 0 0 0 2.27.43c8.7.41 10.38-10.4 4.11-13.53a6 6 0 0 1 4.2 1 8.79 8.79 0 0 0-7.64-4.47h-.61a8.8 8.8 0 0 0-4.81 1.85c.27.23.57.53 1.2 1.15 1.19 1.17 4.22 2.38 4.23 2.52Z" style="fill:url(#a6838566-11cd-40a7-96b2-d0096f67e496)"/><path d="m20.94 15 .36.24a8.14 8.14 0 0 1-.05-4.24 12.94 12.94 0 0 0-4.2 3.25 8.58 8.58 0 0 1 3.89.75Z" style="fill:url(#a7e1901c-f7d6-4bc0-b47c-bfe6b20d48c6)"/><path d="M9.86 23a17.57 17.57 0 0 0 16.75 14.31A15 15 0 0 0 41 28.83a15.8 15.8 0 0 0 .55-11.78c.62 4-1.44 8-4.65 10.61-6.27 5.1-12.26 3.08-13.47 2.25l-.25-.12a8 8 0 0 1-4.84-7.93 4.46 4.46 0 0 1-4.13-2.6 6.59 6.59 0 0 1 6.42-.26 8.69 8.69 0 0 0 6.55.26c0-.14-3-1.35-4.22-2.52-.64-.62-.94-.92-1.2-1.15l-.45-.34L21 15a8.77 8.77 0 0 0-3.89-.78c-.69-.87-.64-3.76-.6-4.37a3.56 3.56 0 0 0-.58.31 13.31 13.31 0 0 0-1.71 1.46 15.35 15.35 0 0 0-1.64 2 14.67 14.67 0 0 0-2.34 5.28 12.94 12.94 0 0 0-.38 4.1Z" style="fill:url(#bd018102-86f2-4414-8897-4d96a7bc7977)"/><path d="M33.3 16.15a9.25 9.25 0 0 1 1.62 2.12l.27.21c4 3.65 1.88 8.81 1.72 9.17C40.13 25 42.18 21.09 41.57 17c-2-4.92-5.33-6.9-8-11.22l-.42-.67-.19-.36a3.38 3.38 0 0 1-.26-.69c-.68.32-4.68 6.66.75 12.08Z" style="fill:url(#a203e0b7-d30e-4aab-9711-f0caddfcdff9)"/><path d="M35.19 18.49a3.2 3.2 0 0 0-.27-.22l-.1-.08a6 6 0 0 0-4.21-1c6.27 3.14 4.59 13.94-4.11 13.54a7.68 7.68 0 0 1-2.27-.44 5.49 5.49 0 0 1-.51-.21l-.3-.14c1.21.83 7.2 2.85 13.46-2.25.16-.37 2.23-5.52-1.73-9.17Z" style="fill:url(#a1d9e43b-0d4b-499c-98a6-e4e412c7f02e)"/><path d="M19.31 24.2s.81-3 5.77-3a4.18 4.18 0 0 0 2.1-1.93 8.69 8.69 0 0 1-6.55-.27 6.61 6.61 0 0 0-6.42.26 4.49 4.49 0 0 0 4.14 2.6 7.93 7.93 0 0 0 4.83 7.93l.24.11a7.36 7.36 0 0 1-4.11-5.7Z" style="fill:url(#e3f108c4-e675-4095-8b6b-b7e941f60d9e)"/><path d="M43.3 16.14a9.91 9.91 0 0 0-3.5-4.42A18.39 18.39 0 0 1 41.57 17c-2-4.92-5.32-6.9-8-11.22-.14-.22-.28-.44-.41-.67s-.14-.25-.2-.36a3.38 3.38 0 0 1-.26-.69.05.05 0 0 0 0-.05h-.06a12.74 12.74 0 0 0-6 9.7h.61a8.8 8.8 0 0 1 7.65 4.46 6 6 0 0 0-4.21-1c6.28 3.14 4.59 13.94-4.1 13.54a7.62 7.62 0 0 1-2.27-.44c-.17-.06-.35-.13-.52-.21l-.29-.14-.25-.13.24.12a7.36 7.36 0 0 1-4.11-5.71s.8-3 5.77-3a4.26 4.26 0 0 0 2.1-1.93c0-.14-3.05-1.35-4.23-2.52-.64-.62-.94-.92-1.2-1.15l-.45-.34a8 8 0 0 1 0-4.26 12.78 12.78 0 0 0-4.2 3.24c-.69-.88-.64-3.77-.6-4.37a3.32 3.32 0 0 0-.59.31 12.47 12.47 0 0 0-1.7 1.46 15.27 15.27 0 0 0-1.63 2 14.67 14.67 0 0 0-2.34 5.28v.12c0 .15-.18.93-.2 1.1a22 22 0 0 0-.26 2.43v.09a17.45 17.45 0 0 0 34.65 2.95c0-.22 0-.44.08-.67a18 18 0 0 0-1.13-8.77Zm-1.73.9Z" style="fill:url(#f5c27e98-59c1-4d48-8385-e3efae888148)"/></svg>