<?xml version="1.0" encoding="UTF-8"?>
<svg width="14px" height="14px" viewBox="0 0 14 14" version="1.1" xmlns="http://www.w3.org/2000/svg" xmlns:xlink="http://www.w3.org/1999/xlink">
    <title>icons/info light</title>
    <g id="icons/info-light" stroke="none" stroke-width="1" fill="none" fill-rule="evenodd">
        <g id="Group" transform="translate(1.000000, 1.000000)">
            <circle id="Oval" stroke="#FFFFFF" stroke-width="1.2" fill="#E43366" cx="6" cy="6" r="6.6"></circle>
            <path d="M6.81973256,4.26035156 C7.15283836,4.26035156 7.43679741,4.14334476 7.67160969,3.90933115 C7.90642198,3.67531755 8.02382812,3.39232435 8.02382812,3.06035156 C8.02382812,2.72837877 7.90778717,2.44538558 7.67570526,2.21137197 C7.44362335,1.97735837 7.15829911,1.86035156 6.81973256,1.86035156 C6.48662676,1.86035156 6.2040329,1.97735837 5.97195099,2.21137197 C5.73986908,2.44538558 5.62382813,2.72837877 5.62382813,3.06035156 C5.62382813,3.39232435 5.74123427,3.67531755 5.97604656,3.90933115 C6.21085884,4.14334476 6.49208751,4.26035156 6.81973256,4.26035156 Z" id="Path" fill="#FFFFFF" fill-rule="nonzero"></path>
            <path d="M4.92704368,9.78046875 C5.77527652,9.78046875 6.57610812,9.33984048 7.32953848,8.45858393 L7.32953848,8.45858393 L7.07506862,8.35806037 C6.76072351,8.68308655 6.49128484,8.90758917 6.26675261,9.03156823 C6.18192933,9.08183001 6.09710605,9.1069609 6.01228276,9.1069609 C5.96238671,9.1069609 5.91498546,9.09104467 5.87007902,9.05921221 C5.82517257,9.02737974 5.80271935,8.9930342 5.80271935,8.95617556 C5.80271935,8.89251063 5.84513099,8.75847922 5.92995428,8.55408132 L5.92995428,8.55408132 L7.46425781,4.98046875 L7.01519336,4.98046875 L4.47797923,5.25690854 L4.38068193,5.45795566 C4.48546363,5.45460488 4.57527652,5.45292948 4.6501206,5.45292948 C4.81477756,5.45292948 4.94450729,5.48141116 5.03930979,5.53837451 C5.13411228,5.59533786 5.18151353,5.66067817 5.18151353,5.73439545 C5.18151353,5.85167294 5.13161748,6.02591378 5.03182538,6.25711796 L5.03182538,6.25711796 L3.99149274,8.65963105 C3.90666945,8.85062582 3.86425781,9.00811273 3.86425781,9.13209179 C3.86425781,9.31973577 3.96030771,9.47470959 4.1524075,9.59701325 C4.34450729,9.71931692 4.60271935,9.78046875 4.92704368,9.78046875 Z" id="Path" fill="#FFFFFF" fill-rule="nonzero"></path>
        </g>
    </g>
</svg>