<svg width="50" height="50" xmlns="http://www.w3.org/2000/svg"><g fill="#FFF" fill-rule="evenodd"><path d="M25 45C13.954 45 5 36.046 5 25S13.954 5 25 5s20 8.954 20 20-8.954 20-20 20m0-45C11.193 0 0 11.193 0 25s11.193 25 25 25 25-11.193 25-25S38.807 0 25 0" fill-opacity=".346"/><path d="M50 25C50 11.193 38.807 0 25 0a2.5 2.5 0 1 0 0 5h.006C36.046 5.004 45 13.96 45 25a19.82 19.82 0 0 1-2.671 9.971l.021.013c-.214.368-.345.79-.345 1.247a2.5 2.5 0 0 0 2.5 2.5 2.49 2.49 0 0 0 2.156-1.255l.003.003A24.87 24.87 0 0 0 50 25"/></g></svg>