<svg version="1.1" id="Ebene_1" xmlns="http://www.w3.org/2000/svg" x="0" y="0" viewBox="0 0 48 48" style="enable-background:new 0 0 48 48" xml:space="preserve"><style>.st1{fill:url(#Combined-Shape_00000065076958852685246640000016463311301086910608_)}</style><g id="identity-overview"><g id="KILT-sporran---laoding-balance" transform="translate(-221 -261)"><linearGradient id="Combined-Shape_00000119816824678642208280000010115223327520045217_" gradientUnits="userSpaceOnUse" x1="221" y1="285" x2="269" y2="285"><stop offset="0" style="stop-color:#fff"/><stop offset="1" style="stop-color:#fff;stop-opacity:0"/></linearGradient><path id="Combined-Shape" style="fill:url(#Combined-Shape_00000119816824678642208280000010115223327520045217_)" d="M245 261c13.3 0 24 10.7 24 24s-10.7 24-24 24-24-10.7-24-24 10.7-24 24-24zm.2 6c-10.1 0-18.2 8.2-18.2 18.2s8.2 18.2 18.2 18.2 18.2-8.2 18.2-18.2-8.1-18.2-18.2-18.2z"/></g></g><path d="M45 24.2c-1.4 0-2.5 1-2.7 2.3-1.1 9-8.8 15.9-18.1 15.9C14.2 42.5 6 34.3 6 24.2H0C.1 37.4 10.8 48 24 48c12.1 0 22.1-9 23.8-20.6.2-1.7-1.1-3.2-2.8-3.2z" style="fill:#fff"/></svg>