<svg width="71" height="70" xmlns="http://www.w3.org/2000/svg" xmlns:xlink="http://www.w3.org/1999/xlink"><defs><path id="a" d="M0 0h70v70H0z"/></defs><g fill="none" fill-rule="evenodd"><g transform="translate(.803)"><mask id="b" fill="#fff"><use xlink:href="#a"/></mask><path d="M70 35c0 19.33-15.67 35-35 35S0 54.33 0 35 15.67 0 35 0s35 15.67 35 35" fill="#977A13" mask="url(#b)"/></g><path d="M29.283 53.16 16.838 40.715c-.692-.692-1.048-1.394-1.07-2.107-.022-.713.28-1.383.908-2.01.669-.67 1.36-.994 2.074-.971.713.02 1.415.378 2.106 1.069l8.427 8.426L51.595 22.81c.69-.691 1.394-1.047 2.106-1.07.713-.02 1.394.293 2.042.94.648.649.962 1.33.94 2.043-.022.712-.378 1.415-1.07 2.106l-26.33 26.33z" fill="#FFF"/></g></svg>