<svg width="20" height="20" xmlns="http://www.w3.org/2000/svg"><circle fill="#752143" cx="10" cy="10" r="10"/><path d="M10 18a8 8 0 1 1 0-16 8 8 0 0 1 0 16m0-18C4.477 0 0 4.477 0 10s4.477 10 10 10 10-4.477 10-10S15.523 0 10 0" fill-opacity=".5" fill="#FFF"/><path d="M9.845 5c-.182 0-.341.082-.476.246a.88.88 0 0 0-.202.577v5.865a.88.88 0 0 0 .202.578c.135.163.294.245.476.245h.31c.182 0 .341-.082.476-.245a.88.88 0 0 0 .202-.578V5.823a.88.88 0 0 0-.202-.577c-.135-.164-.294-.246-.476-.246h-.31Zm0 9.1c-.182 0-.341.082-.476.246a.88.88 0 0 0-.202.577v.087a.88.88 0 0 0 .202.578c.135.163.294.245.476.245h.31c.182 0 .341-.082.476-.245a.88.88 0 0 0 .202-.578v-.087a.88.88 0 0 0-.202-.577c-.135-.164-.294-.246-.476-.246h-.31Z" fill="#FFF"/></svg>