<svg width="485" height="187" xmlns="http://www.w3.org/2000/svg"><path d="M130.5 181v-32.5H151v-35.25h-20.5V6H93.25L3.75 124.5v24h90V181h36.75Zm-36.75-67.75H53l40.75-55.5v55.5ZM248.5 184c12.167 0 22.667-2.583 31.5-7.75 8.833-5.167 15.625-12.167 20.375-21s8.208-18.375 10.375-28.625S314 105.333 314 93.5c0-11.833-1.042-22.833-3.125-33-2.083-10.167-5.5-19.708-10.25-28.625-4.75-8.917-11.542-15.958-20.375-21.125S260.833 3 248.5 3c-12.167 0-22.667 2.542-31.5 7.625-8.833 5.083-15.667 12.083-20.5 21S188.167 50.083 186 60.25c-2.167 10.167-3.25 21.25-3.25 33.25 0 9.167.625 17.833 1.875 26 1.25 8.167 3.417 16.25 6.5 24.25s7.042 14.917 11.875 20.75 11.125 10.542 18.875 14.125S238.5 184 248.5 184Zm0-36c-6.833 0-12.417-2.75-16.75-8.25s-7.333-12.125-9-19.875c-1.667-7.75-2.5-16.542-2.5-26.375 0-15.833 2.25-28.875 6.75-39.125S238.667 39 248.5 39c6.667 0 12.208 2.708 16.625 8.125s7.417 12 9 19.75c1.583 7.75 2.375 16.625 2.375 26.625 0 15.833-2.208 28.875-6.625 39.125S258.333 148 248.5 148Zm212.75 33v-32.5h20.5v-35.25h-20.5V6H424l-89.5 118.5v24h90V181h36.75Zm-36.75-67.75h-40.75l40.75-55.5v55.5Z" fill="none" fill-rule="nonzero" stroke="#FFF" stroke-width="6" fill-opacity="0"/></svg>