<svg width="1440" height="1024" xmlns="http://www.w3.org/2000/svg" xmlns:xlink="http://www.w3.org/1999/xlink"><defs><filter x="-7.4%" y="-14.1%" width="114.8%" height="128.2%" filterUnits="objectBoundingBox" id="e"><feGaussianBlur stdDeviation="4" in="SourceGraphic"/></filter><filter x="-7.4%" y="-14.1%" width="114.8%" height="128.2%" filterUnits="objectBoundingBox" id="f"><feGaussianBlur stdDeviation="4" in="SourceGraphic"/></filter><filter x="-7.4%" y="-14.1%" width="114.8%" height="128.2%" filterUnits="objectBoundingBox" id="g"><feGaussianBlur stdDeviation="4" in="SourceGraphic"/></filter><filter x="-7.4%" y="-14.1%" width="114.8%" height="128.2%" filterUnits="objectBoundingBox" id="h"><feGaussianBlur stdDeviation="4" in="SourceGraphic"/></filter><filter x="-7.4%" y="-14.1%" width="114.8%" height="128.2%" filterUnits="objectBoundingBox" id="i"><feGaussianBlur stdDeviation="4" in="SourceGraphic"/></filter><filter x="-7.4%" y="-14.1%" width="114.8%" height="128.2%" filterUnits="objectBoundingBox" id="j"><feGaussianBlur stdDeviation="4" in="SourceGraphic"/></filter><filter x="-7.4%" y="-14.1%" width="114.8%" height="128.2%" filterUnits="objectBoundingBox" id="k"><feGaussianBlur stdDeviation="4" in="SourceGraphic"/></filter><filter x="-7.4%" y="-14.1%" width="114.8%" height="128.2%" filterUnits="objectBoundingBox" id="l"><feGaussianBlur stdDeviation="4" in="SourceGraphic"/></filter><filter x="-7.4%" y="-14.1%" width="114.8%" height="128.2%" filterUnits="objectBoundingBox" id="m"><feGaussianBlur stdDeviation="4" in="SourceGraphic"/></filter><filter x="-7.4%" y="-14.1%" width="114.8%" height="128.2%" filterUnits="objectBoundingBox" id="n"><feGaussianBlur stdDeviation="4" in="SourceGraphic"/></filter><filter x="-7.4%" y="-14.1%" width="114.8%" height="128.2%" filterUnits="objectBoundingBox" id="o"><feGaussianBlur stdDeviation="4" in="SourceGraphic"/></filter><filter x="-7.4%" y="-14.1%" width="114.8%" height="128.2%" filterUnits="objectBoundingBox" id="p"><feGaussianBlur stdDeviation="4" in="SourceGraphic"/></filter><filter x="-7.4%" y="-14.1%" width="114.8%" height="128.2%" filterUnits="objectBoundingBox" id="q"><feGaussianBlur stdDeviation="4" in="SourceGraphic"/></filter><filter x="-7.4%" y="-14.1%" width="114.8%" height="128.2%" filterUnits="objectBoundingBox" id="r"><feGaussianBlur stdDeviation="4" in="SourceGraphic"/></filter><filter x="-7.4%" y="-14.1%" width="114.8%" height="128.2%" filterUnits="objectBoundingBox" id="s"><feGaussianBlur stdDeviation="4" in="SourceGraphic"/></filter><filter x="-7.4%" y="-14.1%" width="114.8%" height="128.2%" filterUnits="objectBoundingBox" id="t"><feGaussianBlur stdDeviation="4" in="SourceGraphic"/></filter><filter x="-7.4%" y="-14.1%" width="114.8%" height="128.2%" filterUnits="objectBoundingBox" id="u"><feGaussianBlur stdDeviation="4" in="SourceGraphic"/></filter><filter x="-7.4%" y="-14.1%" width="114.8%" height="128.2%" filterUnits="objectBoundingBox" id="v"><feGaussianBlur stdDeviation="4" in="SourceGraphic"/></filter><filter x="-7.4%" y="-14.1%" width="114.8%" height="128.2%" filterUnits="objectBoundingBox" id="w"><feGaussianBlur stdDeviation="4" in="SourceGraphic"/></filter><filter x="-7.4%" y="-14.1%" width="114.8%" height="128.2%" filterUnits="objectBoundingBox" id="x"><feGaussianBlur stdDeviation="4" in="SourceGraphic"/></filter><filter x="-7.4%" y="-14.1%" width="114.8%" height="128.2%" filterUnits="objectBoundingBox" id="y"><feGaussianBlur stdDeviation="4" in="SourceGraphic"/></filter><filter x="-7.4%" y="-14.1%" width="114.8%" height="128.2%" filterUnits="objectBoundingBox" id="z"><feGaussianBlur stdDeviation="4" in="SourceGraphic"/></filter><filter x="-4.1%" y="-10.8%" width="108.2%" height="121.6%" filterUnits="objectBoundingBox" id="A"><feGaussianBlur stdDeviation="6" in="SourceGraphic"/></filter><filter x="-4.2%" y="-10.9%" width="108.4%" height="121.8%" filterUnits="objectBoundingBox" id="B"><feGaussianBlur stdDeviation="10" in="SourceGraphic"/></filter><filter x="-4.2%" y="-10.9%" width="108.4%" height="121.8%" filterUnits="objectBoundingBox" id="C"><feGaussianBlur stdDeviation="10" in="SourceGraphic"/></filter><filter x="-.5%" y="-7.2%" width="101.1%" height="114.5%" filterUnits="objectBoundingBox" id="D"><feGaussianBlur stdDeviation="10" in="SourceGraphic"/></filter><filter x="-.5%" y="-7.2%" width="101.1%" height="114.5%" filterUnits="objectBoundingBox" id="E"><feGaussianBlur stdDeviation="10" in="SourceGraphic"/></filter><filter x="-7.3%" y="-14%" width="114.5%" height="127.9%" filterUnits="objectBoundingBox" id="F"><feGaussianBlur stdDeviation="10" in="SourceGraphic"/></filter><filter x="-8.9%" y="-15.6%" width="117.9%" height="131.2%" filterUnits="objectBoundingBox" id="G"><feGaussianBlur stdDeviation="10" in="SourceGraphic"/></filter><filter x="1.2%" y="-5.5%" width="97.6%" height="111%" filterUnits="objectBoundingBox" id="H"><feGaussianBlur stdDeviation="6" in="SourceGraphic"/></filter><filter x="-7.4%" y="-14.1%" width="114.8%" height="128.2%" filterUnits="objectBoundingBox" id="I"><feGaussianBlur stdDeviation="4" in="SourceGraphic"/></filter><filter x="-7.4%" y="-14.1%" width="114.8%" height="128.2%" filterUnits="objectBoundingBox" id="J"><feGaussianBlur stdDeviation="4" in="SourceGraphic"/></filter><filter x="-7.4%" y="-14.1%" width="114.8%" height="128.2%" filterUnits="objectBoundingBox" id="K"><feGaussianBlur stdDeviation="4" in="SourceGraphic"/></filter><filter x="-7.4%" y="-14.1%" width="114.8%" height="128.2%" filterUnits="objectBoundingBox" id="L"><feGaussianBlur stdDeviation="4" in="SourceGraphic"/></filter><filter x="-7.4%" y="-14.1%" width="114.8%" height="128.2%" filterUnits="objectBoundingBox" id="M"><feGaussianBlur stdDeviation="4" in="SourceGraphic"/></filter><filter x="-7.4%" y="-14.1%" width="114.8%" height="128.2%" filterUnits="objectBoundingBox" id="N"><feGaussianBlur stdDeviation="4" in="SourceGraphic"/></filter><filter x="-7.4%" y="-14.1%" width="114.8%" height="128.2%" filterUnits="objectBoundingBox" id="O"><feGaussianBlur stdDeviation="4" in="SourceGraphic"/></filter><filter x="-7.4%" y="-14.1%" width="114.8%" height="128.2%" filterUnits="objectBoundingBox" id="P"><feGaussianBlur stdDeviation="4" in="SourceGraphic"/></filter><filter x="-7.4%" y="-14.1%" width="114.8%" height="128.2%" filterUnits="objectBoundingBox" id="Q"><feGaussianBlur stdDeviation="4" in="SourceGraphic"/></filter><filter x="-7.4%" y="-14.1%" width="114.8%" height="128.2%" filterUnits="objectBoundingBox" id="R"><feGaussianBlur stdDeviation="4" in="SourceGraphic"/></filter><filter x="-7.4%" y="-14.1%" width="114.8%" height="128.2%" filterUnits="objectBoundingBox" id="S"><feGaussianBlur stdDeviation="4" in="SourceGraphic"/></filter><filter x="-7.4%" y="-14.1%" width="114.8%" height="128.2%" filterUnits="objectBoundingBox" id="T"><feGaussianBlur stdDeviation="4" in="SourceGraphic"/></filter><filter x="-7.4%" y="-14.1%" width="114.8%" height="128.2%" filterUnits="objectBoundingBox" id="U"><feGaussianBlur stdDeviation="4" in="SourceGraphic"/></filter><filter x="-7.4%" y="-14.1%" width="114.8%" height="128.2%" filterUnits="objectBoundingBox" id="V"><feGaussianBlur stdDeviation="4" in="SourceGraphic"/></filter><filter x="-7.4%" y="-14.1%" width="114.8%" height="128.2%" filterUnits="objectBoundingBox" id="W"><feGaussianBlur stdDeviation="4" in="SourceGraphic"/></filter><filter x="-7.4%" y="-14.1%" width="114.8%" height="128.2%" filterUnits="objectBoundingBox" id="X"><feGaussianBlur stdDeviation="4" in="SourceGraphic"/></filter><filter x="-7.4%" y="-14.1%" width="114.8%" height="128.2%" filterUnits="objectBoundingBox" id="Y"><feGaussianBlur stdDeviation="4" in="SourceGraphic"/></filter><filter x="-7.4%" y="-14.1%" width="114.8%" height="128.2%" filterUnits="objectBoundingBox" id="Z"><feGaussianBlur stdDeviation="4" in="SourceGraphic"/></filter><path id="a" d="M0 0h1440v1024H0z"/><path id="c" d="M44.452 53.146h1440v1024h-1440z"/><linearGradient x1="50%" y1="0%" x2="50%" y2="100%" id="d"><stop stop-opacity=".105" offset="0%"/><stop offset="100%"/></linearGradient></defs><g fill="none" fill-rule="evenodd"><mask id="b" fill="#fff"><use xlink:href="#a"/></mask><g mask="url(#b)"><g transform="translate(-44.452 -53.146)"><use fill="#2B0043" xlink:href="#c"/><use fill="url(#d)" xlink:href="#c"/></g><path fill-opacity=".504" fill="#FEB600" filter="url(#e)" transform="rotate(-20 359.543 961.377)" d="m532.473 819.4 36.806 21.25v42.5l-36.806 21.25-36.806-21.25v-42.5z"/><path fill-opacity=".504" fill="#FEB600" filter="url(#f)" transform="rotate(-20 467.543 943.377)" d="m640.473 801.4 36.806 21.25v42.5l-36.806 21.25-36.806-21.25v-42.5z"/><path fill-opacity=".504" fill="#FEB600" filter="url(#g)" transform="rotate(-20 573.543 960.377)" d="m746.473 818.4 36.806 21.25v42.5l-36.806 21.25-36.806-21.25v-42.5z"/><path fill-opacity=".504" fill="#FEB600" filter="url(#h)" transform="rotate(-20 291.543 950.377)" d="m464.473 808.4 36.806 21.25v42.5l-36.806 21.25-36.806-21.25v-42.5z"/><path fill-opacity=".504" fill="#1D9844" filter="url(#i)" transform="rotate(-20 286.543 1017.377)" d="m459.473 875.4 36.806 21.25v42.5l-36.806 21.25-36.806-21.25v-42.5z"/><path fill-opacity=".504" fill="#1D9844" filter="url(#j)" transform="rotate(-20 648.543 914.377)" d="m821.473 772.4 36.806 21.25v42.5l-36.806 21.25-36.806-21.25v-42.5z"/><path fill-opacity=".504" fill="#1D9844" filter="url(#k)" transform="rotate(-20 1252.543 977.377)" d="m1425.473 835.4 36.806 21.25v42.5l-36.806 21.25-36.806-21.25v-42.5z"/><path fill-opacity=".3" fill="#1D9844" filter="url(#l)" transform="rotate(-20 630.543 963.377)" d="m803.473 821.4 36.806 21.25v42.5l-36.806 21.25-36.806-21.25v-42.5z"/><path fill-opacity=".3" fill="#1D9844" filter="url(#m)" transform="rotate(-20 586.543 1013.377)" d="m759.473 871.4 36.806 21.25v42.5l-36.806 21.25-36.806-21.25v-42.5z"/><path fill-opacity=".3" fill="#1D9844" filter="url(#n)" transform="rotate(-20 1008.543 931.377)" d="m1181.473 789.4 36.806 21.25v42.5l-36.806 21.25-36.806-21.25v-42.5z"/><path fill-opacity=".2" fill="#1D9844" filter="url(#o)" transform="rotate(-20 494.543 887.377)" d="m667.473 745.4 36.806 21.25v42.5l-36.806 21.25-36.806-21.25v-42.5z"/><path fill-opacity=".2" fill="#1D9844" filter="url(#p)" transform="rotate(-20 1059.543 934.377)" d="m1232.473 792.4 36.806 21.25v42.5l-36.806 21.25-36.806-21.25v-42.5z"/><path fill-opacity=".2" fill="#1D9844" filter="url(#q)" transform="rotate(-20 1102.543 896.377)" d="m1275.473 754.4 36.806 21.25v42.5l-36.806 21.25-36.806-21.25v-42.5z"/><path fill-opacity=".495" fill="#985C17" filter="url(#r)" transform="rotate(-20 235.543 984.377)" d="m408.473 842.4 36.806 21.25v42.5l-36.806 21.25-36.806-21.25v-42.5z"/><path fill-opacity=".495" fill="#985C17" filter="url(#s)" transform="rotate(-20 547.543 1057.377)" d="m720.473 915.4 36.806 21.25v42.5l-36.806 21.25-36.806-21.25v-42.5z"/><path fill-opacity=".495" fill="#985C17" filter="url(#t)" transform="rotate(-20 972.543 987.377)" d="m1145.473 845.4 36.806 21.25v42.5l-36.806 21.25-36.806-21.25v-42.5z"/><path fill-opacity=".495" fill="#985C17" filter="url(#u)" transform="rotate(-20 1090.543 991.377)" d="m1263.473 849.4 36.806 21.25v42.5l-36.806 21.25-36.806-21.25v-42.5z"/><path fill-opacity=".495" fill="#985C17" filter="url(#v)" transform="rotate(-20 139.543 985.377)" d="m312.473 843.4 36.806 21.25v42.5l-36.806 21.25-36.806-21.25v-42.5z"/><path fill-opacity=".3" fill="#985C17" filter="url(#w)" transform="rotate(-20 105.543 1074.377)" d="m278.473 932.4 36.806 21.25v42.5l-36.806 21.25-36.806-21.25v-42.5z"/><path fill-opacity=".3" fill="#985C17" filter="url(#x)" transform="rotate(-20 -21.457 1010.377)" d="m151.473 868.4 36.806 21.25v42.5l-36.806 21.25-36.806-21.25v-42.5z"/><path fill-opacity=".495" fill="#837E8A" filter="url(#y)" transform="rotate(-20 70.543 980.377)" d="m243.473 838.4 36.806 21.25v42.5l-36.806 21.25-36.806-21.25v-42.5z"/><path fill-opacity=".495" fill="#837E8A" filter="url(#z)" transform="rotate(-20 462.543 826.377)" d="m635.473 684.4 36.806 21.25v42.5l-36.806 21.25-36.806-21.25v-42.5z"/><path fill-opacity=".5" fill="#232547" filter="url(#A)" transform="rotate(-20 687.094 357.882)" d="m860.023 174.904 72.313 41.75v83.5l-72.313 41.75-72.313-41.75v-83.5z"/><path fill-opacity=".5" fill="#4E465B" filter="url(#B)" transform="rotate(-20 660.306 718.156)" d="m833.236 481.179 119.078 68.75v137.5l-119.078 68.75-119.079-68.75v-137.5z"/><path fill-opacity=".5" fill="#6A4312" filter="url(#C)" transform="rotate(-20 1159.306 1130.156)" d="m1332.236 893.179 119.078 68.75v137.5l-119.078 68.75-119.079-68.75v-137.5z"/><path fill-opacity=".5" fill="#5A5C6F" filter="url(#D)" transform="rotate(-20 1265.385 890.694)" d="m1438.315 584.217 179.267 103.5v207l-179.267 103.5-179.268-103.5v-207z"/><path fill-opacity=".5" fill="#3D2D22" filter="url(#E)" transform="rotate(-20 739.385 1173.694)" d="m912.315 867.217 179.267 103.5v207l-179.267 103.5-179.268-103.5v-207z"/><path fill-opacity=".5" fill="#966112" filter="url(#F)" transform="rotate(-20 1286.236 483.705)" d="m1459.166 276.727 93.097 53.75v107.5l-93.097 53.75-93.098-53.75v-107.5z"/><path fill-opacity=".6" fill="#75603B" filter="url(#G)" transform="rotate(-20 805.11 961.965)" d="m978.039 766.487 83.138 48v96l-83.138 48-83.139-48v-96z"/><path fill-opacity=".5" fill="#512C12" filter="url(#H)" transform="rotate(-20 976.99 308.397)" d="m1149.92 45.92 141.161 81.5v163l-141.162 81.5-141.162-81.5v-163z"/><path fill-opacity=".495" fill="#837E8A" filter="url(#I)" transform="rotate(-20 706.543 928.377)" d="m879.473 786.4 36.806 21.25v42.5l-36.806 21.25-36.806-21.25v-42.5z"/><path fill-opacity=".495" fill="#837E8A" filter="url(#J)" transform="rotate(-20 906.543 969.377)" d="m1079.473 827.4 36.806 21.25v42.5l-36.806 21.25-36.806-21.25v-42.5z"/><path fill-opacity=".3" fill="#837E8A" filter="url(#K)" transform="rotate(-20 115.543 955.377)" d="m288.473 813.4 36.806 21.25v42.5l-36.806 21.25-36.806-21.25v-42.5z"/><path fill-opacity=".3" fill="#837E8A" filter="url(#L)" transform="rotate(-20 43.543 945.377)" d="m216.473 803.4 36.806 21.25v42.5l-36.806 21.25-36.806-21.25v-42.5z"/><path fill-opacity=".3" fill="#837E8A" filter="url(#M)" transform="rotate(-20 -118.457 990.377)" d="m54.473 848.4 36.806 21.25v42.5L54.473 933.4l-36.806-21.25v-42.5z"/><path fill-opacity=".2" fill="#837E8A" filter="url(#N)" transform="rotate(-20 2.543 959.377)" d="m175.473 817.4 36.806 21.25v42.5l-36.806 21.25-36.806-21.25v-42.5z"/><path fill-opacity=".2" fill="#837E8A" filter="url(#O)" transform="rotate(-20 687.543 983.377)" d="m860.473 841.4 36.806 21.25v42.5l-36.806 21.25-36.806-21.25v-42.5z"/><path fill-opacity=".2" fill="#837E8A" filter="url(#P)" transform="rotate(-20 1215.543 934.377)" d="m1388.473 792.4 36.806 21.25v42.5l-36.806 21.25-36.806-21.25v-42.5z"/><path fill-opacity=".2" fill="#837E8A" filter="url(#Q)" transform="rotate(-20 937.543 945.377)" d="m1110.473 803.4 36.806 21.25v42.5l-36.806 21.25-36.806-21.25v-42.5z"/><path fill-opacity=".2" fill="#837E8A" filter="url(#R)" transform="rotate(-20 -74.457 988.377)" d="m98.473 846.4 36.806 21.25v42.5L98.473 931.4l-36.806-21.25v-42.5z"/><path fill-opacity=".2" fill="#837E8A" filter="url(#S)" transform="rotate(-20 -69.457 1096.377)" d="m103.473 954.4 36.806 21.25v42.5l-36.806 21.25-36.806-21.25v-42.5z"/><path fill-opacity=".2" fill="#837E8A" filter="url(#T)" transform="rotate(-20 25.543 1051.377)" d="m198.473 909.4 36.806 21.25v42.5l-36.806 21.25-36.806-21.25v-42.5z"/><path fill-opacity=".3" fill="#985C17" filter="url(#U)" transform="rotate(-20 217.543 933.377)" d="m390.473 791.4 36.806 21.25v42.5l-36.806 21.25-36.806-21.25v-42.5z"/><path fill-opacity=".3" fill="#985C17" filter="url(#V)" transform="rotate(-20 370.543 866.377)" d="m543.473 724.4 36.806 21.25v42.5l-36.806 21.25-36.806-21.25v-42.5z"/><path fill-opacity=".2" fill="#985C17" filter="url(#W)" transform="rotate(-20 428.543 873.377)" d="m601.473 731.4 36.806 21.25v42.5l-36.806 21.25-36.806-21.25v-42.5z"/><path fill-opacity=".3" fill="#985C17" filter="url(#X)" transform="rotate(-20 169.543 944.377)" d="m342.473 802.4 36.806 21.25v42.5l-36.806 21.25-36.806-21.25v-42.5z"/><path fill-opacity=".3" fill="#985C17" filter="url(#Y)" transform="rotate(-20 325.543 914.377)" d="m498.473 772.4 36.806 21.25v42.5l-36.806 21.25-36.806-21.25v-42.5z"/><path fill-opacity=".504" fill="#FEB600" filter="url(#Z)" transform="rotate(-20 412.543 930.377)" d="m585.473 788.4 36.806 21.25v42.5l-36.806 21.25-36.806-21.25v-42.5z"/></g></g></svg>