<svg width="759" height="223" xmlns="http://www.w3.org/2000/svg"><defs><filter x="-25%" y="-25%" width="150%" height="150%" filterUnits="objectBoundingBox" id="a"><feGaussianBlur stdDeviation="4" in="SourceGraphic"/></filter><filter x="-25%" y="-25%" width="150%" height="150%" filterUnits="objectBoundingBox" id="b"><feGaussianBlur stdDeviation="4" in="SourceGraphic"/></filter><filter x="-25%" y="-25%" width="150%" height="150%" filterUnits="objectBoundingBox" id="c"><feGaussianBlur stdDeviation="4" in="SourceGraphic"/></filter><filter x="-25%" y="-25%" width="150%" height="150%" filterUnits="objectBoundingBox" id="d"><feGaussianBlur stdDeviation="4" in="SourceGraphic"/></filter><filter x="-25%" y="-25%" width="150%" height="150%" filterUnits="objectBoundingBox" id="e"><feGaussianBlur stdDeviation="4" in="SourceGraphic"/></filter><filter x="-25%" y="-25%" width="150%" height="150%" filterUnits="objectBoundingBox" id="f"><feGaussianBlur stdDeviation="4" in="SourceGraphic"/></filter><filter x="-25%" y="-25%" width="150%" height="150%" filterUnits="objectBoundingBox" id="g"><feGaussianBlur stdDeviation="4" in="SourceGraphic"/></filter><filter x="-25%" y="-25%" width="150%" height="150%" filterUnits="objectBoundingBox" id="h"><feGaussianBlur stdDeviation="4" in="SourceGraphic"/></filter><filter x="-25%" y="-25%" width="150%" height="150%" filterUnits="objectBoundingBox" id="i"><feGaussianBlur stdDeviation="4" in="SourceGraphic"/></filter><filter x="-25%" y="-25%" width="150%" height="150%" filterUnits="objectBoundingBox" id="j"><feGaussianBlur stdDeviation="4" in="SourceGraphic"/></filter><filter x="-25%" y="-25%" width="150%" height="150%" filterUnits="objectBoundingBox" id="k"><feGaussianBlur stdDeviation="4" in="SourceGraphic"/></filter><filter x="-25%" y="-25%" width="150%" height="150%" filterUnits="objectBoundingBox" id="l"><feGaussianBlur stdDeviation="4" in="SourceGraphic"/></filter><filter x="-25%" y="-25%" width="150%" height="150%" filterUnits="objectBoundingBox" id="m"><feGaussianBlur stdDeviation="4" in="SourceGraphic"/></filter><filter x="-25%" y="-25%" width="150%" height="150%" filterUnits="objectBoundingBox" id="n"><feGaussianBlur stdDeviation="4" in="SourceGraphic"/></filter><filter x="-25%" y="-25%" width="150%" height="150%" filterUnits="objectBoundingBox" id="o"><feGaussianBlur stdDeviation="4" in="SourceGraphic"/></filter><filter x="-25%" y="-25%" width="150%" height="150%" filterUnits="objectBoundingBox" id="p"><feGaussianBlur stdDeviation="4" in="SourceGraphic"/></filter><filter x="-25%" y="-25%" width="150%" height="150%" filterUnits="objectBoundingBox" id="q"><feGaussianBlur stdDeviation="4" in="SourceGraphic"/></filter><filter x="-25%" y="-25%" width="150%" height="150%" filterUnits="objectBoundingBox" id="r"><feGaussianBlur stdDeviation="4" in="SourceGraphic"/></filter><filter x="-25%" y="-25%" width="150%" height="150%" filterUnits="objectBoundingBox" id="s"><feGaussianBlur stdDeviation="4" in="SourceGraphic"/></filter><filter x="-25%" y="-25%" width="150%" height="150%" filterUnits="objectBoundingBox" id="t"><feGaussianBlur stdDeviation="4" in="SourceGraphic"/></filter><filter x="-25%" y="-25%" width="150%" height="150%" filterUnits="objectBoundingBox" id="u"><feGaussianBlur stdDeviation="4" in="SourceGraphic"/></filter><filter x="-25%" y="-25%" width="150%" height="150%" filterUnits="objectBoundingBox" id="v"><feGaussianBlur stdDeviation="4" in="SourceGraphic"/></filter><filter x="-25%" y="-25%" width="150%" height="150%" filterUnits="objectBoundingBox" id="w"><feGaussianBlur stdDeviation="4" in="SourceGraphic"/></filter><filter x="-25%" y="-25%" width="150%" height="150%" filterUnits="objectBoundingBox" id="x"><feGaussianBlur stdDeviation="4" in="SourceGraphic"/></filter><filter x="-25%" y="-25%" width="150%" height="150%" filterUnits="objectBoundingBox" id="y"><feGaussianBlur stdDeviation="4" in="SourceGraphic"/></filter><filter x="-25%" y="-25%" width="150%" height="150%" filterUnits="objectBoundingBox" id="z"><feGaussianBlur stdDeviation="4" in="SourceGraphic"/></filter><filter x="-25%" y="-25%" width="150%" height="150%" filterUnits="objectBoundingBox" id="A"><feGaussianBlur stdDeviation="4" in="SourceGraphic"/></filter><filter x="-25%" y="-25%" width="150%" height="150%" filterUnits="objectBoundingBox" id="B"><feGaussianBlur stdDeviation="4" in="SourceGraphic"/></filter><filter x="-25%" y="-25%" width="150%" height="150%" filterUnits="objectBoundingBox" id="C"><feGaussianBlur stdDeviation="4" in="SourceGraphic"/></filter><filter x="-25%" y="-25%" width="150%" height="150%" filterUnits="objectBoundingBox" id="D"><feGaussianBlur stdDeviation="4" in="SourceGraphic"/></filter><filter x="-25%" y="-25%" width="150%" height="150%" filterUnits="objectBoundingBox" id="E"><feGaussianBlur stdDeviation="4" in="SourceGraphic"/></filter><filter x="-25%" y="-25%" width="150%" height="150%" filterUnits="objectBoundingBox" id="F"><feGaussianBlur stdDeviation="4" in="SourceGraphic"/></filter><filter x="-25%" y="-25%" width="150%" height="150%" filterUnits="objectBoundingBox" id="G"><feGaussianBlur stdDeviation="4" in="SourceGraphic"/></filter><filter x="-25%" y="-25%" width="150%" height="150%" filterUnits="objectBoundingBox" id="H"><feGaussianBlur stdDeviation="4" in="SourceGraphic"/></filter><filter x="-25%" y="-25%" width="150%" height="150%" filterUnits="objectBoundingBox" id="I"><feGaussianBlur stdDeviation="4" in="SourceGraphic"/></filter><filter x="-25%" y="-25%" width="150%" height="150%" filterUnits="objectBoundingBox" id="J"><feGaussianBlur stdDeviation="4" in="SourceGraphic"/></filter><filter x="-25%" y="-25%" width="150%" height="150%" filterUnits="objectBoundingBox" id="K"><feGaussianBlur stdDeviation="4" in="SourceGraphic"/></filter><filter x="-25%" y="-25%" width="150%" height="150%" filterUnits="objectBoundingBox" id="L"><feGaussianBlur stdDeviation="4" in="SourceGraphic"/></filter><filter x="-25%" y="-25%" width="150%" height="150%" filterUnits="objectBoundingBox" id="M"><feGaussianBlur stdDeviation="4" in="SourceGraphic"/></filter></defs><g fill="none" fill-rule="evenodd"><path fill-opacity=".504" fill="#FEB600" filter="url(#a)" transform="scale(1 -1) rotate(-20 -278.874 -64.79)" d="m300.515 60.373 23.986 11.993v23.986l-23.986 11.993-23.986-11.993V72.366z"/><path fill-opacity=".504" fill="#FEB600" filter="url(#b)" transform="scale(1 -1) rotate(-20 -217.92 -74.948)" d="m361.468 50.214 23.986 11.993v23.986l-23.986 11.993-23.986-11.993V62.207z"/><path fill-opacity=".504" fill="#FEB600" filter="url(#c)" transform="scale(1 -1) rotate(-20 -158.097 -65.354)" d="m421.292 59.809 23.986 11.993v23.986l-23.986 11.993-23.986-11.993V71.802z"/><path fill-opacity=".504" fill="#FEB600" filter="url(#d)" transform="scale(1 -1) rotate(-20 -317.251 -70.998)" d="m262.138 54.165 23.986 11.993v23.986l-23.986 11.993-23.986-11.993V66.158z"/><path fill-opacity=".504" fill="#1D9844" filter="url(#e)" transform="scale(1 -1) rotate(-20 -320.073 -33.185)" d="m259.316 91.978 23.986 11.993v23.986l-23.986 11.993-23.986-11.993v-23.986z"/><path fill-opacity=".504" fill="#1D9844" filter="url(#f)" transform="scale(1 -1) rotate(-20 -115.769 -91.315)" d="m463.62 33.847 23.986 11.993v23.986L463.62 81.82l-23.986-11.993V45.84z"/><path fill-opacity=".504" fill="#1D9844" filter="url(#g)" transform="scale(1 -1) rotate(-20 117.115 -35.76)" d="m696.503 89.403 23.986 11.993v23.986l-23.986 11.993-23.986-11.993v-23.986z"/><path fill-opacity=".3" fill="#1D9844" filter="url(#h)" transform="scale(1 -1) rotate(-20 -125.928 -63.661)" d="m453.461 61.502 23.986 11.993V97.48l-23.986 11.993-23.986-11.993V73.495z"/><path fill-opacity=".3" fill="#1D9844" filter="url(#i)" transform="scale(1 -1) rotate(-20 -150.76 -35.442)" d="m428.629 89.72 23.986 11.994V125.7l-23.986 11.993-23.986-11.993v-23.986z"/><path fill-opacity=".3" fill="#1D9844" filter="url(#j)" transform="scale(1 -1) rotate(-20 -20.593 -61.721)" d="m558.795 63.442 23.986 11.993V99.42l-23.986 11.993L534.81 99.42V75.435z"/><path fill-opacity=".2" fill="#1D9844" filter="url(#k)" transform="scale(1 -1) rotate(-20 -202.683 -106.554)" d="m376.706 18.61 23.986 11.992v23.986l-23.986 11.993-23.986-11.993V30.602z"/><path fill-opacity=".2" fill="#1D9844" filter="url(#l)" transform="scale(1 -1) rotate(-20 8.19 -60.028)" d="m587.579 65.135 23.986 11.993v23.986l-23.986 11.993-23.986-11.993V77.128z"/><path fill-opacity=".2" fill="#1D9844" filter="url(#m)" transform="scale(1 -1) rotate(-20 32.458 -81.474)" d="m611.847 43.688 23.986 11.993v23.986L611.847 91.66 587.86 79.667V55.681z"/><path fill-opacity=".495" fill="#985C17" filter="url(#n)" transform="scale(1 -1) rotate(-20 -348.856 -51.81)" d="m230.532 73.354 23.986 11.993v23.986l-23.986 11.993-23.986-11.993V85.347z"/><path fill-opacity=".495" fill="#985C17" filter="url(#o)" transform="scale(1 -1) rotate(-20 -172.77 -10.61)" d="m406.618 114.553 23.986 11.993v23.986l-23.986 11.993-23.986-11.993v-23.986z"/><path fill-opacity=".495" fill="#985C17" filter="url(#p)" transform="scale(1 -1) rotate(-20 -40.91 -30.116)" d="m538.478 95.047 23.986 11.993v23.986l-23.986 11.993-23.986-11.993V107.04z"/><path fill-opacity=".495" fill="#985C17" filter="url(#q)" transform="scale(1 -1) rotate(-20 25.686 -27.858)" d="m605.074 97.304 23.986 11.993v23.986l-23.986 11.993-23.986-11.993v-23.986z"/><path fill-opacity=".495" fill="#985C17" filter="url(#r)" transform="scale(1 -1) rotate(-20 -403.036 -51.245)" d="m176.352 73.918 23.986 11.993v23.986l-23.986 11.993-23.986-11.993V85.911z"/><path fill-opacity=".3" fill="#985C17" filter="url(#s)" transform="scale(1 -1) rotate(-20 -422.225 -1.015)" d="m157.164 124.147 23.986 11.993v23.986l-23.986 11.993-23.986-11.993V136.14z"/><path fill-opacity=".3" fill="#985C17" filter="url(#t)" transform="scale(1 -1) rotate(-20 -493.901 -37.135)" d="m85.488 88.027 23.986 11.993v23.986L85.488 136l-23.986-11.993V100.02z"/><path fill-opacity=".495" fill="#837E8A" filter="url(#u)" transform="scale(1 -1) rotate(-20 -441.978 -54.067)" d="m137.41 71.096 23.986 11.993v23.986l-23.986 11.993-23.986-11.993V83.09z"/><path fill-opacity=".495" fill="#837E8A" filter="url(#v)" transform="scale(1 -1) rotate(-20 -83.035 -83.414)" d="m496.354 41.749 23.986 11.993v23.986L496.354 89.72l-23.986-11.993V53.742z"/><path fill-opacity=".495" fill="#837E8A" filter="url(#w)" transform="scale(1 -1) rotate(-20 -78.16 -40.275)" d="m501.23 84.888 23.985 11.993v23.986L501.23 132.86l-23.986-11.993V96.88z"/><path fill-opacity=".3" fill="#837E8A" filter="url(#x)" transform="scale(1 -1) rotate(-20 -416.581 -68.176)" d="m162.807 56.987 23.986 11.993v23.986l-23.986 11.993-23.986-11.993V68.98z"/><path fill-opacity=".3" fill="#837E8A" filter="url(#y)" transform="scale(1 -1) rotate(-20 -457.217 -73.82)" d="m122.172 51.343 23.986 11.993v23.986l-23.986 11.993-23.986-11.993V63.336z"/><path fill-opacity=".2" fill="#837E8A" filter="url(#z)" transform="scale(1 -1) rotate(-20 -480.356 -65.918)" d="m99.033 59.244 23.986 11.993v23.986l-23.986 11.993-23.986-11.993V71.237z"/><path fill-opacity=".2" fill="#837E8A" filter="url(#A)" transform="scale(1 -1) rotate(-20 -93.758 -52.373)" d="m485.63 72.79 23.987 11.992v23.986l-23.986 11.993-23.986-11.993V84.782z"/><path fill-opacity=".2" fill="#837E8A" filter="url(#B)" transform="scale(1 -1) rotate(-20 96.233 -60.028)" d="m675.621 65.135 23.986 11.993v23.986l-23.986 11.993-23.986-11.993V77.128z"/><path fill-opacity=".2" fill="#837E8A" filter="url(#C)" transform="scale(1 -1) rotate(-20 -60.664 -53.82)" d="m518.725 71.343 23.986 11.993v23.986l-23.986 11.993-23.986-11.993V83.336z"/><path fill-opacity=".2" fill="#837E8A" filter="url(#D)" transform="scale(1 -1) rotate(-20 -467.375 -13.996)" d="M112.013 111.167 136 123.16v23.986l-23.986 11.993-23.986-11.993V123.16z"/><path fill-opacity=".3" fill="#985C17" filter="url(#E)" transform="scale(1 -1) rotate(-20 -359.015 -80.592)" d="m220.374 44.57 23.986 11.993V80.55l-23.986 11.993-23.986-11.993V56.563z"/><path fill-opacity=".3" fill="#985C17" filter="url(#F)" transform="scale(1 -1) rotate(-20 -272.665 -118.405)" d="M306.723 6.757 330.71 18.75v23.986L306.723 54.73l-23.986-11.993V18.75z"/><path fill-opacity=".2" fill="#985C17" filter="url(#G)" transform="scale(1 -1) rotate(-20 -239.932 -114.455)" d="M339.457 10.708 363.443 22.7v23.986L339.457 58.68l-23.986-11.993V22.7z"/><path fill-opacity=".3" fill="#985C17" filter="url(#H)" transform="scale(1 -1) rotate(-20 -386.105 -74.384)" d="m193.284 50.779 23.986 11.993v23.986L193.284 98.75l-23.986-11.993V62.772z"/><path fill-opacity=".3" fill="#985C17" filter="url(#I)" transform="scale(1 -1) rotate(-20 -298.062 -91.315)" d="m281.326 33.847 23.986 11.993v23.986L281.326 81.82 257.34 69.826V45.84z"/><path fill-opacity=".504" fill="#FEB600" filter="url(#J)" transform="scale(1 -1) rotate(-20 -248.962 -82.285)" d="m330.427 42.877 23.986 11.993v23.986L330.427 90.85l-23.986-11.993V54.87z"/><path fill-opacity=".3" fill="#837E8A" filter="url(#K)" transform="scale(1 -1) rotate(-20 -548.646 -48.423)" d="M30.743 76.74 54.73 88.733v23.986l-23.986 11.993-23.986-11.993V88.733z"/><path fill-opacity=".2" fill="#837E8A" filter="url(#L)" transform="scale(1 -1) rotate(-20 -523.813 -49.552)" d="m55.576 75.611 23.986 11.993v23.986l-23.986 11.993L31.59 111.59V87.604z"/><path fill-opacity=".2" fill="#837E8A" filter="url(#M)" transform="scale(1 -1) rotate(-20 -520.991 11.401)" d="m58.398 136.564 23.986 11.993v23.986l-23.986 11.993-23.986-11.993v-23.986z"/></g></svg>