<svg width="83" height="18" xmlns="http://www.w3.org/2000/svg"><g fill="#FFF" fill-rule="nonzero"><path d="M53.92.819v14.745a.316.316 0 0 1-.091.224.271.271 0 0 1-.088.062.284.284 0 0 1-.131.03h-1.982a.314.314 0 0 1-.311-.316V.82c0-.174.14-.316.31-.316h1.983c.17 0 .31.142.31.316ZM62.74 13.675h-3.828a.31.31 0 0 1-.271-.25V.812c0-.17-.141-.312-.314-.312h-1.983c-.17 0-.31.138-.31.312v14.759c0 .17.14.312.31.312h6.392c.17.003.31-.135.31-.309v-1.59a.311.311 0 0 0-.31-.313l.003.004ZM49.737 15.423 45.72 8.072a.304.304 0 0 1 0-.3L49.446.958a.313.313 0 0 0-.125-.42.325.325 0 0 0-.147-.037h-2.25a.315.315 0 0 0-.272.161l-3.048 5.577V.812A.311.311 0 0 0 43.293.5h-1.982C41.14.5 41 .638 41 .812v14.759c0 .17.137.312.31.312h1.983c.17 0 .31-.141.31-.312V12.17l-.922-4.246 4.262 7.798c.056.099.16.161.272.161h2.25a.31.31 0 0 0 .272-.46ZM70.233.812v1.594c0 .17-.137.312-.31.312h-3.844l1.22.861c.043.03.065.076.065.128v11.864c0 .17-.137.312-.31.312h-1.95a.313.313 0 0 1-.31-.312V3.027a.31.31 0 0 0-.279-.309h-2.28a.311.311 0 0 1-.31-.312V.812c0-.17.137-.312.31-.312h7.684c.17 0 .31.141.31.312h.004Z"/><path d="M78.228 2.242 75.768.51H73.84c-.21 0-.38.141-.38.315V2.81l1.983 1.394 2.79-1.962h-.006ZM78.614 14.41l2.129 1.5h1.874a.434.434 0 0 0 .269-.093.297.297 0 0 0 .11-.223v-2.021L81.4 12.449l-2.79 1.962h.004Z" opacity=".7"/><path d="M82.97.76v2.05l-8.622 6.067a2.427 2.427 0 0 0-.922 1.906V5.6L80.668.507h1.94c.18.003.327.111.363.256V.76Z"/><path d="m81.11 8.19.909-.64h.003A2.446 2.446 0 0 0 83 5.596l-1.6-1.124-2.79 1.962 2.496 1.755h.003ZM78.228 10.218l-2.496-1.755-1.354.953a2.439 2.439 0 0 0-.87 1.403l1.933 1.36 2.79-1.961h-.003Z" opacity=".7"/><path d="M81.993 7.55h-.004l-8.56 6.026V17.5l9.545-6.714V5.597c0 .799-.383 1.505-.978 1.949l-.003.003ZM0 9.593h2.706c.656 0 1.134.149 1.44.45.301.302.455.677.455 1.124 0 .597-.216.998-.65 1.2.28.106.49.279.627.524.138.242.21.497.21.763 0 .48-.16.891-.482 1.23-.321.338-.82.51-1.492.51H0V9.593Zm2.584 2.264c.499 0 .748-.182.748-.547 0-.365-.203-.537-.617-.537H1.246v1.087h1.338v-.003Zm.289 2.353c.23 0 .397-.056.502-.172a.585.585 0 0 0 .154-.408c0-.424-.292-.636-.876-.636H1.246v1.216h1.627ZM8.255 15.493c-.305 0-.594-.04-.866-.119a2.367 2.367 0 0 1-.758-.381 1.75 1.75 0 0 1-.56-.733 2.735 2.735 0 0 1-.21-1.104V9.593h1.246v3.563c0 .415.092.703.275.869.184.166.476.248.873.248.396 0 .675-.082.865-.251.19-.17.282-.458.282-.866V9.593h1.247v3.563c0 .415-.07.78-.204 1.091a1.809 1.809 0 0 1-.554.733 2.42 2.42 0 0 1-.757.387 2.992 2.992 0 0 1-.876.126h-.003ZM12.043 15.394V9.593h1.246v5.8zM14.719 15.394V9.593h1.246v4.584h2.755v1.217h-4.001zM21.425 10.803v4.59H20.18v-4.59h-1.65v-1.21h4.543v1.21zM28.572 15.493c-.361 0-.69-.056-.981-.172a2.053 2.053 0 0 1-.725-.467 2.675 2.675 0 0 1-.479-.683 3.421 3.421 0 0 1-.278-.81 4.397 4.397 0 0 1 0-1.73c.055-.278.15-.546.278-.808.128-.262.289-.488.48-.683.19-.196.432-.352.724-.468.292-.116.62-.172.98-.172.443 0 .834.086 1.171.262.338.176.604.408.797.703.19.295.335.613.43.958.095.341.144.702.144 1.077s-.049.736-.144 1.077c-.095.342-.24.663-.43.958-.19.295-.456.53-.797.703a2.542 2.542 0 0 1-1.17.262v-.007Zm0-1.216c.285 0 .524-.1.721-.295.197-.196.335-.421.41-.68a3.055 3.055 0 0 0 .007-1.64 1.465 1.465 0 0 0-.4-.67 1.01 1.01 0 0 0-.738-.285c-.296 0-.542.1-.742.295-.2.195-.334.424-.406.68a3.02 3.02 0 0 0-.043 1.438c.043.199.112.388.203.567a1.1 1.1 0 0 0 .394.43c.17.11.367.163.59.163l.004-.003ZM37 15.394h-1.089l-2.164-3.076a3.1 3.1 0 0 1-.246-.438c.016.093.026.239.026.438v3.076h-1.23V9.593h1.138l2.109 3.04c.105.149.184.291.236.43a3.184 3.184 0 0 1-.026-.437V9.593H37v5.8Z"/></g></svg>