<svg xmlns="http://www.w3.org/2000/svg" width="252" height="48" viewBox="0 0 433.11 74.18"><rect width="433.11" height="74.18" rx="4" fill="#e43366"/><path fill="#fff" d="M95.61 24.87h2.6v17.39h10.24l-.36 2.23H95.61ZM123.31 37.31c0 4.12-2.36 7.52-6.73 7.52-4.1 0-6.58-3.17-6.58-7.47s2.43-7.51 6.74-7.51c3.97 0 6.57 2.97 6.57 7.46Zm-10.77 0c0 3.14 1.57 5.42 4.14 5.42s4.08-2.17 4.08-5.41-1.46-5.43-4.14-5.43-4.08 2.19-4.08 5.45ZM138.39 43.2c0 4.58-1.89 7.19-6.56 7.19-4.33 0-5.66-2.43-5.92-4.37h2.51a3.27 3.27 0 0 0 3.52 2.4c3.25 0 4.05-2.06 4.05-5.35v-1.16c-.76 1.6-2.07 2.51-4.47 2.51-3.52 0-5.91-2.87-5.91-7.06 0-4.67 2.71-7.51 6.17-7.51 2.73 0 3.89 1.29 4.21 2.23 0-.64.09-1.59.12-1.89h2.33c0 .83-.05 2.76-.05 4.13Zm-10.22-6c0 3 1.57 5.07 3.9 5.07 3.09 0 4-2.08 4-5.25s-.85-5.12-3.9-5.12c-2.66.1-4 2.26-4 5.35ZM142.52 23.79H145v3.08h-2.47Zm0 6.4H145v14.3h-2.47ZM149.13 33.79v-3.6h2.4c.07.42.1 1.93.1 2.35a4.49 4.49 0 0 1 4.5-2.69c2.68 0 4.77 1.64 4.77 5.44v9.2h-2.46v-8.88c0-2.16-.85-3.62-3-3.62-2.7 0-3.78 2.06-3.78 4.93v7.57h-2.47ZM173.24 30.19c1.78 6.71 2.79 10.54 3 12 .26-1.33 1.27-4.89 3.3-12H182c2.23 8.09 2.9 10.45 3.14 11.73.35-1.53.92-3.67 3.15-11.73h2.51l-4.41 14.3h-2.67c-1.39-5.21-2.76-10-3.07-11.59-.27 1.56-1.54 5.91-3.16 11.59h-2.76l-4.14-14.3ZM193.48 23.79H196v3.08h-2.47Zm0 6.4H196v14.3h-2.47ZM198.38 30.19h2.47V26h2.47v4.22h3.16v2h-3.16v8.37c0 1.39.34 2.1 1.64 2.1a5.47 5.47 0 0 0 1.24-.12v1.86a6.55 6.55 0 0 1-2.14.27c-2.22 0-3.21-1.16-3.21-3.53v-8.96h-2.47ZM211.48 23.79v8.51a4.8 4.8 0 0 1 4.52-2.45c2.29 0 4.81 1.26 4.81 5.51v9.13h-2.51v-8.71c0-2.44-1-3.79-3.11-3.79-2.57 0-3.71 1.7-3.71 4.68v7.82H209v-20.7ZM233.14 40.4a3.25 3.25 0 0 0 3.51 2.48c2.1 0 2.92-.9 2.92-2.2s-.65-2-3.38-2.62c-4.09-1-4.94-2.25-4.94-4.19s1.48-4 5.16-4 5.2 2.14 5.38 4.13h-2.39a2.8 2.8 0 0 0-3.1-2.21c-2 0-2.6 1-2.6 1.9s.59 1.6 3.21 2.22c4.34 1 5.2 2.48 5.2 4.6 0 2.51-2 4.34-5.54 4.34s-5.52-1.87-5.89-4.43ZM257.51 37.31c0 4.12-2.36 7.52-6.73 7.52-4.09 0-6.57-3.17-6.57-7.47s2.42-7.51 6.73-7.51c3.97 0 6.57 2.97 6.57 7.46Zm-10.76 0c0 3.14 1.56 5.42 4.13 5.42s4.12-2.14 4.12-5.38-1.46-5.43-4.14-5.43-4.11 2.16-4.11 5.42ZM272.11 40.11a5.69 5.69 0 0 1-5.91 4.72c-3.94 0-6.38-2.83-6.38-7.41 0-4.05 2.29-7.57 6.56-7.57a5.34 5.34 0 0 1 5.73 4.78h-2.45a3.19 3.19 0 0 0-3.33-2.71c-2.53 0-4 2.17-4 5.41s1.39 5.44 3.88 5.44a3.38 3.38 0 0 0 3.41-2.66ZM275.23 23.79h2.47v3.08h-2.47Zm0 6.4h2.47v14.3h-2.47ZM292.31 41.37a21.24 21.24 0 0 0 .2 3.12h-2.36a7.6 7.6 0 0 1-.24-1.87c-.5 1-1.64 2.21-4.41 2.21-3.37 0-4.81-2.2-4.81-4.37 0-3.19 2.5-4.65 6.75-4.65h2.44v-1.22c0-1.26-.4-2.8-3.08-2.8-2.38 0-2.79 1.18-3.05 2.3h-2.39c.19-2 1.41-4.25 5.52-4.24 3.5 0 5.43 1.44 5.43 4.69Zm-2.41-3.85h-2.31c-2.85 0-4.38.79-4.38 2.8a2.51 2.51 0 0 0 2.79 2.57c3.45 0 3.91-2.32 3.91-4.91ZM296.49 44.49v-20.7H299v20.7ZM303.71 24.87h2.58v9.63c1.46-1.52 6.44-6.45 9.53-9.63h3.24l-8.43 8.27 8.85 11.35h-3.16l-7.52-9.66-2.51 2.27v7.39h-2.58Z"/><path fill="#fff" d="M325.52 44.49v-7.2a1.08 1.08 0 0 0-.13-.52l-6.91-11.9h3c1.79 3.19 4.63 8.24 5.52 10 .85-1.69 3.78-6.8 5.63-10h2.78l-7.13 12a.92.92 0 0 0-.11.5v7.17ZM352.66 38.93c-.87 3.33-3.35 5.81-7.8 5.81-5.87 0-8.83-4.46-8.83-10 0-5.33 3-10.15 8.92-10.15 4.63 0 7.14 2.64 7.72 5.92h-2.6a5 5 0 0 0-5.22-3.75c-4.33 0-6.1 3.93-6.1 7.9s1.68 7.91 6.21 7.91a5 5 0 0 0 5.09-3.64ZM54.2 57.49l-7.26-19.97-20.73-3.65-.26-.74 13.91-16.58 21.61 3.81 7.51 20.62-13.97 16.65-.81-.14z"/><path fill="#fff" d="m40.06 17.09 21 3.71 7.31 20.09-13.6 16.2h-.24l-.16-.42-6.91-19-.19-.55-.57-.1L27 33.5l-.38-.07-.07-.2 13.51-16.14m-.4-1.09L25.38 33l7.51 21.4 22.32 3.74 14.34-17.05-7.71-21.17L39.66 16Zm13.81 41-20-3.34-6.68-19.18L46.56 38l6.91 19Z"/></svg>
