<svg width="50" height="50" xmlns="http://www.w3.org/2000/svg" xmlns:xlink="http://www.w3.org/1999/xlink"><defs><path id="a" d="M0 0h18.21v18.21H0z"/></defs><g fill="none" fill-rule="evenodd"><path d="M50 25c0 13.807-11.193 25-25 25S0 38.807 0 25 11.193 0 25 0s25 11.193 25 25" fill="#977A13"/><g transform="translate(16 16)"><mask id="b" fill="#fff"><use xlink:href="#a"/></mask><path d="M17.812 8.027c.266.258.398.629.398 1.113 0 .453-.132.801-.398 1.043-.266.242-.648.364-1.148.364h-6.118v6.093c0 .516-.125.907-.375 1.172-.25.266-.609.399-1.078.399-.469 0-.828-.133-1.078-.399-.25-.265-.375-.656-.375-1.172v-6.093H1.546c-.5 0-.882-.125-1.148-.375C.132 9.922 0 9.57 0 9.117c0-.485.132-.852.398-1.102.266-.25.648-.375 1.148-.375H7.64V1.547c0-.5.125-.883.375-1.149S8.624 0 9.093 0c.469 0 .828.132 1.078.398.25.266.375.649.375 1.149V7.64h6.118c.5 0 .882.129 1.148.387" fill="#FFF" mask="url(#b)"/></g></g></svg>