<svg width="261" height="84" xmlns="http://www.w3.org/2000/svg"><g fill="none"><path d="M8.082 35.216c1.156 0 2.31.119 3.441.354.636.133 1.25.293 1.843.476a1.311 1.311 0 0 1 .769 1.815c-.04.088-.083.171-.128.26-.297.577-.972.85-1.588.641l-.132-.044c-.44-.143-.887-.261-1.34-.354a16.36 16.36 0 0 0-1.443-.243 11.89 11.89 0 0 0-1.466-.072 7.28 7.28 0 0 0-1.494.155 3.795 3.795 0 0 0-1.273.514 2.706 2.706 0 0 0-.89.93 2.84 2.84 0 0 0-.338 1.433c-.01.517.13 1.026.404 1.466.259.405.61.745 1.023.99a6.49 6.49 0 0 0 1.516.67 23.11 23.11 0 0 0 1.848.503c.95.233 1.886.516 2.805.847a7.984 7.984 0 0 1 2.28 1.222 5.334 5.334 0 0 1 1.51 1.865c.39.859.58 1.796.554 2.739a6.03 6.03 0 0 1-.68 2.949 5.915 5.915 0 0 1-1.843 2.036 8.2 8.2 0 0 1-2.706 1.195 13.798 13.798 0 0 1-3.32.387 15.965 15.965 0 0 1-1.892-.116 17.074 17.074 0 0 1-3.8-.891l-.405-.144a1.306 1.306 0 0 1-.73-1.815v-.038l.122-.233a1.3 1.3 0 0 1 1.637-.62l.427.15c.514.172 1.045.321 1.587.448a19.1 19.1 0 0 0 1.61.305c.506.07 1.017.108 1.527.11a7.63 7.63 0 0 0 1.788-.205 4.94 4.94 0 0 0 1.549-.658 3.458 3.458 0 0 0 1.106-1.162 3.353 3.353 0 0 0 .41-1.715 2.81 2.81 0 0 0-.388-1.55 3.231 3.231 0 0 0-1.034-1.012 6.086 6.086 0 0 0-1.522-.653 27.006 27.006 0 0 0-1.831-.492 28.66 28.66 0 0 1-2.766-.819 8.183 8.183 0 0 1-2.28-1.2 5.417 5.417 0 0 1-1.544-1.843 5.77 5.77 0 0 1-.553-2.727 5.3 5.3 0 0 1 .581-2.634 5.356 5.356 0 0 1 1.66-1.82 7.685 7.685 0 0 1 2.473-1.057 12.204 12.204 0 0 1 2.916-.343zm19.752.066a9.306 9.306 0 0 1 1.66.111 8.946 8.946 0 0 1 2.174.598c.73.315 1.41.734 2.02 1.244a7.403 7.403 0 0 1 1.66 2.036c.546.961.947 1.998 1.189 3.077.302 1.397.443 2.825.42 4.254a18.734 18.734 0 0 1-.42 4.26 10.877 10.877 0 0 1-1.151 3.044 7.574 7.574 0 0 1-1.66 2.069 7.713 7.713 0 0 1-2.02 1.234c-.694.3-1.425.507-2.174.614a9.218 9.218 0 0 1-1.66.127 9.19 9.19 0 0 1-3.75-.73 7.342 7.342 0 0 1-2.01-1.234 7.585 7.585 0 0 1-1.659-2.07 10.745 10.745 0 0 1-1.15-3.042 18.684 18.684 0 0 1-.471-4.255c-.023-1.43.118-2.857.42-4.255.23-1.073.618-2.106 1.151-3.065a7.69 7.69 0 0 1 1.66-2.041 8.3 8.3 0 0 1 2.008-1.245 9.24 9.24 0 0 1 2.153-.592 8.366 8.366 0 0 1 1.61-.139zm0 2.955a3.956 3.956 0 0 0-1.721.337 4.299 4.299 0 0 0-1.853 1.323 7.021 7.021 0 0 0-1.295 2.578 14.833 14.833 0 0 0-.481 4.144c-.038 1.4.124 2.8.48 4.155a6.888 6.888 0 0 0 1.296 2.567 4.177 4.177 0 0 0 1.853 1.328c.544.23 1.131.338 1.72.315a4.553 4.553 0 0 0 1.832-.332 4.288 4.288 0 0 0 1.898-1.327 6.816 6.816 0 0 0 1.283-2.562c.348-1.35.506-2.74.47-4.133.038-1.4-.12-2.799-.47-4.155a6.999 6.999 0 0 0-1.289-2.584 4.885 4.885 0 0 0-3.729-1.66l.006.006zm27.841 17.024a1.477 1.477 0 0 1-1.007 1.86c-.659.176-1.34.337-2.042.47-.975.22-1.971.331-2.971.331a9.24 9.24 0 0 1-3.873-.708 7.635 7.635 0 0 1-3.043-2.13 8.974 8.974 0 0 1-1.776-3.441 16.792 16.792 0 0 1-.587-4.653 16.133 16.133 0 0 1 .72-5.04 9.959 9.959 0 0 1 2.08-3.691 8.852 8.852 0 0 1 3.32-2.268 9.704 9.704 0 0 1 4.01-.742 8.637 8.637 0 0 1 2.065.227c.387.077.774.16 1.167.254A1.483 1.483 0 0 1 54.8 37.6v.067a1.483 1.483 0 0 1-1.809.985l-.636-.155a4.77 4.77 0 0 0-1.433-.16c-2.368 0-3.724.641-5.007 2.013-1.284 1.372-1.92 3.447-1.92 6.22-.01 1.167.087 2.334.288 3.485.15.93.492 1.819 1.001 2.611a4.581 4.581 0 0 0 1.964 1.66 5.63 5.63 0 0 0 2.717.553 7.84 7.84 0 0 0 2.157-.287c.554-.122 1.107-.26 1.721-.42a1.477 1.477 0 0 1 1.787.995l.045.094zM95.566 24.3h-3.287a1.743 1.743 0 0 0-1.798 1.726 1.66 1.66 0 0 0 1.726 1.621 1.55 1.55 0 0 1 1.55 1.566v26.629c0 .993.804 1.798 1.798 1.798a1.522 1.522 0 0 0 1.626-1.626V26.198a1.743 1.743 0 0 0-1.615-1.898zm-8.183 21.86v-5.406c0-2.073-.677-3.548-2.03-4.426-1.185-.738-2.9-1.107-5.146-1.107a19.716 19.716 0 0 0-5.904.886 1.55 1.55 0 1 0 .919 2.96 17.19 17.19 0 0 1 4.863-.775 4.98 4.98 0 0 1 2.883.67c.651.527.998 1.344.924 2.18v1.582a1.555 1.555 0 0 1-1.566 1.555h-.233c-3.364 0-5.979.507-7.845 1.521a7.746 7.746 0 0 0-2.766 2.368 6.163 6.163 0 0 0-.974 3.596c0 1.965.592 3.492 1.776 4.57a6.733 6.733 0 0 0 4.708 1.622c1.876 0 4.714-.266 6.828-1.173a.315.315 0 0 1 .332 0c.309.522.87.843 1.477.846a1.776 1.776 0 0 0 1.748-1.798v-9.56c.017-.04.006-.073.006-.111zm-5.3 8.299c-1.458.293-2.94.436-4.427.426-2.423 0-3.637-1.107-3.64-3.32a3.425 3.425 0 0 1 1.25-2.893 8.437 8.437 0 0 1 3.569-1.45c1.12-.221 2.26-.329 3.402-.32h.11c.853 0 1.545.69 1.545 1.543v4.636c-.133 1.145-.952 1.157-1.81 1.367v.01zM64.427 35.504h-3.286c-.996 0-1.798.525-1.798 1.516a1.66 1.66 0 0 0 1.726 1.66 1.555 1.555 0 0 1 1.55 1.565v15.603a1.802 1.802 0 0 0 1.803 1.798 1.66 1.66 0 0 0 1.593-1.798V37.036a1.416 1.416 0 0 0-1.588-1.532zm-.138-4.526a2.025 2.025 0 0 0 1.488-.636c.413-.394.643-.94.637-1.51a2.163 2.163 0 0 0-.615-1.528 2.097 2.097 0 0 0-1.488-.597c-.57-.01-1.12.204-1.532.597-.411.401-.64.953-.631 1.527-.016.57.214 1.12.63 1.51.396.41.942.64 1.511.637z" fill="#1D1D1B"/><path d="M108.418 40.931V26.236c0-.337 0-.68.028-1.018.066-.636.36-.979.99-.99 2.147-.03 4.29-.03 6.43 0 .636 0 .94.387.962 1.079v8.753c.05.34.145.674.282.99.292-.181.558-.4.791-.653 2.053-2.91 4.111-5.82 6.086-8.77a2.85 2.85 0 0 1 2.722-1.454c1.898.088 3.807 0 5.71 0h.72c.99.044 1.244.553.675 1.366-.57.813-1.256 1.76-1.893 2.628-2.091 2.86-4.171 5.721-6.29 8.56a1.743 1.743 0 0 0-.122 2.212 3284.17 3284.17 0 0 1 9.92 16.925c.836 1.433.636 1.854-1.007 1.881-2.163.033-4.326 0-6.484 0a2.29 2.29 0 0 1-2.241-1.366c-1.804-3.32-3.674-6.562-5.533-9.838l-.116-.21c-.487-.802-.802-.824-1.378-.094-.04.046-.077.094-.11.144-2.064 2.833-1.754 1.964-1.776 5.356v4.62c0 .995-.282 1.316-1.278 1.338-1.881.04-3.763.056-5.644 0-1.261 0-1.494-.31-1.494-1.565V40.893l.05.038zm59.284.011c.044-2.434 0-4.868.514-7.275 1.322-6.025 5.632-9.66 11.824-9.92 2.54-.111 5.007.166 7.292 1.36 3.425 1.793 5.162 4.78 5.903 8.444.177.88-.188 1.289-1.106 1.3h-5.467a1.55 1.55 0 0 1-1.532-1.179 4.37 4.37 0 0 0-5.788-2.595 4.094 4.094 0 0 0-2.572 2.889 10.269 10.269 0 0 0-.554 2.81c-.044 3.016-.044 6.036.083 9.046a6.003 6.003 0 0 0 1.76 4.222c2.113 2.036 5.948 1.195 6.988-1.533.509-1.339.608-1.41 2.058-1.41h4.924c1.018 0 1.372.392 1.173 1.388-1.167 5.754-4.426 9.074-10.285 9.627a15.774 15.774 0 0 1-7.503-.896c-3.806-1.538-6.003-4.427-7.06-8.3-.652-2.384-.658-4.824-.68-7.258.022-.238.028-.476.028-.72zm-11.658 9.904v5.46c0 1.107-.254 1.39-1.322 1.412-1.92.038-3.846.038-5.765 0-1.03 0-1.3-.36-1.306-1.444 0-3.176-.061-6.358 0-9.533a8.82 8.82 0 0 0-1.107-4.515c-2.866-5.383-5.649-10.806-8.46-16.222-.752-1.45-.552-1.804 1.107-1.804 2.103 0 4.205.028 6.308 0a1.87 1.87 0 0 1 1.936 1.278 593.72 593.72 0 0 0 3.735 8.255c.19.306.417.589.675.841a4.68 4.68 0 0 0 .68-.857 495.051 495.051 0 0 0 3.713-8.194 1.925 1.925 0 0 1 2.02-1.34c2.118.05 4.243 0 6.367 0a3.84 3.84 0 0 1 .714.045c.63.127.819.553.487 1.25a242.242 242.242 0 0 1-1.715 3.364c-2.534 4.913-5.096 9.804-7.608 14.74a4.609 4.609 0 0 0-.442 1.892c-.056 1.798 0 3.596 0 5.394l-.017-.022z" fill="#000"/><path fill="#E43366" d="M250.958 5.134 221.856 0l-19.248 24.045 9.865 29.169 29.102 5.134 19.248-24.04z"/><path fill="#BB294B" d="m241.542 58.343-29.07-5.129-9.864-29.169 29.069 5.124z"/><path d="M5.902 69.032h1.361v8.3c0 .929 0 1.537.044 1.83.028.39.087.777.177 1.157l-1.311.293a6.512 6.512 0 0 1-.2-.896 7.464 7.464 0 0 1-.088-.858H5.77a3.68 3.68 0 0 1-.913 1.24 2.213 2.213 0 0 1-1.488.514 2.534 2.534 0 0 1-1.339-.337 2.246 2.246 0 0 1-.874-.94 4.791 4.791 0 0 1-.46-1.323 7.785 7.785 0 0 1-.121-1.588 6.95 6.95 0 0 1 .205-1.77c.12-.497.33-.968.62-1.39.279-.404.66-.727 1.106-.934a3.873 3.873 0 0 1 1.66-.327 9.6 9.6 0 0 1 1.748.194l-.011-3.165zm0 8.072v-3.701a6.374 6.374 0 0 0-1.66-.238 2.412 2.412 0 0 0-1.106.232c-.3.146-.552.375-.725.659-.18.29-.31.611-.382.946a5.096 5.096 0 0 0-.122 1.173v.78c0 .227.039.47.072.73.026.23.08.454.16.67.073.181.166.354.277.514.109.157.258.281.432.36.193.085.403.127.614.122.561 0 1.095-.244 1.46-.67a6.523 6.523 0 0 0 .98-1.593v.016zm10.247 2.861a9.35 9.35 0 0 1-1.66.498 7.342 7.342 0 0 1-1.383.15 4.11 4.11 0 0 1-1.633-.3 3.07 3.07 0 0 1-1.161-.835 3.552 3.552 0 0 1-.698-1.284 5.588 5.588 0 0 1-.232-1.66c0-.37.027-.74.077-1.106a6.04 6.04 0 0 1 .255-1.062c.115-.33.269-.643.46-.935.18-.289.411-.543.68-.753.285-.22.605-.39.946-.503a3.99 3.99 0 0 1 1.228-.177 3.22 3.22 0 0 1 2.661 1.106 4.91 4.91 0 0 1 .93 3.165v.437h-5.826c-.007.397.04.794.138 1.178.084.317.235.611.443.864.2.244.46.434.752.553a2.9 2.9 0 0 0 1.08.182c.232 0 .465-.016.696-.05a6.61 6.61 0 0 0 1.29-.32l.553-.2.404 1.052zm-.93-4.349a2.927 2.927 0 0 0-.614-1.876 2.042 2.042 0 0 0-1.571-.592 2.008 2.008 0 0 0-1.56.592 3.165 3.165 0 0 0-.642 1.876h4.387zm9.251 4.514a9.64 9.64 0 0 1-1.317.35c-.437.085-.882.13-1.328.132a4.515 4.515 0 0 1-1.66-.277 2.877 2.877 0 0 1-1.14-.79 3.37 3.37 0 0 1-.674-1.306 6.324 6.324 0 0 1-.222-1.76 6.086 6.086 0 0 1 .271-1.909c.161-.517.43-.995.792-1.4a3.36 3.36 0 0 1 1.267-.857 4.559 4.559 0 0 1 1.698-.293c.33.001.66.033.985.094.341.068.68.153 1.012.254l-.343 1.09a13.65 13.65 0 0 0-.769-.215 3.53 3.53 0 0 0-.735-.078 2.706 2.706 0 0 0-2.08.78 3.37 3.37 0 0 0-.726 2.357c-.004.443.03.886.106 1.322.058.352.188.687.381.985.183.275.44.491.742.625.38.156.79.23 1.2.216a4.708 4.708 0 0 0 1.03-.127 16.01 16.01 0 0 0 1.167-.304l.343 1.112zm8.116-.165a9.35 9.35 0 0 1-1.66.498 7.342 7.342 0 0 1-1.383.15 4.133 4.133 0 0 1-1.632-.3 3.01 3.01 0 0 1-1.156-.835 3.552 3.552 0 0 1-.697-1.284 5.411 5.411 0 0 1-.238-1.66c0-.37.027-.74.083-1.106.048-.361.131-.717.249-1.062.115-.33.269-.643.459-.935.184-.289.416-.543.686-.753.282-.22.6-.39.94-.503a3.99 3.99 0 0 1 1.229-.177 3.22 3.22 0 0 1 2.661 1.106c.654.92.97 2.038.896 3.165v.437h-5.792c-.008.398.04.794.144 1.178.082.316.23.61.437.864.2.244.46.434.752.553a2.9 2.9 0 0 0 1.079.182c.233 0 .466-.016.697-.05a6.512 6.512 0 0 0 1.29-.32l.552-.2.404 1.052zm-.93-4.349a2.866 2.866 0 0 0-.613-1.876 2.042 2.042 0 0 0-1.572-.592 1.992 1.992 0 0 0-1.554.592 3.126 3.126 0 0 0-.648 1.876h4.388zm3.221-3.264 1.317-.293c.095.3.167.607.215.918 0 .144.045.426.078.852h.166c.27-.502.648-.939 1.106-1.278a2.462 2.462 0 0 1 1.489-.52 2.55 2.55 0 0 1 1.798.553c.397.4.655.919.736 1.477.109.671.155 1.351.138 2.03v4.344h-1.383V75.71a4.426 4.426 0 0 0-.227-1.687 1.361 1.361 0 0 0-1.372-.753c-.55.03-1.066.281-1.427.697a7.1 7.1 0 0 0-.996 1.372v5.096h-1.361v-5.073c0-.714 0-1.328-.056-1.843a6.993 6.993 0 0 0-.221-1.167zM44.969 70.3h1.36v1.88h2.767v1.151H46.33v5.455a.77.77 0 0 0 .138.393.985.985 0 0 0 .83.282 3.32 3.32 0 0 0 .675-.066c.221-.05.426-.105.609-.16.16.343.295.698.403 1.062a5.837 5.837 0 0 1-1.88.315 3.198 3.198 0 0 1-1.107-.155 1.328 1.328 0 0 1-.653-.503 2.125 2.125 0 0 1-.327-.869 10.13 10.13 0 0 1-.077-1.405v-4.35h-1.162v-1.15h1.19v-1.882zm7.574 3.795c.15-.312.326-.61.526-.891.175-.252.384-.479.62-.675a2.24 2.24 0 0 1 .68-.399c.274-.09.563-.133.852-.127h.365c.144 0 .277.033.404.056 0 .265-.05.514-.078.746a8.565 8.565 0 0 1-.116.709 8.488 8.488 0 0 0-.725-.106 2.302 2.302 0 0 0-.62 0 1.522 1.522 0 0 0-.608.233 2.147 2.147 0 0 0-.476.454 4.847 4.847 0 0 0-.42.669c-.138.266-.288.553-.454.902v4.73h-1.36v-5.959c0-.254 0-.497-.05-.724a6.711 6.711 0 0 0-.106-.68c-.05-.228-.11-.477-.193-.753.226-.056.442-.11.658-.155l.653-.138c.072.215.133.403.177.553.044.15.077.326.105.481.029.158.05.316.06.476 0 .16 0 .343.045.553l.061.045zm5.599-.455-.348-1.106a7.569 7.569 0 0 1 2.766-.525 3.618 3.618 0 0 1 1.947.426c.535.375.829 1.008.77 1.66v4.564a6.7 6.7 0 0 0 .248 1.627l-1.3.282a4.73 4.73 0 0 1-.232-1.184h-.155a3.07 3.07 0 0 1-2.506 1.234 2.534 2.534 0 0 1-1.782-.614 2.213 2.213 0 0 1-.675-1.732 2.313 2.313 0 0 1 .37-1.361 2.94 2.94 0 0 1 1.041-.897 6.269 6.269 0 0 1 2.971-.553h.68v-1.2a.946.946 0 0 0-.348-.825 1.853 1.853 0 0 0-1.107-.254 7.12 7.12 0 0 0-2.34.459zm3.834 4.471v-1.66h-.625a6.64 6.64 0 0 0-1.283.117 3.215 3.215 0 0 0-1.35.553c-.327.26-.506.662-.482 1.079 0 .846.46 1.272 1.378 1.272a2.49 2.49 0 0 0 1.333-.381c.398-.268.75-.598 1.04-.98h-.01zm5.074-.891v1.107c0 .31 0 .553.044.775.01.2.035.4.072.597.033.185.077.384.133.598l-.664.16-.67.133a6.805 6.805 0 0 1-.226-.946 5.422 5.422 0 0 1-.067-.836v-9.776h1.367l.01 8.189zm3.42-8.232c.236 0 .464.09.635.254a.94.94 0 0 1 .26.653.896.896 0 0 1-.901.908.907.907 0 0 1-.642-.266.847.847 0 0 1-.271-.642.885.885 0 0 1 .27-.653.918.918 0 0 1 .648-.254zm-.698 3.192h1.361v8.244h-1.361V72.18zm6.048 1.151h-.593a5.101 5.101 0 0 1-1.029-.127 4.847 4.847 0 0 1-.553-.177c.066-.188.133-.376.2-.554.065-.177.132-.37.198-.553.216.067.404.122.554.16l.48.084c.161 0 .327 0 .493.033h3.93v.951l-4.133 6.142h4.204v1.15h-5.909v-.962l4.128-6.13-1.97-.017zm12.171 6.634a9.212 9.212 0 0 1-1.66.498 7.336 7.336 0 0 1-1.377.15 4.11 4.11 0 0 1-1.632-.3 3.07 3.07 0 0 1-1.162-.835 3.552 3.552 0 0 1-.697-1.284 5.588 5.588 0 0 1-.233-1.66 7.31 7.31 0 0 1 .078-1.106c.05-.362.135-.718.254-1.062.113-.33.265-.643.454-.935.184-.289.416-.543.686-.753.283-.22.601-.39.94-.503a3.99 3.99 0 0 1 1.229-.177 3.215 3.215 0 0 1 2.661 1.106c.654.92.97 2.038.896 3.165v.437H82.63c-.005.397.044.794.144 1.178.084.315.233.61.437.864.2.244.46.434.752.553.354.132.73.194 1.107.182.231 0 .463-.016.692-.05a6.23 6.23 0 0 0 .67-.132 8.39 8.39 0 0 0 .619-.188l.553-.2.387 1.052zm-.924-4.349c.02-.678-.2-1.342-.62-1.876a2.042 2.042 0 0 0-1.57-.592 1.992 1.992 0 0 0-1.555.592 3.165 3.165 0 0 0-.648 1.876h4.393zm8.305-6.584h1.361v8.3c0 .929 0 1.537.039 1.83.032.39.093.776.182 1.157l-1.316.293a5.765 5.765 0 0 1-.194-.896 7.464 7.464 0 0 1-.089-.858h-.121a3.602 3.602 0 0 1-.908 1.262 2.21 2.21 0 0 1-1.494.514 2.545 2.545 0 0 1-1.338-.337 2.318 2.318 0 0 1-.875-.94 4.98 4.98 0 0 1-.459-1.323 7.801 7.801 0 0 1-.144-1.588 7.18 7.18 0 0 1 .2-1.77c.125-.497.336-.967.625-1.39.279-.404.66-.726 1.106-.934a3.873 3.873 0 0 1 1.66-.327 9.65 9.65 0 0 1 1.754.194l.011-3.187zm0 8.072v-3.701a6.374 6.374 0 0 0-1.66-.238 2.44 2.44 0 0 0-1.106.232 1.78 1.78 0 0 0-.725.659 3.115 3.115 0 0 0-.382.946 5.44 5.44 0 0 0-.116 1.173v.78c0 .227.039.47.072.73.046.426.198.833.442 1.184.109.157.258.281.432.36.193.085.403.127.614.122a1.909 1.909 0 0 0 1.455-.67 6.34 6.34 0 0 0 .974-1.593v.016zm88.889-4.924-2.766 8.244h-1.82l-2.767-8.244h1.477l2.18 7.193 2.175-7.193zm7.884 7.785a9.35 9.35 0 0 1-1.66.498 7.342 7.342 0 0 1-1.383.15 4.083 4.083 0 0 1-1.626-.3 3.032 3.032 0 0 1-1.162-.835 3.552 3.552 0 0 1-.697-1.284 5.583 5.583 0 0 1-.238-1.66c0-.37.027-.74.083-1.106.05-.362.135-.718.254-1.062.113-.33.265-.643.454-.935.184-.289.416-.543.686-.753.282-.22.6-.39.94-.503a3.99 3.99 0 0 1 1.229-.177 3.22 3.22 0 0 1 2.661 1.106c.654.92.97 2.038.896 3.165v.437h-5.792c-.008.398.04.794.143 1.178.083.316.232.61.438.864.2.244.459.434.752.553.353.132.73.194 1.107.182.23 0 .462-.016.691-.05a6.512 6.512 0 0 0 1.29-.32l.553-.2.381 1.052zm-.93-4.349a2.866 2.866 0 0 0-.613-1.876 2.042 2.042 0 0 0-1.572-.592 1.992 1.992 0 0 0-1.554.592 3.126 3.126 0 0 0-.648 1.876h4.388zm4.98-1.521c.15-.312.326-.61.526-.891.176-.252.384-.479.62-.675.2-.174.43-.31.68-.399.275-.09.563-.133.852-.127h.365c.139 0 .277.033.399.056 0 .265-.045.514-.072.746a8.565 8.565 0 0 1-.117.709 8.488 8.488 0 0 0-.724-.106 2.296 2.296 0 0 0-.62 0 1.522 1.522 0 0 0-.609.233 2.036 2.036 0 0 0-.475.454 4.34 4.34 0 0 0-.42.669c-.14.266-.289.553-.455.902v4.73h-1.372v-5.959c0-.254-.027-.497-.05-.724a6.711 6.711 0 0 0-.105-.68c-.05-.228-.11-.477-.193-.753.221-.056.442-.11.653-.155l.658-.138c.072.215.133.403.177.553.044.15.078.326.105.481.028.155.044.316.061.476.017.16.028.343.044.553l.072.045zm5.915-5.107c.237 0 .465.09.636.254a.94.94 0 0 1 .26.653.896.896 0 0 1-.902.908.907.907 0 0 1-.642-.266.847.847 0 0 1-.27-.642.885.885 0 0 1 .27-.653.918.918 0 0 1 .648-.254zm-.697 3.192h1.36v8.244h-1.36V72.18zm6.44 0H215v8.244h-1.361v-7.093h-5.787v5.942h2.65v1.151h-5.406v-1.15h1.378V73.33h-1.378v-1.15h1.378v-.892a4.21 4.21 0 0 1 .11-1.018 2.34 2.34 0 0 1 .388-.79 1.66 1.66 0 0 1 .813-.554 3.98 3.98 0 0 1 1.323-.188c.82.02 1.635.135 2.429.343l-.244 1.106a10.7 10.7 0 0 0-2.03-.282c-.186 0-.37.014-.554.039a.952.952 0 0 0-.393.144c-.092.06-.174.135-.243.221a1.03 1.03 0 0 0-.133.36c-.027.155-.044.31-.055.448-.011.138 0 .343 0 .597l-.033.465zm5.831-1.66a.858.858 0 0 1-.265-.641.902.902 0 0 1 .265-.653.94.94 0 0 1 1.284 0c.17.174.264.409.26.653a.874.874 0 0 1-.26.641.863.863 0 0 1-.63.266.902.902 0 0 1-.654-.249v-.017zm9.898 9.61a10.02 10.02 0 0 1-1.322.35c-.437.085-.882.13-1.328.132a4.482 4.482 0 0 1-1.66-.277 2.855 2.855 0 0 1-1.156-.807 3.37 3.37 0 0 1-.675-1.306 6.324 6.324 0 0 1-.221-1.76 6.086 6.086 0 0 1 .27-1.908c.161-.518.431-.995.792-1.4a3.35 3.35 0 0 1 1.267-.858 4.576 4.576 0 0 1 1.699-.293c.33.002.66.033.984.094.342.068.68.153 1.013.255l-.338 1.106a10.52 10.52 0 0 0-.763-.215 3.624 3.624 0 0 0-.742-.078 2.689 2.689 0 0 0-2.074.78 3.32 3.32 0 0 0-.73 2.357c-.005.443.03.886.104 1.322.059.352.188.687.382.985.183.275.44.491.742.625.38.156.79.23 1.2.216a4.708 4.708 0 0 0 1.03-.127 15.31 15.31 0 0 0 1.167-.304l.36 1.112zm2.429-6.49-.348-1.106a7.585 7.585 0 0 1 2.766-.525 3.618 3.618 0 0 1 1.948.426c.535.375.828 1.008.769 1.66v4.564c.006.282.034.563.083.841.036.266.092.528.166.786l-1.3.282a4.73 4.73 0 0 1-.233-1.184h-.155a3.07 3.07 0 0 1-2.506 1.234 2.545 2.545 0 0 1-1.782-.614 2.213 2.213 0 0 1-.675-1.732 2.313 2.313 0 0 1 .37-1.361 2.94 2.94 0 0 1 1.041-.897 6.269 6.269 0 0 1 2.971-.553h.68v-1.2a.946.946 0 0 0-.348-.825 1.853 1.853 0 0 0-1.106-.254 7.12 7.12 0 0 0-2.34.459zm3.834 4.471v-1.66h-.625a6.64 6.64 0 0 0-1.283.117 3.215 3.215 0 0 0-1.35.553c-.327.26-.506.662-.482 1.079 0 .846.46 1.272 1.383 1.272.47.001.93-.131 1.328-.381a4.376 4.376 0 0 0 1.03-.98zm4.659-7.811h1.367v1.88h2.766v1.151h-2.766v4.73c-.005.242.004.484.027.725a.72.72 0 0 0 .139.393c.216.22.524.325.83.282a3.32 3.32 0 0 0 .674-.066c.222-.05.426-.105.61-.16.157.344.292.7.403 1.062a5.87 5.87 0 0 1-1.887.315 3.22 3.22 0 0 1-1.106-.155 1.35 1.35 0 0 1-.653-.503 2.119 2.119 0 0 1-.321-.869 9.2 9.2 0 0 1-.083-1.405v-4.35h-1.184v-1.15h1.184v-1.882zm6.894-1.312c.237 0 .465.09.636.254a.94.94 0 0 1 .26.653.896.896 0 0 1-.902.908.907.907 0 0 1-.642-.266.847.847 0 0 1-.27-.642.885.885 0 0 1 .27-.653.918.918 0 0 1 .648-.254zm-.703 3.192h1.361v8.244h-1.36V72.18zm7.27-.177c.27 0 .54.018.808.056a3.06 3.06 0 0 1 1.588.697c.257.219.474.48.642.774.199.365.344.756.431 1.162a8.16 8.16 0 0 1 0 3.22 4.205 4.205 0 0 1-.431 1.156 2.966 2.966 0 0 1-.642.786c-.229.194-.487.35-.764.465a3.15 3.15 0 0 1-.824.232 5.86 5.86 0 0 1-.808.061 5.765 5.765 0 0 1-.797-.06 3.192 3.192 0 0 1-.818-.233 2.977 2.977 0 0 1-.764-.465 3.049 3.049 0 0 1-.63-.786 4.205 4.205 0 0 1-.438-1.156 8.443 8.443 0 0 1 0-3.22c.09-.406.236-.798.437-1.162.166-.292.379-.553.631-.774a3.144 3.144 0 0 1 1.577-.697 5.67 5.67 0 0 1 .802-.056zm0 1.107a2.55 2.55 0 0 0-.852.144 1.699 1.699 0 0 0-.703.498 2.7 2.7 0 0 0-.486.979 6.805 6.805 0 0 0 0 3.131 2.6 2.6 0 0 0 .486.969c.183.23.426.404.703.503.274.094.562.141.852.138.295.003.589-.044.869-.138.28-.097.528-.272.714-.503.232-.284.4-.614.492-.969a7.01 7.01 0 0 0 0-3.131 2.623 2.623 0 0 0-.492-.98 1.693 1.693 0 0 0-.714-.497 2.65 2.65 0 0 0-.869-.139v-.005zm5.489-.758 1.316-.293c.095.3.168.607.216.918 0 .144.044.426.078.852h.166c.27-.502.648-.939 1.106-1.278a2.462 2.462 0 0 1 1.489-.52 2.55 2.55 0 0 1 1.798.553c.395.402.653.92.736 1.477.106.672.152 1.351.138 2.03v4.344h-1.367V75.71a4.531 4.531 0 0 0-.227-1.687 1.361 1.361 0 0 0-1.372-.753c-.55.03-1.065.281-1.427.697a7.1 7.1 0 0 0-.996 1.372v5.096h-1.361v-5.073c0-.714 0-1.328-.055-1.843a6.993 6.993 0 0 0-.238-1.167zm-144.222-3.32a.896.896 0 0 1 .907.913.885.885 0 0 1-.266.653.869.869 0 0 1-.641.271.896.896 0 0 1-.659-.271.874.874 0 0 1-.271-.653.896.896 0 0 1 .271-.653.935.935 0 0 1 .659-.26zm-.703 3.231h1.378v8.344h-1.378v-8.344zm9.228-3.231h1.378v8.41c0 .94 0 1.555.039 1.853.032.394.095.784.188 1.168l-1.333.299a5.22 5.22 0 0 1-.2-.908 7.746 7.746 0 0 1-.088-.868h-.122c-.21.489-.525.925-.924 1.278-.42.354-.956.539-1.505.52a2.578 2.578 0 0 1-1.355-.338 2.385 2.385 0 0 1-.891-.951 5.173 5.173 0 0 1-.465-1.34 8.067 8.067 0 0 1-.15-1.615 7.347 7.347 0 0 1 .206-1.787c.125-.504.339-.981.63-1.41a2.763 2.763 0 0 1 1.14-.947 3.94 3.94 0 0 1 1.66-.332c.597.01 1.191.077 1.776.2l.016-3.232zm0 8.177V73.48a6.59 6.59 0 0 0-1.66-.243 2.484 2.484 0 0 0-1.106.238 1.82 1.82 0 0 0-.736.664 3.09 3.09 0 0 0-.382.963 5.156 5.156 0 0 0-.121 1.184v.79c0 .239.038.477.072.737.03.232.086.46.166.68.075.183.17.357.282.52.109.16.26.286.437.365.195.088.406.131.62.128.57 0 1.11-.25 1.477-.686a6.534 6.534 0 0 0 .951-1.605v-.006zm10.468 2.916c-.536.22-1.092.39-1.66.51-.46.093-.929.143-1.4.149a4.227 4.227 0 0 1-1.659-.3 3.093 3.093 0 0 1-1.173-.846 3.63 3.63 0 0 1-.708-1.305 5.671 5.671 0 0 1-.238-1.66c0-.37.029-.74.083-1.107.052-.364.137-.724.254-1.073.117-.333.273-.65.465-.946.184-.293.418-.552.692-.764a3.24 3.24 0 0 1 .957-.509c.4-.127.819-.19 1.24-.182a3.286 3.286 0 0 1 2.7 1.106 4.98 4.98 0 0 1 .901 3.21v.436h-5.876c-.005.403.044.805.144 1.195.085.32.238.619.448.875.204.243.464.433.758.553.354.13.73.192 1.107.182.235 0 .47-.016.703-.05.232-.038.459-.082.68-.138.221-.055.426-.121.625-.188l.554-.199.403 1.051zm-.935-4.426a2.96 2.96 0 0 0-.625-1.898 2.07 2.07 0 0 0-1.593-.597 2.03 2.03 0 0 0-1.577.597 3.237 3.237 0 0 0-.653 1.898h4.448zm3.37-3.303 1.333-.299c.096.304.168.615.216.93 0 .144.044.431.077.857h.172c.27-.505.648-.945 1.107-1.289.426-.346.955-.54 1.504-.553a2.6 2.6 0 0 1 1.826.58c.4.41.66.935.742 1.5.116.695.166 1.399.149 2.103v4.393h-1.378v-4.78a4.504 4.504 0 0 0-.232-1.71 1.378 1.378 0 0 0-1.389-.758 2.053 2.053 0 0 0-1.444.702 7.12 7.12 0 0 0-1.012 1.39v5.156h-1.406v-5.135c0-.719 0-1.344-.055-1.864a7.193 7.193 0 0 0-.21-1.223zm10.302-2.058h1.377v1.909h2.811v1.167h-2.81V78.2c-.004.246.007.491.033.736a.758.758 0 0 0 .138.398c.219.224.53.331.841.288a3.02 3.02 0 0 0 .68-.072c.227-.05.432-.1.62-.16.159.348.295.707.41 1.073a5.86 5.86 0 0 1-1.91.32 3.268 3.268 0 0 1-1.106-.154 1.367 1.367 0 0 1-.664-.51 2.119 2.119 0 0 1-.326-.885 9.367 9.367 0 0 1-.083-1.416v-4.426h-1.2v-1.168h1.2l-.011-1.886zm7.076-1.306a.896.896 0 0 1 .908.913.885.885 0 0 1-.266.653.869.869 0 0 1-.642.271.896.896 0 0 1-.658-.271.874.874 0 0 1-.271-.653.896.896 0 0 1 .27-.653.935.935 0 0 1 .66-.26zm-.702 3.231h1.377v8.344h-1.377v-8.344zm5.084-1.925h1.411v1.909h2.766v1.167h-2.766V78.2c0 .32 0 .553.028.736.01.142.057.28.138.398a.99.99 0 0 0 .846.288c.218-.003.435-.03.648-.078.221-.05.431-.1.614-.16.159.349.295.707.41 1.073a5.86 5.86 0 0 1-1.91.321 3.27 3.27 0 0 1-1.106-.155 1.367 1.367 0 0 1-.664-.509 2.213 2.213 0 0 1-.326-.885 9.367 9.367 0 0 1-.083-1.416v-4.427h-1.2V72.22h1.2l-.006-1.881zm13.03 1.909v8.531c.01.47-.078.938-.26 1.372a2.54 2.54 0 0 1-.725.952 2.96 2.96 0 0 1-1.107.553c-.45.125-.915.187-1.383.183-.454 0-.908-.04-1.355-.116a8.764 8.764 0 0 1-1.3-.327l.215-.553.227-.526c.127.039.282.089.46.133.176.044.37.094.553.133.182.039.409.072.62.1.203.021.408.032.613.033.285.004.57-.037.841-.122.24-.075.46-.204.642-.376a1.66 1.66 0 0 0 .404-.615c.1-.267.148-.55.144-.835v-1.776h-.155c-.139.25-.3.487-.481.708-.176.22-.379.417-.603.587a2.838 2.838 0 0 1-.709.387 2.296 2.296 0 0 1-.807.138 3.497 3.497 0 0 1-1.018-.132 1.964 1.964 0 0 1-1.245-1.04 3.596 3.596 0 0 1-.305-.902 7.453 7.453 0 0 1-.11-.98v-5.499h1.377v4.791c0 .325.016.65.05.974.023.272.094.538.21.785.106.22.276.404.487.526.27.137.572.202.874.188.27.001.535-.067.77-.199.246-.133.471-.3.669-.498.204-.209.389-.434.553-.675a10.9 10.9 0 0 0 .465-.725v-5.167l1.389-.011z" fill="#000"/></g></svg>