<svg width="30" height="30" xmlns="http://www.w3.org/2000/svg"><g fill="#FFF" fill-rule="evenodd"><path d="M11.946 23 6.47 17.85c-.304-.285-.46-.576-.47-.87-.01-.296.123-.573.399-.832.294-.277.599-.411.912-.403.314.01.623.157.927.443l3.707 3.486 9.815-9.23c.304-.287.613-.434.927-.444.314-.008.613.121.898.39.286.267.423.55.414.844-.01.295-.167.586-.47.872L11.945 23Z"/><path d="M15 27C8.373 27 3 21.627 3 15S8.373 3 15 3s12 5.373 12 12-5.373 12-12 12m0-27C6.716 0 0 6.716 0 15c0 8.284 6.716 15 15 15 8.284 0 15-6.716 15-15 0-8.284-6.716-15-15-15" fill-opacity=".346"/></g></svg>