<svg width="30" height="30" xmlns="http://www.w3.org/2000/svg"><path d="M15 27C8.373 27 3 21.627 3 15S8.373 3 15 3s12 5.373 12 12-5.373 12-12 12m0-27C6.716 0 0 6.716 0 15c0 8.284 6.716 15 15 15 8.284 0 15-6.716 15-15 0-8.284-6.716-15-15-15" fill-opacity=".5" fill="#FFF"/><path d="M14.721 7c-.328 0-.614.12-.857.363a1.165 1.165 0 0 0-.364.853v8.661c0 .327.121.612.364.854.243.241.529.362.857.362h.558c.328 0 .614-.12.857-.362s.364-.527.364-.854V8.216c0-.327-.121-.612-.364-.853A1.175 1.175 0 0 0 15.279 7h-.558Zm0 13.44c-.328 0-.614.12-.857.363a1.165 1.165 0 0 0-.364.853v.128c0 .327.121.612.364.853.243.242.529.363.857.363h.558c.328 0 .614-.12.857-.363.243-.241.364-.526.364-.853v-.128c0-.327-.121-.612-.364-.853a1.175 1.175 0 0 0-.857-.363h-.558Z" fill="#FFF"/></svg>