<svg xmlns="http://www.w3.org/2000/svg" height="113.387" width="507.893"><g fill="#fff"><path d="M64.792 80.99V32.398l42.082 24.297zm93.803-63.284a20.285 20.285 0 00-14.32-14.32C131.642 0 80.99 0 80.99 0S30.337 0 17.705 3.386a20.286 20.286 0 00-14.32 14.32C0 30.338 0 56.693 0 56.693S0 83.05 3.385 95.681a20.285 20.285 0 0014.32 14.32c12.632 3.386 63.285 3.386 63.285 3.386s50.652 0 63.285-3.386a20.284 20.284 0 0014.32-14.32c3.385-12.631 3.385-38.988 3.385-38.988s0-26.355-3.385-38.987M253.068 92.031c.887-2.315 1.332-6.098 1.332-11.35V58.555c0-5.096-.445-8.821-1.332-11.177-.888-2.355-2.452-3.533-4.69-3.533-2.163 0-3.69 1.178-4.577 3.533-.888 2.356-1.332 6.081-1.332 11.177v22.126c0 5.252.424 9.035 1.275 11.35.848 2.318 2.392 3.475 4.633 3.475 2.239 0 3.803-1.157 4.691-3.475zm-17.953 11.121c-3.207-2.16-5.486-5.52-6.835-10.078-1.352-4.555-2.027-10.617-2.027-18.185v-10.31c0-7.644.771-13.784 2.316-18.417 1.544-4.634 3.956-8.011 7.24-10.136 3.282-2.123 7.587-3.185 12.916-3.185 5.251 0 9.459 1.082 12.626 3.243 3.165 2.162 5.482 5.542 6.95 10.135 1.466 4.596 2.2 10.716 2.2 18.36v10.31c0 7.568-.714 13.65-2.142 18.244-1.43 4.595-3.747 7.955-6.951 10.077-3.205 2.124-7.548 3.186-13.03 3.186-5.64 0-10.06-1.082-13.263-3.244M483.168 45.172c-.81 1.004-1.352 2.645-1.621 4.923-.272 2.278-.404 5.733-.404 10.367v5.097h11.697v-5.097c0-4.556-.155-8.011-.463-10.367-.309-2.355-.868-4.015-1.678-4.98-.812-.966-2.067-1.45-3.766-1.45-1.7 0-2.954.504-3.765 1.507zm-2.025 29.885v3.592c0 4.557.132 7.974.404 10.25.269 2.28.828 3.94 1.68 4.983.849 1.041 2.16 1.563 3.938 1.563 2.392 0 4.035-.927 4.923-2.78.887-1.854 1.37-4.942 1.447-9.268l13.785.812c.077.62.116 1.468.116 2.547 0 6.566-1.795 11.47-5.387 14.713-3.589 3.242-8.669 4.865-15.232 4.865-7.876 0-13.398-2.47-16.564-7.415-3.168-4.94-4.75-12.585-4.75-22.934V63.589c0-10.656 1.641-18.435 4.924-23.34 3.281-4.904 8.9-7.356 16.854-7.356 5.482 0 9.691 1.004 12.626 3.011 2.933 2.01 5 5.137 6.197 9.383 1.197 4.248 1.796 10.118 1.796 17.608v12.162h-26.757M196.19 73.728l-18.187-65.68h15.869l6.37 29.77c1.623 7.338 2.82 13.593 3.591 18.766h.464c.54-3.707 1.738-9.922 3.591-18.65l6.603-29.886h15.869l-18.417 65.68v31.51h-15.754v-31.51M322.115 34.23v71.007h-12.511l-1.39-8.687h-.347c-3.399 6.563-8.496 9.844-15.291 9.844-4.71 0-8.185-1.542-10.425-4.632-2.24-3.087-3.359-7.915-3.359-14.48V34.23h15.985v52.125c0 3.169.348 5.426 1.043 6.777.695 1.353 1.853 2.027 3.475 2.027 1.39 0 2.722-.423 3.996-1.275 1.274-.849 2.22-1.928 2.838-3.242V34.23h15.986M404.11 34.23v71.007h-12.511l-1.391-8.687h-.345c-3.402 6.563-8.498 9.844-15.292 9.844-4.711 0-8.186-1.542-10.426-4.632-2.24-3.087-3.358-7.915-3.358-14.48V34.23h15.985v52.125c0 3.169.347 5.426 1.041 6.777.696 1.353 1.855 2.027 3.476 2.027 1.391 0 2.723-.423 3.996-1.275 1.275-.849 2.22-1.928 2.839-3.242V34.23h15.985"/><path d="M365.552 20.909h-15.87v84.328h-15.637V20.91h-15.869V8.05h47.376V20.91M442.363 74.545c0 5.174-.215 9.229-.639 12.162-.424 2.936-1.139 5.02-2.143 6.255-1.004 1.236-2.357 1.853-4.053 1.853a7.404 7.404 0 01-3.65-.927c-1.12-.617-2.026-1.543-2.722-2.78v-40.31c.54-1.93 1.467-3.513 2.78-4.75 1.313-1.233 2.74-1.853 4.285-1.853 1.623 0 2.876.638 3.766 1.911.886 1.274 1.505 3.418 1.853 6.43.348 3.011.523 7.297.523 12.857zm14.652-28.965c-.967-4.477-2.531-7.72-4.692-9.73-2.163-2.006-5.136-3.01-8.919-3.01-2.935 0-5.676.83-8.224 2.49a16.926 16.926 0 00-5.908 6.545h-.117l.001-37.416h-15.405v100.777h13.204l1.622-6.718h.347c1.235 2.394 3.088 4.286 5.56 5.676 2.47 1.39 5.213 2.085 8.225 2.085 5.404 0 9.382-2.491 11.931-7.472 2.548-4.981 3.823-12.76 3.823-23.34V64.23c0-7.953-.484-14.17-1.448-18.65"/></g></svg>